<svg width="859" height="92" viewBox="0 0 859 92" fill="none" xmlns="http://www.w3.org/2000/svg">
<path d="M47.5669 90.7856C47.1685 81.3845 37.0503 73.5767 27.4898 75.2498C26.7728 68.2388 25.0997 61.1481 20.7178 55.4914C16.3359 49.8348 8.84683 46.0903 1.75612 47.6837C0.162704 38.3622 -5.41426 29.5984 -13.6204 24.3401C-21.8265 19.0818 -32.4227 17.4088 -41.7442 20.3566C-46.3651 21.7907 -50.5876 24.3401 -54.4915 27.2879C-59.1921 30.7935 -63.6537 35.8127 -62.9366 41.4694C-72.7361 41.31 -82.934 43.2221 -90.7418 48.8787C-98.5495 54.5354 -103.648 64.5739 -101.338 73.7361C-107.074 73.8954 -112.89 75.0108 -117.591 78.1976C-122.291 81.3845 -125.558 86.8021 -124.921 92.2994H47.4075L47.5669 90.7856Z" fill="#272652"/>
<path d="M173.765 90.7856C173.367 81.3845 163.249 73.5767 153.688 75.2498C152.971 68.2388 151.298 61.1481 146.916 55.4914C142.534 49.8348 135.045 46.0903 127.955 47.6837C126.361 38.3622 120.784 29.5984 112.578 24.3401C104.452 19.0818 93.7759 17.4088 84.4544 20.3566C79.8335 21.7907 75.6109 24.3401 71.707 27.2879C67.0064 30.7935 62.5449 35.8127 63.2619 41.4694C53.4624 41.31 43.2645 43.2221 35.4568 48.8787C27.649 54.5354 22.5501 64.5739 24.8606 73.7361C19.1243 73.8954 13.3083 75.0108 8.60771 78.1976C3.90713 81.3845 0.640624 86.8021 1.27799 92.2994H173.606L173.765 90.7856Z" fill="#2B2A5D"/>
<path d="M38.325 35.4945C38.2454 36.6896 38.4047 38.1236 39.4404 38.761C40.3965 39.3187 41.6712 38.761 42.6273 38.1236C46.9295 35.3352 50.196 30.9533 52.0284 26.0933C53.4625 22.2691 54.7372 17.0905 54.0999 12.9477C53.3032 7.92839 50.7537 10.2388 48.1246 13.107C42.3882 19.2417 38.8031 27.1291 38.325 35.4945Z" fill="#AC8BF7"/>
<path d="M23.9046 43.5415C24.4623 44.5773 25.3387 45.7723 26.5337 45.7723C27.6491 45.7723 28.4458 44.6569 28.9238 43.6212C31.2343 39.0003 31.7123 33.5827 30.7563 28.4838C30.0392 24.4205 28.4458 19.3216 25.737 16.1348C22.4705 12.2309 21.4348 15.5771 20.7177 19.4013C19.0447 27.5277 20.0007 36.1322 23.9046 43.5415Z" fill="#AC8BF7"/>
<path d="M45.097 48.8795C44.6987 49.9949 44.38 51.429 45.2564 52.3053C46.0531 53.1021 47.4075 52.9427 48.4432 52.624C53.3828 51.19 57.7647 47.9235 60.8719 43.7806C63.3417 40.5141 66.0505 35.8932 66.6082 31.7503C67.2455 26.731 64.1384 28.2448 60.7922 30.2365C53.6218 34.5387 47.9652 41.0718 45.097 48.8795Z" fill="#AC8BF7"/>
<path d="M34.3415 68.0797C33.3854 68.7968 32.4294 69.9121 32.6684 71.0275C32.9074 72.1429 34.1025 72.7006 35.2178 72.9396C40.2371 74.294 45.5751 73.7363 50.435 71.9039C54.2592 70.3902 58.9598 67.9204 61.5889 64.6539C64.7757 60.75 61.3499 60.3516 57.446 60.272C49.1602 60.272 40.8745 62.9011 34.3415 68.0797Z" fill="#AC8BF7"/>
<path d="M13.3083 69.6736C13.9457 70.7093 14.9017 71.8247 16.0968 71.6654C17.2122 71.5857 17.9292 70.3906 18.3276 69.3549C20.2397 64.5747 20.399 59.1571 19.0446 54.1378C18.0089 50.1542 16.0968 45.2147 13.149 42.1872C9.64344 38.5223 8.84673 41.9481 8.3687 45.7723C7.33298 54.0581 8.92641 62.5829 13.3083 69.6736Z" fill="#AC8BF7"/>
<path d="M17.6902 91.9018C19.0447 83.5364 21.7535 75.41 25.737 67.9209C27.1711 65.2121 28.7645 62.583 30.1189 59.8742C33.4651 53.2615 35.3772 46.0114 38.325 39.1597C39.3607 36.7696 40.4761 34.4592 41.6712 32.1487C43.9816 27.7668 46.5311 23.5443 49.2399 19.4014" stroke="#272652" stroke-miterlimit="10" stroke-linecap="round" stroke-linejoin="round"/>
<path d="M12.0336 46.5688C15.3001 58.5195 12.8303 72.0635 18.9649 82.8988C21.9924 76.6048 28.6051 72.8602 35.2975 70.5498C41.9101 68.2393 48.9212 66.9646 55.0558 63.5387" stroke="#272652" stroke-miterlimit="10" stroke-linecap="round" stroke-linejoin="round"/>
<path d="M23.7452 19.7197C25.259 28.1648 24.2233 37.0083 25.8167 45.4534C26.8524 50.7914 28.8442 56.0496 29.0035 61.4673C32.9871 58.8381 37.0503 56.2886 41.0338 53.6595C43.0256 52.3848 45.0174 51.11 46.8498 49.676C51.9487 45.7721 56.1713 40.9918 60.3142 36.1319" stroke="#272652" stroke-miterlimit="10" stroke-linecap="round" stroke-linejoin="round"/>
<path d="M77.7818 80.5076C74.6283 75.5879 73.6887 69.4728 74.4025 63.6443C75.1163 57.8158 77.461 52.3331 80.4499 47.2973C85.3785 51.4653 88.5803 57.6907 89.1258 64.1311C89.5992 69.8665 88.0106 75.4997 86.0743 80.7981C85.4017 82.5765 82.754 87.6058 82.754 87.6058C82.754 87.6058 78.6311 81.8452 77.7818 80.5076Z" fill="#E7A328"/>
<path d="M81.1251 52.499C81.6558 56.2911 81.9047 60.1121 81.9901 64.0068C81.9726 64.9488 82.0368 65.854 82.0193 66.796C82.0371 68.3613 82.0549 69.9265 82.0134 71.4694C82.0491 74.5999 82.0254 77.7079 81.9425 80.7936C81.917 81.9359 81.914 83.0189 81.9109 84.1019C82.0138 87.0546 82.4804 89.9415 83.4516 92.7483" stroke="#272652" stroke-miterlimit="10" stroke-linecap="round" stroke-linejoin="round"/>
<path d="M90.3447 83.9171C89.4981 78.9891 90.8256 73.8671 93.3452 69.5347C95.8647 65.2023 99.5763 61.6595 103.605 58.7112C106.076 63.6437 106.519 69.6387 104.746 74.8634C103.198 79.4953 100.093 83.4032 96.723 86.9394C95.6145 88.0787 91.8596 91.1984 91.8596 91.1984C91.8596 91.1984 90.5707 85.29 90.3447 83.9171Z" fill="#DE4E4C"/>
<path d="M102.451 63.0178C101.581 66.2125 100.497 69.2582 99.2716 72.3184C98.9801 73.0891 98.6517 73.778 98.3602 74.5486C97.8301 75.7711 97.3 76.9936 96.8291 78.2385C95.7688 80.6834 94.7678 83.1508 93.6483 85.5733C93.2527 86.4401 92.8571 87.3069 92.5207 88.1961C91.5646 90.5449 91.0458 92.9913 90.7641 95.5275" stroke="#272652" stroke-miterlimit="10" stroke-linecap="round" stroke-linejoin="round"/>
<path d="M671 90.7212C670.663 82.7789 662.102 76.1828 654.014 77.5962C653.407 71.6732 651.992 65.6829 648.284 60.904C644.577 56.1252 638.241 52.9618 632.242 54.3079C630.894 46.433 626.175 39.0292 619.233 34.5869C612.29 30.1446 603.325 28.7312 595.438 31.2215C591.529 32.4331 587.956 34.5869 584.654 37.0773C580.677 40.0388 576.902 44.2792 577.509 49.058C569.218 48.9234 560.59 50.5387 553.984 55.3175C547.378 60.0964 543.064 68.5771 545.019 76.3174C540.166 76.452 535.245 77.3943 531.269 80.0866C527.292 82.7789 524.528 87.3558 525.067 92H670.865L671 90.7212Z" fill="#2B2A5D"/>
<path d="M858.6 90.2149C858.1 78.4149 845.4 68.6149 833.4 70.7149C832.5 61.9149 830.4 53.0149 824.9 45.9149C819.4 38.8149 810 34.1149 801.1 36.1149C799.1 24.4149 792.1 13.4149 781.8 6.81488C771.6 0.214884 758.2 -1.88512 746.5 1.81488C740.7 3.61488 735.4 6.81489 730.5 10.5149C724.6 14.9149 719 21.2149 719.9 28.3149C707.6 28.1149 694.8 30.5149 685 37.6149C675.2 44.7149 668.8 57.3149 671.7 68.8149C664.5 69.0149 657.2 70.4149 651.3 74.4149C645.4 78.4149 641.3 85.2149 642.1 92.1149H858.4L858.6 90.2149Z" fill="#2B2A5D"/>
</svg>
