<svg width="32" height="58" viewBox="0 0 32 58" fill="none" xmlns="http://www.w3.org/2000/svg">
<path d="M14.4321 0C22.3857 0 28.8 10.2837 28.8 23.0355V55.3372C28.8 55.8577 28.8 56.118 28.7518 56.3334C28.5828 57.0895 27.9924 57.68 27.2363 57.849C27.0208 57.8972 26.7605 57.8972 26.24 57.8972H2.55999C2.03945 57.8972 1.77919 57.8972 1.5637 57.849C0.807623 57.68 0.217159 57.0895 0.0481548 56.3334C-1.14441e-05 56.118 -1.14441e-05 55.8577 -1.14441e-05 55.3372V23.0355C-1.14441e-05 10.2837 6.47839 0 14.4321 0Z" fill="#3A3A68"/>
<path fill-rule="evenodd" clip-rule="evenodd" d="M18.4089 29.514C18.473 29.4112 18.3447 29.2055 18.4089 29.1027C18.2165 29.2055 18.024 29.2055 17.8957 29.4112C18.024 29.7197 18.2165 29.2055 18.4089 29.514Z" fill="#272652"/>
<path fill-rule="evenodd" clip-rule="evenodd" d="M12.187 37.4325C12.2512 37.3296 12.187 37.2268 12.2512 37.124C12.0588 37.0211 11.9305 37.5353 12.187 37.4325Z" fill="#272652"/>
<path fill-rule="evenodd" clip-rule="evenodd" d="M13.0209 34.1416C13.4058 34.3473 12.8926 33.7303 13.0209 34.1416V34.1416Z" fill="#272652"/>
<path fill-rule="evenodd" clip-rule="evenodd" d="M14.9452 29.2056C15.0093 29.2056 15.0093 29.3085 14.9452 29.2056C15.3942 28.8971 14.3679 29.1028 14.9452 29.2056Z" fill="#272652"/>
<path fill-rule="evenodd" clip-rule="evenodd" d="M15.0735 28.6914C15.1376 28.7942 15.2659 28.5886 15.2018 28.4857C15.0735 28.3829 15.1376 28.5886 15.0735 28.6914Z" fill="#272652"/>
<path fill-rule="evenodd" clip-rule="evenodd" d="M12.2512 31.9821C12.5719 31.8792 11.9305 31.8792 12.2512 31.9821V31.9821Z" fill="#272652"/>
<path fill-rule="evenodd" clip-rule="evenodd" d="M14.9452 27.7658C15.33 27.8686 14.8169 27.3545 14.9452 27.7658V27.7658Z" fill="#272652"/>
<path fill-rule="evenodd" clip-rule="evenodd" d="M9.68548 35.5815C10.0062 35.7872 9.62133 34.9645 9.68548 35.5815V35.5815Z" fill="#272652"/>
<path fill-rule="evenodd" clip-rule="evenodd" d="M12.4436 30.9537C12.7643 30.8508 12.1229 30.8508 12.4436 30.9537V30.9537Z" fill="#272652"/>
<path fill-rule="evenodd" clip-rule="evenodd" d="M8.14607 37.124C8.21021 37.2268 8.3385 37.0212 8.27436 36.9183C8.14607 36.8155 8.21021 37.0211 8.14607 37.124Z" fill="#272652"/>
<path fill-rule="evenodd" clip-rule="evenodd" d="M9.87792 34.3475C9.94206 34.4503 10.0703 34.2447 10.0062 34.1418C9.87792 34.039 9.94206 34.2447 9.87792 34.3475Z" fill="#272652"/>
<path fill-rule="evenodd" clip-rule="evenodd" d="M6.02937 39.9006C6.09351 39.7977 6.09351 39.7977 6.15765 39.6949C6.09351 39.5921 6.09351 39.5921 6.02937 39.4892C5.96523 39.5921 5.96522 39.5921 5.90108 39.6949C5.96522 39.6949 5.96523 39.7977 6.02937 39.9006Z" fill="#272652"/>
<path fill-rule="evenodd" clip-rule="evenodd" d="M14.9452 25.7093C15.0093 25.5036 15.0093 25.4007 14.8811 25.1951C14.8169 25.2979 14.8169 25.5036 14.9452 25.7093Z" fill="#272652"/>
<path fill-rule="evenodd" clip-rule="evenodd" d="M12.187 29C12.5719 28.8971 11.8663 28.8971 12.187 29V29Z" fill="#272652"/>
<path fill-rule="evenodd" clip-rule="evenodd" d="M13.085 26.8402C13.1492 26.943 13.2775 26.7374 13.3416 26.6345C13.2133 26.6345 13.1492 26.7374 13.085 26.8402Z" fill="#272652"/>
<path fill-rule="evenodd" clip-rule="evenodd" d="M4.68236 39.7978C5.00307 40.0035 4.61822 39.1808 4.68236 39.7978V39.7978Z" fill="#272652"/>
<path fill-rule="evenodd" clip-rule="evenodd" d="M7.50464 33.3191C7.88949 33.5248 7.37636 32.9078 7.50464 33.3191V33.3191Z" fill="#272652"/>
<path fill-rule="evenodd" clip-rule="evenodd" d="M2.3091 40.7233C2.37324 40.8261 2.50153 40.6204 2.43738 40.5176C2.3091 40.5176 2.37324 40.6204 2.3091 40.7233Z" fill="#272652"/>
<path fill-rule="evenodd" clip-rule="evenodd" d="M14.3679 21.3899C14.6244 21.5956 14.3037 20.7729 14.3679 21.3899V21.3899Z" fill="#272652"/>
<path fill-rule="evenodd" clip-rule="evenodd" d="M12.2512 24.5779C12.5719 24.4751 11.8663 24.4751 12.2512 24.5779V24.5779Z" fill="#272652"/>
<path fill-rule="evenodd" clip-rule="evenodd" d="M7.18393 32.2907C7.56879 32.1879 6.86322 32.1879 7.18393 32.2907V32.2907Z" fill="#272652"/>
<path fill-rule="evenodd" clip-rule="evenodd" d="M2.50151 39.2836C2.6298 39.3865 2.6298 39.0779 2.69394 38.9751C2.50151 38.9751 2.56565 39.1808 2.50151 39.2836Z" fill="#272652"/>
<path fill-rule="evenodd" clip-rule="evenodd" d="M13.4057 22.2127C13.4699 22.0071 13.4699 21.9042 13.3416 21.6985C13.2775 21.8014 13.2775 22.0071 13.4057 22.2127Z" fill="#272652"/>
<path fill-rule="evenodd" clip-rule="evenodd" d="M13.6623 21.5956C13.7265 21.6985 13.8548 21.4928 13.7906 21.39C13.6623 21.2871 13.7265 21.4928 13.6623 21.5956Z" fill="#272652"/>
<path fill-rule="evenodd" clip-rule="evenodd" d="M2.50154 38.5638C2.56568 38.6666 2.69397 38.4609 2.62983 38.3581C2.50154 38.2552 2.56568 38.4609 2.50154 38.5638Z" fill="#272652"/>
<path fill-rule="evenodd" clip-rule="evenodd" d="M15.5225 16.3509C15.9073 16.4537 15.3942 15.8367 15.5225 16.3509V16.3509Z" fill="#272652"/>
<path fill-rule="evenodd" clip-rule="evenodd" d="M16.4846 14.3971C16.4846 14.3971 16.7412 14.3971 16.7412 14.1914C16.7412 14.0886 16.3563 14.2942 16.4846 14.3971Z" fill="#272652"/>
<path fill-rule="evenodd" clip-rule="evenodd" d="M5.00309 31.365C5.38793 31.4679 4.8748 30.9537 5.00309 31.365V31.365Z" fill="#272652"/>
<path fill-rule="evenodd" clip-rule="evenodd" d="M8.40265 25.5035C8.72336 25.4006 8.0178 25.4006 8.40265 25.5035V25.5035Z" fill="#272652"/>
<path fill-rule="evenodd" clip-rule="evenodd" d="M6.79907 25.1948C7.11979 25.092 6.41422 25.092 6.79907 25.1948V25.1948Z" fill="#272652"/>
<path fill-rule="evenodd" clip-rule="evenodd" d="M2.50154 31.6737C2.56568 31.7766 2.69397 31.5709 2.62983 31.468C2.50154 31.468 2.56568 31.5709 2.50154 31.6737Z" fill="#272652"/>
<path fill-rule="evenodd" clip-rule="evenodd" d="M12.2512 16.1454C12.3153 16.2482 12.4436 16.0425 12.5078 15.9397C12.3795 15.9397 12.3153 16.0425 12.2512 16.1454Z" fill="#272652"/>
<path fill-rule="evenodd" clip-rule="evenodd" d="M6.99149 23.6525C7.18391 23.8582 7.24805 23.2411 7.05563 23.1383C7.05563 23.2411 7.11977 23.4468 6.99149 23.6525Z" fill="#272652"/>
<path fill-rule="evenodd" clip-rule="evenodd" d="M7.31224 23.1381C7.63296 23.3438 7.2481 22.5211 7.31224 23.1381V23.1381Z" fill="#272652"/>
<path fill-rule="evenodd" clip-rule="evenodd" d="M11.8022 16.0425C11.8663 15.8368 11.6739 15.8368 11.6098 15.7339C11.5456 16.0425 11.738 15.9396 11.8022 16.0425Z" fill="#272652"/>
<path fill-rule="evenodd" clip-rule="evenodd" d="M11.9946 15.2198C12.3795 15.3227 11.8663 14.8085 11.9946 15.2198V15.2198Z" fill="#272652"/>
<path fill-rule="evenodd" clip-rule="evenodd" d="M12.9568 13.2659C13.3416 13.4716 12.8285 12.8546 12.9568 13.2659V13.2659Z" fill="#272652"/>
<path fill-rule="evenodd" clip-rule="evenodd" d="M7.82533 20.67C7.88948 20.7729 8.01776 20.5672 7.95362 20.4644C7.82533 20.3615 7.88948 20.5672 7.82533 20.67Z" fill="#272652"/>
<path fill-rule="evenodd" clip-rule="evenodd" d="M13.9831 10.6949C14.0472 10.7977 14.1755 10.592 14.1113 10.4892C13.9831 10.4892 14.0472 10.592 13.9831 10.6949Z" fill="#272652"/>
<path fill-rule="evenodd" clip-rule="evenodd" d="M9.94204 16.3509C10.2627 16.5566 9.8779 15.7339 9.94204 16.3509V16.3509Z" fill="#272652"/>
<path fill-rule="evenodd" clip-rule="evenodd" d="M11.3532 13.7799C11.738 13.8828 11.2249 13.2657 11.3532 13.7799V13.7799Z" fill="#272652"/>
<path fill-rule="evenodd" clip-rule="evenodd" d="M3.97678 24.9893C4.29749 24.8865 3.59193 24.8865 3.97678 24.9893V24.9893Z" fill="#272652"/>
<path fill-rule="evenodd" clip-rule="evenodd" d="M10.7118 14.2941C11.0966 14.2941 10.3911 14.1913 10.7118 14.2941V14.2941Z" fill="#272652"/>
<path fill-rule="evenodd" clip-rule="evenodd" d="M3.14297 24.9892C3.27125 25.1948 3.33539 24.6807 3.39954 24.5778C3.14297 24.3721 3.27125 24.8863 3.14297 24.9892Z" fill="#272652"/>
<path fill-rule="evenodd" clip-rule="evenodd" d="M3.33537 24.3724C3.39951 24.4752 3.5278 24.2695 3.46366 24.1667C3.33537 24.1667 3.39951 24.3724 3.33537 24.3724Z" fill="#272652"/>
<path fill-rule="evenodd" clip-rule="evenodd" d="M8.27435 16.6594C8.59507 16.6594 7.8895 16.5566 8.27435 16.6594V16.6594Z" fill="#272652"/>
<path fill-rule="evenodd" clip-rule="evenodd" d="M8.53092 15.734C8.85163 15.6312 8.14606 15.6312 8.53092 15.734V15.734Z" fill="#272652"/>
<path fill-rule="evenodd" clip-rule="evenodd" d="M9.17236 14.7057C9.2365 14.8085 9.36478 14.6028 9.42892 14.5C9.36478 14.3972 9.2365 14.6028 9.17236 14.7057Z" fill="#272652"/>
<path fill-rule="evenodd" clip-rule="evenodd" d="M5.19552 20.2587C5.25966 20.3615 5.38794 20.1558 5.45209 20.053C5.3238 19.9502 5.25966 20.1558 5.19552 20.2587Z" fill="#272652"/>
<path fill-rule="evenodd" clip-rule="evenodd" d="M7.24807 16.9679C7.31221 17.0708 7.4405 16.8651 7.50464 16.7622C7.37635 16.6594 7.31221 16.8651 7.24807 16.9679Z" fill="#272652"/>
<path fill-rule="evenodd" clip-rule="evenodd" d="M4.68236 20.5673C4.74651 20.6701 4.87479 20.4645 4.93893 20.3616C4.87479 20.2588 4.81065 20.4645 4.68236 20.5673Z" fill="#272652"/>
<path fill-rule="evenodd" clip-rule="evenodd" d="M6.73491 17.3793C7.05562 17.585 6.67077 16.7623 6.73491 17.3793V17.3793Z" fill="#272652"/>
<path fill-rule="evenodd" clip-rule="evenodd" d="M9.49307 12.4431C9.55722 12.2374 9.36478 12.2374 9.30064 12.1346C9.2365 12.4431 9.42893 12.3403 9.49307 12.4431Z" fill="#272652"/>
<path fill-rule="evenodd" clip-rule="evenodd" d="M2.24496 23.5496C2.50153 23.7552 2.11667 22.9325 2.24496 23.5496V23.5496Z" fill="#272652"/>
<path fill-rule="evenodd" clip-rule="evenodd" d="M9.6855 12.0318C9.74964 11.8261 9.74964 11.7233 9.62136 11.5176C9.55722 11.7233 9.55722 11.8261 9.6855 12.0318Z" fill="#272652"/>
<path fill-rule="evenodd" clip-rule="evenodd" d="M8.6592 13.0602C8.91578 13.2659 8.59506 12.4432 8.6592 13.0602V13.0602Z" fill="#272652"/>
<path fill-rule="evenodd" clip-rule="evenodd" d="M5.19548 17.8935C5.45206 18.0991 5.13134 17.2764 5.19548 17.8935V17.8935Z" fill="#272652"/>
<path fill-rule="evenodd" clip-rule="evenodd" d="M3.65609 19.9503C3.78437 20.0532 3.78437 19.7447 3.84851 19.6418C3.65608 19.6418 3.65609 19.8475 3.65609 19.9503Z" fill="#272652"/>
<path fill-rule="evenodd" clip-rule="evenodd" d="M7.24807 14.0886C7.63293 14.1914 7.18393 13.6772 7.24807 14.0886V14.0886Z" fill="#272652"/>
<path fill-rule="evenodd" clip-rule="evenodd" d="M7.8895 13.3687C7.95364 13.163 7.76121 13.163 7.69707 13.0602C7.63292 13.2659 7.76121 13.2659 7.8895 13.3687Z" fill="#272652"/>
<path fill-rule="evenodd" clip-rule="evenodd" d="M10.7118 8.43252C10.7759 8.22685 10.7759 8.12401 10.6476 7.91833C10.5835 8.12401 10.5835 8.32968 10.7118 8.43252Z" fill="#272652"/>
<path fill-rule="evenodd" clip-rule="evenodd" d="M2.37323 21.39C2.43737 21.1843 2.43737 20.9786 2.24494 20.7729C2.1808 21.0815 2.24494 21.1843 2.37323 21.39Z" fill="#272652"/>
<path fill-rule="evenodd" clip-rule="evenodd" d="M5.58038 16.1452C5.58038 16.1452 5.64452 16.248 5.58038 16.1452C5.96523 15.9395 4.93895 16.1452 5.58038 16.1452Z" fill="#272652"/>
<path fill-rule="evenodd" clip-rule="evenodd" d="M9.30065 10.2836C9.36479 10.3864 9.49307 10.1807 9.42893 10.0779C9.36479 9.97506 9.42893 10.1807 9.30065 10.2836Z" fill="#272652"/>
<path fill-rule="evenodd" clip-rule="evenodd" d="M1.9884 21.8014C2.11668 21.5957 2.18083 21.4928 2.05254 21.2872C1.9884 21.39 1.92426 21.4928 1.86011 21.5957C1.92426 21.6985 1.92426 21.6985 1.9884 21.8014Z" fill="#272652"/>
<path fill-rule="evenodd" clip-rule="evenodd" d="M10.2628 8.63818C10.3269 8.74102 10.4552 8.53534 10.5193 8.43251C10.391 8.32967 10.3269 8.53534 10.2628 8.63818Z" fill="#272652"/>
<path fill-rule="evenodd" clip-rule="evenodd" d="M8.9799 10.0781C9.04405 10.1809 9.17233 9.97523 9.10819 9.87239C8.9799 9.76955 9.04405 9.97522 8.9799 10.0781Z" fill="#272652"/>
<path fill-rule="evenodd" clip-rule="evenodd" d="M4.93895 15.7339C5.25966 15.9396 4.87481 15.1169 4.93895 15.7339V15.7339Z" fill="#272652"/>
<path fill-rule="evenodd" clip-rule="evenodd" d="M4.74651 15.0142C5.00309 15.2199 4.68237 14.3972 4.74651 15.0142V15.0142Z" fill="#272652"/>
<path fill-rule="evenodd" clip-rule="evenodd" d="M3.01465 16.7623C3.14293 16.8651 3.20707 16.5566 3.33536 16.4538C3.27122 16.3509 3.20707 16.4538 3.14293 16.5566C3.07879 16.4538 3.07879 16.4538 3.14293 16.3509C2.88636 16.1452 3.14293 16.6594 3.01465 16.7623Z" fill="#272652"/>
<path fill-rule="evenodd" clip-rule="evenodd" d="M5.19551 11.8262C5.25965 11.929 5.38794 11.7233 5.3238 11.6205C5.19551 11.5177 5.25965 11.7233 5.19551 11.8262Z" fill="#272652"/>
<path fill-rule="evenodd" clip-rule="evenodd" d="M2.24495 11.7233C2.50154 11.929 2.1808 11.1063 2.24495 11.7233V11.7233Z" fill="#272652"/>
<path fill-rule="evenodd" clip-rule="evenodd" d="M14.4962 33.7304C14.6886 33.936 14.4962 33.4219 14.6245 33.319C14.3679 33.1134 14.6245 33.6275 14.4962 33.7304Z" fill="#272652"/>
<path fill-rule="evenodd" clip-rule="evenodd" d="M10.9042 36.6097C10.9683 36.1984 10.5193 36.5069 10.5193 35.8899C10.4552 36.0956 10.5193 36.1984 10.4552 36.4041C10.5835 36.3012 10.7759 36.5069 10.9042 36.6097Z" fill="#272652"/>
<path fill-rule="evenodd" clip-rule="evenodd" d="M13.4058 31.6736C13.4058 32.085 13.4058 31.2623 13.4058 31.0566C13.0851 30.9538 13.4058 31.5708 13.4058 31.6736Z" fill="#272652"/>
<path fill-rule="evenodd" clip-rule="evenodd" d="M6.7991 39.1807C7.05566 38.9751 6.67082 38.1524 6.7991 39.1807V39.1807Z" fill="#272652"/>
<path fill-rule="evenodd" clip-rule="evenodd" d="M14.7528 25.195C14.8169 24.6808 14.4321 25.0921 14.3038 24.8864C14.2396 25.2978 14.6245 24.8864 14.7528 25.195Z" fill="#272652"/>
<path fill-rule="evenodd" clip-rule="evenodd" d="M4.74651 38.9751C4.74651 38.9751 5.00308 38.9751 5.00308 38.7695C5.00308 38.6666 4.36166 38.9751 4.74651 38.9751Z" fill="#272652"/>
<path fill-rule="evenodd" clip-rule="evenodd" d="M7.95363 33.9362C8.21021 34.2447 7.95363 33.422 7.82535 33.7305C7.63292 33.6277 7.88949 33.7305 7.95363 33.9362Z" fill="#272652"/>
<path fill-rule="evenodd" clip-rule="evenodd" d="M3.07881 39.1808C3.14295 39.2836 3.14295 39.2836 3.07881 39.3864C3.39952 39.4893 3.14295 39.0779 2.95053 38.9751C2.88638 39.0779 2.88638 39.0779 2.82224 39.1808C2.88638 39.2836 2.88638 39.2836 2.82224 39.3864C2.95053 39.3864 3.01467 39.2836 3.07881 39.1808Z" fill="#272652"/>
<path fill-rule="evenodd" clip-rule="evenodd" d="M14.2396 16.3509C14.1755 16.7623 14.4321 16.2481 14.1755 16.0424C13.983 15.9396 14.1113 16.1452 14.2396 16.3509Z" fill="#272652"/>
<path fill-rule="evenodd" clip-rule="evenodd" d="M11.2249 19.0246C11.3532 18.7161 11.0325 19.0246 10.9683 18.8189C10.8401 19.2303 11.2249 18.9218 11.2249 19.0246Z" fill="#272652"/>
<path fill-rule="evenodd" clip-rule="evenodd" d="M13.9189 12.9574C14.1755 13.2659 13.9189 12.4432 13.7906 12.7517C13.5982 12.6489 13.8548 12.7517 13.9189 12.9574Z" fill="#272652"/>
<path fill-rule="evenodd" clip-rule="evenodd" d="M13.7265 12.4432C13.8547 12.6488 13.7906 12.0318 13.9189 11.929C13.7265 11.8262 13.8547 12.3403 13.7265 12.4432Z" fill="#272652"/>
<path fill-rule="evenodd" clip-rule="evenodd" d="M10.1986 14.1915C10.2628 13.9858 10.0704 14.0886 10.0062 13.883C10.0062 13.9858 9.94207 14.1915 9.87793 14.0886C9.74964 14.7057 10.1345 14.0886 10.1986 14.1915Z" fill="#272652"/>
<path fill-rule="evenodd" clip-rule="evenodd" d="M6.86319 13.2658C6.99148 13.163 6.60663 12.8545 6.54249 13.163C6.67077 13.3686 6.73491 13.0601 6.86319 13.2658Z" fill="#272652"/>
<path fill-rule="evenodd" clip-rule="evenodd" d="M2.50153 19.8475C2.69396 19.4361 2.24495 19.6418 2.37324 19.2304C2.24495 19.2304 2.24495 20.156 2.50153 19.8475Z" fill="#272652"/>
<path fill-rule="evenodd" clip-rule="evenodd" d="M1.34698 38.2551C1.34698 38.3579 1.41112 38.3579 1.41112 38.5636C1.60355 38.4608 1.47526 37.9466 1.34698 38.2551Z" fill="#272652"/>
<path fill-rule="evenodd" clip-rule="evenodd" d="M2.05254 41.6488C1.73182 41.9574 2.30911 41.8545 2.05254 41.6488V41.6488Z" fill="#272652"/>
<path fill-rule="evenodd" clip-rule="evenodd" d="M2.69396 47.4077H2.62981C2.50153 48.0248 3.14295 46.7907 2.69396 47.4077Z" fill="#272652"/>
<path fill-rule="evenodd" clip-rule="evenodd" d="M2.82223 48.0247C2.69394 48.0247 2.69394 48.3333 2.82223 48.3333C2.95051 48.2304 2.82223 48.1276 2.82223 48.0247Z" fill="#272652"/>
<path fill-rule="evenodd" clip-rule="evenodd" d="M3.59198 42.4715C3.33541 42.8829 3.84855 42.163 3.59198 42.4715V42.4715Z" fill="#272652"/>
<path fill-rule="evenodd" clip-rule="evenodd" d="M3.33538 48.4361C2.95052 48.7446 3.59195 48.6417 3.33538 48.4361V48.4361Z" fill="#272652"/>
<path fill-rule="evenodd" clip-rule="evenodd" d="M3.97681 37.0212C3.65609 37.2269 4.29753 37.4326 3.97681 37.0212V37.0212Z" fill="#272652"/>
<path fill-rule="evenodd" clip-rule="evenodd" d="M3.84852 43.4999C3.65609 43.9113 4.16923 43.1914 3.84852 43.4999V43.4999Z" fill="#272652"/>
<path fill-rule="evenodd" clip-rule="evenodd" d="M4.48995 34.2445C4.36166 34.2445 4.36166 34.553 4.48995 34.553C4.61824 34.4502 4.48995 34.4502 4.48995 34.2445Z" fill="#272652"/>
<path fill-rule="evenodd" clip-rule="evenodd" d="M4.36164 38.1523C4.23336 38.1523 4.23336 38.4609 4.36164 38.4609C4.42578 38.4609 4.2975 38.358 4.36164 38.1523Z" fill="#272652"/>
<path fill-rule="evenodd" clip-rule="evenodd" d="M4.93895 29.9255C4.93895 30.0284 4.93895 30.1312 4.93895 30.234C5.00309 30.234 5.06724 30.234 5.13138 30.234C5.13138 30.1312 5.13138 30.0284 5.13138 29.9255C5.06724 29.9255 5.00309 29.9255 4.93895 29.9255Z" fill="#272652"/>
<path fill-rule="evenodd" clip-rule="evenodd" d="M4.16924 50.0815C4.16924 50.2872 4.29753 50.39 4.42581 50.39C4.36167 50.1843 4.29753 50.0815 4.16924 50.0815Z" fill="#272652"/>
<path fill-rule="evenodd" clip-rule="evenodd" d="M4.81067 44.631C4.61824 45.0424 5.13139 44.3225 4.81067 44.631V44.631Z" fill="#272652"/>
<path fill-rule="evenodd" clip-rule="evenodd" d="M5.06723 47.0991C4.93895 47.0991 5.00309 47.3048 4.93895 47.5105C5.06723 47.5105 5.06723 47.3048 5.06723 47.0991Z" fill="#272652"/>
<path fill-rule="evenodd" clip-rule="evenodd" d="M5.90109 28.5885C5.64451 28.6914 6.22181 28.897 5.90109 28.5885V28.5885Z" fill="#272652"/>
<path fill-rule="evenodd" clip-rule="evenodd" d="M6.54253 36.404C6.22181 36.7125 6.7991 36.6097 6.54253 36.404V36.404Z" fill="#272652"/>
<path fill-rule="evenodd" clip-rule="evenodd" d="M7.31221 25.2978C7.18392 25.2978 7.18392 25.6063 7.31221 25.6063C7.4405 25.5035 7.31221 25.4007 7.31221 25.2978Z" fill="#272652"/>
<path fill-rule="evenodd" clip-rule="evenodd" d="M6.3501 52.5494C6.09354 52.7551 6.67081 52.9608 6.3501 52.5494V52.5494Z" fill="#272652"/>
<path fill-rule="evenodd" clip-rule="evenodd" d="M6.67081 48.0246C6.41424 48.4359 6.92738 47.716 6.67081 48.0246V48.0246Z" fill="#272652"/>
<path fill-rule="evenodd" clip-rule="evenodd" d="M7.18394 36.8155C6.99152 37.3297 7.50464 36.6098 7.18394 36.8155V36.8155Z" fill="#272652"/>
<path fill-rule="evenodd" clip-rule="evenodd" d="M7.82534 26.5318C7.69705 26.6346 7.82534 26.7374 7.82534 26.9431C7.95362 26.8403 7.82534 26.7374 7.82534 26.5318Z" fill="#272652"/>
<path fill-rule="evenodd" clip-rule="evenodd" d="M6.7991 51.0069C6.7991 51.2126 6.92738 51.3155 7.05566 51.3155C6.99152 51.1098 6.92738 51.0069 6.7991 51.0069Z" fill="#272652"/>
<path fill-rule="evenodd" clip-rule="evenodd" d="M6.86323 51.7269C6.73495 51.7269 6.73495 52.0354 6.86323 52.0354C6.92737 51.9325 6.79909 51.8297 6.86323 51.7269Z" fill="#272652"/>
<path fill-rule="evenodd" clip-rule="evenodd" d="M8.08193 27.1488C7.95364 27.1488 7.95364 27.4573 8.08193 27.4573C8.21022 27.3544 8.08193 27.2516 8.08193 27.1488Z" fill="#272652"/>
<path fill-rule="evenodd" clip-rule="evenodd" d="M9.2365 35.1702C8.85164 35.4787 9.49307 35.3758 9.2365 35.1702V35.1702Z" fill="#272652"/>
<path fill-rule="evenodd" clip-rule="evenodd" d="M9.17236 43.1914C8.9158 43.6027 9.42893 42.8829 9.17236 43.1914V43.1914Z" fill="#272652"/>
<path fill-rule="evenodd" clip-rule="evenodd" d="M11.0325 26.3262C11.0325 26.5319 11.1608 26.6347 11.2891 26.6347C11.2249 26.5319 11.1608 26.3262 11.0325 26.3262Z" fill="#272652"/>
<path fill-rule="evenodd" clip-rule="evenodd" d="M10.4552 41.7516C10.2628 42.1629 10.7759 41.4431 10.4552 41.7516V41.7516Z" fill="#272652"/>
<path fill-rule="evenodd" clip-rule="evenodd" d="M11.0966 28.3828C11.4815 28.0743 10.9042 27.9715 11.0966 28.3828V28.3828Z" fill="#272652"/>
<path fill-rule="evenodd" clip-rule="evenodd" d="M10.9684 32.1878C10.8401 32.1878 10.8401 32.4963 10.9684 32.4963C11.0967 32.3935 10.9684 32.3935 10.9684 32.1878Z" fill="#272652"/>
<path fill-rule="evenodd" clip-rule="evenodd" d="M10.1345 54.195C10.0062 54.195 10.0703 54.4007 10.0062 54.6063C10.1345 54.6063 10.1345 54.4007 10.1345 54.195Z" fill="#272652"/>
<path fill-rule="evenodd" clip-rule="evenodd" d="M11.4173 25.6062C11.0966 25.9147 11.6739 25.8118 11.4173 25.6062V25.6062Z" fill="#272652"/>
<path fill-rule="evenodd" clip-rule="evenodd" d="M10.9042 43.0885C10.7118 43.0885 10.9042 43.6027 11.0325 43.4998C11.0325 43.397 10.9684 43.2942 10.9042 43.0885Z" fill="#272652"/>
<path fill-rule="evenodd" clip-rule="evenodd" d="M10.9042 43.8083C10.6476 44.014 11.2249 44.2197 10.9042 43.8083V43.8083Z" fill="#272652"/>
<path fill-rule="evenodd" clip-rule="evenodd" d="M10.4552 53.8863C10.5194 54.0919 10.5835 53.8863 10.7118 53.8863C10.7118 53.5778 10.5835 53.8863 10.4552 53.8863Z" fill="#272652"/>
<path fill-rule="evenodd" clip-rule="evenodd" d="M10.7118 54.7091C10.3911 55.0176 10.9684 54.9148 10.7118 54.7091V54.7091Z" fill="#272652"/>
<path fill-rule="evenodd" clip-rule="evenodd" d="M11.9946 30.0283C11.6739 30.3368 12.4436 30.3368 11.9946 30.0283V30.0283Z" fill="#272652"/>
<path fill-rule="evenodd" clip-rule="evenodd" d="M11.5456 46.1736C11.4174 46.1736 11.4174 46.4821 11.5456 46.4821C11.6739 46.3793 11.5456 46.3793 11.5456 46.1736Z" fill="#272652"/>
<path fill-rule="evenodd" clip-rule="evenodd" d="M11.7381 51.624C11.4815 51.8297 12.0588 52.0354 11.7381 51.624V51.624Z" fill="#272652"/>
<path fill-rule="evenodd" clip-rule="evenodd" d="M11.8022 55.1204C11.4815 55.4289 12.0588 55.3261 11.8022 55.1204V55.1204Z" fill="#272652"/>
<path fill-rule="evenodd" clip-rule="evenodd" d="M13.1492 24.6807C13.4699 24.3722 12.9568 23.9609 13.1492 24.6807V24.6807Z" fill="#272652"/>
<path fill-rule="evenodd" clip-rule="evenodd" d="M12.9568 27.1489C13.2133 27.6631 13.2775 26.7375 12.9568 27.1489V27.1489Z" fill="#272652"/>
<path fill-rule="evenodd" clip-rule="evenodd" d="M12.6361 38.7693C12.4436 39.2835 12.9568 38.4608 12.6361 38.7693V38.7693Z" fill="#272652"/>
<path fill-rule="evenodd" clip-rule="evenodd" d="M11.9946 53.9893C11.8022 54.4007 12.3153 53.6808 11.9946 53.9893V53.9893Z" fill="#272652"/>
<path fill-rule="evenodd" clip-rule="evenodd" d="M13.2775 37.9466C13.0851 37.9466 13.2133 38.358 13.2775 38.4608C13.5341 38.358 13.2133 38.1523 13.2775 37.9466Z" fill="#272652"/>
<path fill-rule="evenodd" clip-rule="evenodd" d="M13.3416 38.5637C13.2133 38.5637 13.2133 38.8722 13.3416 38.8722C13.4699 38.8722 13.3416 38.7694 13.3416 38.5637Z" fill="#272652"/>
<path fill-rule="evenodd" clip-rule="evenodd" d="M12.8926 49.5672C12.6361 50.0814 13.1492 49.2587 12.8926 49.5672V49.5672Z" fill="#272652"/>
<path fill-rule="evenodd" clip-rule="evenodd" d="M13.0851 50.5956C12.8926 51.0069 13.4058 50.287 13.0851 50.5956V50.5956Z" fill="#272652"/>
<path fill-rule="evenodd" clip-rule="evenodd" d="M13.0209 52.0353C12.8926 52.0353 12.9568 52.241 12.8926 52.4467C13.0209 52.4467 13.0209 52.241 13.0209 52.0353Z" fill="#272652"/>
<path fill-rule="evenodd" clip-rule="evenodd" d="M13.7265 43.7056C13.5982 43.7056 13.6623 43.9112 13.5982 44.1169C13.7265 44.1169 13.7265 43.8084 13.7265 43.7056Z" fill="#272652"/>
<path fill-rule="evenodd" clip-rule="evenodd" d="M13.5341 48.3332C13.4058 48.3332 13.4699 48.5389 13.4058 48.7446C13.5341 48.7446 13.5341 48.4361 13.5341 48.3332Z" fill="#272652"/>
<path fill-rule="evenodd" clip-rule="evenodd" d="M13.9189 42.8829C13.7906 42.8829 13.8548 43.0886 13.7906 43.2942C13.9189 43.2942 13.9189 43.0886 13.9189 42.8829Z" fill="#272652"/>
<path fill-rule="evenodd" clip-rule="evenodd" d="M13.7265 47.5105C13.4699 47.7162 14.0472 47.9219 13.7265 47.5105V47.5105Z" fill="#272652"/>
<path fill-rule="evenodd" clip-rule="evenodd" d="M13.7265 54.0921C13.7906 54.2977 13.8548 54.0921 13.9831 54.0921C13.9189 53.8864 13.7906 54.0921 13.7265 54.0921Z" fill="#272652"/>
<path fill-rule="evenodd" clip-rule="evenodd" d="M14.5603 38.0496C14.2396 38.2553 14.8811 38.4609 14.5603 38.0496V38.0496Z" fill="#272652"/>
<path fill-rule="evenodd" clip-rule="evenodd" d="M13.7906 54.6062C13.7906 54.8119 13.9189 54.9147 14.0472 54.9147C13.983 54.709 13.9189 54.6062 13.7906 54.6062Z" fill="#272652"/>
<path fill-rule="evenodd" clip-rule="evenodd" d="M14.9452 30.3366C14.9452 30.5423 15.0735 30.6452 15.2659 30.6452C15.2018 30.4395 15.1376 30.3366 14.9452 30.3366Z" fill="#272652"/>
<path fill-rule="evenodd" clip-rule="evenodd" d="M14.1113 52.7552C13.7906 52.8581 14.432 53.0638 14.1113 52.7552V52.7552Z" fill="#272652"/>
<path fill-rule="evenodd" clip-rule="evenodd" d="M14.6886 45.4538C14.3679 45.5566 15.0093 45.7623 14.6886 45.4538V45.4538Z" fill="#272652"/>
<path fill-rule="evenodd" clip-rule="evenodd" d="M15.5866 25.1948C15.4583 25.1948 15.5225 25.4005 15.4583 25.6061C15.5866 25.6061 15.5866 25.4005 15.5866 25.1948Z" fill="#272652"/>
<path fill-rule="evenodd" clip-rule="evenodd" d="M14.9452 42.163C14.8169 42.2658 14.9452 42.3686 14.9452 42.5743C15.1376 42.4715 14.9452 42.3686 14.9452 42.163Z" fill="#272652"/>
<path fill-rule="evenodd" clip-rule="evenodd" d="M14.6886 50.4928C14.3679 50.8013 15.0093 50.6985 14.6886 50.4928V50.4928Z" fill="#272652"/>
<path fill-rule="evenodd" clip-rule="evenodd" d="M14.5603 51.7268C14.6245 51.9324 14.6886 51.7268 14.8169 51.7268C14.7528 51.5211 14.6886 51.7268 14.5603 51.7268Z" fill="#272652"/>
<path fill-rule="evenodd" clip-rule="evenodd" d="M15.33 39.7978C15.33 40.0035 15.4583 40.1063 15.6508 40.1063C15.5866 39.9006 15.4583 39.7978 15.33 39.7978Z" fill="#272652"/>
<path fill-rule="evenodd" clip-rule="evenodd" d="M15.0735 47.0991H15.0093C14.9452 47.7161 15.5866 46.4821 15.0735 47.0991Z" fill="#272652"/>
<path fill-rule="evenodd" clip-rule="evenodd" d="M14.7528 55.5318C14.6245 55.5318 14.6245 55.8403 14.7528 55.8403C14.8811 55.7375 14.7528 55.6346 14.7528 55.5318Z" fill="#272652"/>
<path fill-rule="evenodd" clip-rule="evenodd" d="M15.4583 39.078C15.3942 39.3865 15.4583 39.4893 15.5866 39.4893C15.5866 39.3865 15.5866 39.1808 15.5866 39.078C15.5225 39.078 15.5225 39.078 15.4583 39.078Z" fill="#272652"/>
<path fill-rule="evenodd" clip-rule="evenodd" d="M15.0735 55.3261C14.9452 55.3261 14.9452 55.6346 15.0735 55.6346C15.2018 55.5318 15.0735 55.4289 15.0735 55.3261Z" fill="#272652"/>
<path fill-rule="evenodd" clip-rule="evenodd" d="M15.7149 46.7907C15.4583 46.8935 16.0356 47.0992 15.7149 46.7907V46.7907Z" fill="#272652"/>
<path fill-rule="evenodd" clip-rule="evenodd" d="M16.228 47.0991C15.9073 47.3048 16.5487 47.5105 16.228 47.0991V47.0991Z" fill="#272652"/>
<path fill-rule="evenodd" clip-rule="evenodd" d="M16.9977 32.2906C16.677 32.4963 17.3185 32.702 16.9977 32.2906V32.2906Z" fill="#272652"/>
<path fill-rule="evenodd" clip-rule="evenodd" d="M16.9977 37.9467C17.3185 37.6382 16.8053 37.2269 16.9977 37.9467V37.9467Z" fill="#272652"/>
<path fill-rule="evenodd" clip-rule="evenodd" d="M16.7412 44.014C16.6129 44.014 16.677 44.3225 16.6129 44.5282C16.677 44.5282 16.677 44.3225 16.677 44.2197C16.7412 44.2197 16.7412 44.3225 16.7412 44.3225C17.126 44.3225 16.7412 44.1168 16.7412 44.014Z" fill="#272652"/>
<path fill-rule="evenodd" clip-rule="evenodd" d="M17.3185 32.1877C17.126 32.7019 17.6392 31.8792 17.3185 32.1877V32.1877Z" fill="#272652"/>
<path fill-rule="evenodd" clip-rule="evenodd" d="M17.2543 33.7304C17.575 33.4219 17.0619 33.0106 17.2543 33.7304V33.7304Z" fill="#272652"/>
<path fill-rule="evenodd" clip-rule="evenodd" d="M17.5109 31.8793C17.7675 32.3935 17.8316 31.468 17.5109 31.8793V31.8793Z" fill="#272652"/>
<path fill-rule="evenodd" clip-rule="evenodd" d="M17.4467 35.3757C17.3185 35.3757 17.3185 35.6842 17.4467 35.6842C17.575 35.5813 17.4467 35.4785 17.4467 35.3757Z" fill="#272652"/>
<path fill-rule="evenodd" clip-rule="evenodd" d="M17.1902 49.9785C17.0619 49.9785 17.0619 50.2871 17.1902 50.2871C17.3185 50.1842 17.1902 50.0814 17.1902 49.9785Z" fill="#272652"/>
<path fill-rule="evenodd" clip-rule="evenodd" d="M17.9599 35.5815C18.024 35.9929 18.0881 35.7872 18.2806 35.7872C18.2806 35.5815 18.0881 35.5815 17.9599 35.5815Z" fill="#272652"/>
<path fill-rule="evenodd" clip-rule="evenodd" d="M18.7937 34.1418C18.473 34.4503 19.0503 34.3475 18.7937 34.1418V34.1418Z" fill="#272652"/>
<path fill-rule="evenodd" clip-rule="evenodd" d="M18.7937 34.5532C18.6654 34.5532 18.7296 34.7588 18.6654 34.9645C18.7937 34.9645 18.7296 34.7588 18.7937 34.5532Z" fill="#272652"/>
<path fill-rule="evenodd" clip-rule="evenodd" d="M19.4352 46.8934C19.1786 47.0991 19.7559 47.3048 19.4352 46.8934V46.8934Z" fill="#272652"/>
<path fill-rule="evenodd" clip-rule="evenodd" d="M20.6539 33.0106C20.3332 33.1134 20.9746 33.3191 20.6539 33.0106V33.0106Z" fill="#272652"/>
<path fill-rule="evenodd" clip-rule="evenodd" d="M1.15455 43.6026C0.897987 43.6026 1.28283 43.8083 1.21869 44.014C1.47526 43.9111 1.09041 43.7055 1.15455 43.6026Z" fill="#272652"/>
<path fill-rule="evenodd" clip-rule="evenodd" d="M2.62981 37.6382C2.82224 38.0495 3.01466 37.3297 3.20709 37.741C3.20709 37.5353 3.07881 37.5353 3.07881 37.3297C3.01467 37.4325 2.82224 37.5353 2.62981 37.6382Z" fill="#272652"/>
<path fill-rule="evenodd" clip-rule="evenodd" d="M2.82225 43.9112C2.62982 43.6027 2.95053 44.2197 3.07882 44.3225C3.33539 44.1168 2.88639 44.014 2.82225 43.9112Z" fill="#272652"/>
<path fill-rule="evenodd" clip-rule="evenodd" d="M4.61823 31.2623C4.55408 31.6736 5.1314 31.8793 4.61823 31.2623V31.2623Z" fill="#272652"/>
<path fill-rule="evenodd" clip-rule="evenodd" d="M4.48996 50.1842C4.61825 50.6984 4.74653 49.9785 4.93896 49.9785C4.87482 49.5672 4.74653 50.287 4.48996 50.1842Z" fill="#272652"/>
<path fill-rule="evenodd" clip-rule="evenodd" d="M6.22179 29.2054C6.22179 29.2054 6.02936 29.514 6.09351 29.6168C6.15765 29.7196 6.54251 28.7941 6.22179 29.2054Z" fill="#272652"/>
<path fill-rule="evenodd" clip-rule="evenodd" d="M5.96525 36.404C5.64454 36.404 6.22182 36.8153 6.15768 36.404C6.28596 36.3011 6.09353 36.5068 5.96525 36.404Z" fill="#272652"/>
<path fill-rule="evenodd" clip-rule="evenodd" d="M7.44051 27.3544C7.37637 27.3544 7.37637 27.2516 7.37637 27.2516C7.1198 27.5601 7.50465 27.5601 7.63293 27.4572C7.63293 27.3544 7.63293 27.2516 7.63293 27.1487C7.56879 27.1487 7.56879 27.0459 7.56879 27.0459C7.44051 26.943 7.44051 27.1487 7.44051 27.3544Z" fill="#272652"/>
<path fill-rule="evenodd" clip-rule="evenodd" d="M8.59507 56.2517C8.46679 55.8403 8.53093 56.5602 8.7875 56.3545C8.91578 56.3545 8.72336 56.2517 8.59507 56.2517Z" fill="#272652"/>
<path fill-rule="evenodd" clip-rule="evenodd" d="M9.68548 51.0071C9.68548 51.4184 9.81376 50.8014 9.94205 50.9042C9.8779 50.4929 9.74962 51.1099 9.68548 51.0071Z" fill="#272652"/>
<path fill-rule="evenodd" clip-rule="evenodd" d="M12.4437 53.4751C12.4437 53.6808 12.5719 53.4751 12.7002 53.4751C12.6361 53.3723 12.6361 53.2694 12.7002 53.1666C12.5719 52.7552 12.5719 53.5779 12.4437 53.4751Z" fill="#272652"/>
<path fill-rule="evenodd" clip-rule="evenodd" d="M15.3942 50.6984C15.33 50.9041 15.7149 50.6984 15.6507 50.4928C15.4583 50.3899 15.5225 50.6984 15.3942 50.6984Z" fill="#272652"/>
<path fill-rule="evenodd" clip-rule="evenodd" d="M15.8432 41.0318C15.8432 41.5459 16.0998 40.9289 16.1639 41.3403C16.3563 41.3403 15.9073 40.5176 15.8432 41.0318Z" fill="#272652"/>
<path fill-rule="evenodd" clip-rule="evenodd" d="M17.1902 36.1983C17.126 36.5068 17.5109 36.5068 17.2543 36.3012C17.3826 35.9927 17.3826 35.9927 17.1902 36.1983Z" fill="#272652"/>
<path d="M17.5323 0C25.5412 0 32 10.2837 32 23.0355V57.8972H3V23.0355C3 10.2837 9.52339 0 17.5323 0Z" fill="#654D8C"/>
<path fill-rule="evenodd" clip-rule="evenodd" d="M21.5368 29.514C21.6014 29.4112 21.4722 29.2055 21.5368 29.1027C21.343 29.2055 21.1492 29.2055 21.0201 29.4112C21.1492 29.7197 21.343 29.2055 21.5368 29.514Z" fill="#4A326F"/>
<path fill-rule="evenodd" clip-rule="evenodd" d="M15.2717 37.4325C15.3363 37.3296 15.2717 37.2268 15.3363 37.124C15.1426 37.0211 15.0134 37.5353 15.2717 37.4325Z" fill="#4A326F"/>
<path fill-rule="evenodd" clip-rule="evenodd" d="M16.1114 34.1416C16.4989 34.3473 15.9822 33.7303 16.1114 34.1416V34.1416Z" fill="#4A326F"/>
<path fill-rule="evenodd" clip-rule="evenodd" d="M18.049 29.2056C18.1136 29.2056 18.1136 29.3085 18.049 29.2056C18.5011 28.8971 17.4677 29.1028 18.049 29.2056Z" fill="#4A326F"/>
<path fill-rule="evenodd" clip-rule="evenodd" d="M18.1782 28.6914C18.2428 28.7942 18.372 28.5886 18.3074 28.4857C18.1782 28.3829 18.2428 28.5886 18.1782 28.6914Z" fill="#4A326F"/>
<path fill-rule="evenodd" clip-rule="evenodd" d="M15.3363 31.9821C15.6593 31.8792 15.0134 31.8792 15.3363 31.9821V31.9821Z" fill="#4A326F"/>
<path fill-rule="evenodd" clip-rule="evenodd" d="M18.049 27.7658C18.4366 27.8686 17.9199 27.3545 18.049 27.7658V27.7658Z" fill="#4A326F"/>
<path fill-rule="evenodd" clip-rule="evenodd" d="M12.7528 35.5815C13.0758 35.7872 12.6882 34.9645 12.7528 35.5815V35.5815Z" fill="#4A326F"/>
<path fill-rule="evenodd" clip-rule="evenodd" d="M15.5301 30.9537C15.853 30.8508 15.2072 30.8508 15.5301 30.9537V30.9537Z" fill="#4A326F"/>
<path fill-rule="evenodd" clip-rule="evenodd" d="M11.2027 37.124C11.2673 37.2268 11.3965 37.0212 11.3319 36.9183C11.2027 36.8155 11.2673 37.0211 11.2027 37.124Z" fill="#4A326F"/>
<path fill-rule="evenodd" clip-rule="evenodd" d="M12.9466 34.3475C13.0112 34.4503 13.1403 34.2447 13.0758 34.1418C12.9466 34.039 13.0112 34.2447 12.9466 34.3475Z" fill="#4A326F"/>
<path fill-rule="evenodd" clip-rule="evenodd" d="M9.07129 39.9006C9.13588 39.7977 9.13588 39.7977 9.20047 39.6949C9.13588 39.5921 9.13588 39.5921 9.07129 39.4892C9.0067 39.5921 9.0067 39.5921 8.94212 39.6949C9.0067 39.6949 9.0067 39.7977 9.07129 39.9006Z" fill="#4A326F"/>
<path fill-rule="evenodd" clip-rule="evenodd" d="M18.049 25.7093C18.1136 25.5036 18.1136 25.4007 17.9844 25.1951C17.9199 25.2979 17.9199 25.5036 18.049 25.7093Z" fill="#4A326F"/>
<path fill-rule="evenodd" clip-rule="evenodd" d="M15.2717 29C15.6593 28.8971 14.9488 28.8971 15.2717 29V29Z" fill="#4A326F"/>
<path fill-rule="evenodd" clip-rule="evenodd" d="M16.176 26.8402C16.2406 26.943 16.3697 26.7374 16.4343 26.6345C16.3051 26.6345 16.2406 26.7374 16.176 26.8402Z" fill="#4A326F"/>
<path fill-rule="evenodd" clip-rule="evenodd" d="M7.71494 39.7978C8.03788 40.0035 7.65035 39.1808 7.71494 39.7978V39.7978Z" fill="#4A326F"/>
<path fill-rule="evenodd" clip-rule="evenodd" d="M10.5568 33.3191C10.9443 33.5248 10.4276 32.9078 10.5568 33.3191V33.3191Z" fill="#4A326F"/>
<path fill-rule="evenodd" clip-rule="evenodd" d="M5.32521 40.7233C5.38979 40.8261 5.51897 40.6204 5.45438 40.5176C5.32521 40.5176 5.38979 40.6204 5.32521 40.7233Z" fill="#4A326F"/>
<path fill-rule="evenodd" clip-rule="evenodd" d="M17.4677 21.3899C17.7261 21.5956 17.4031 20.7729 17.4677 21.3899V21.3899Z" fill="#4A326F"/>
<path fill-rule="evenodd" clip-rule="evenodd" d="M15.3363 24.5779C15.6593 24.4751 14.9488 24.4751 15.3363 24.5779V24.5779Z" fill="#4A326F"/>
<path fill-rule="evenodd" clip-rule="evenodd" d="M10.2339 32.2907C10.6214 32.1879 9.91095 32.1879 10.2339 32.2907V32.2907Z" fill="#4A326F"/>
<path fill-rule="evenodd" clip-rule="evenodd" d="M5.51897 39.2836C5.64815 39.3865 5.64815 39.0779 5.71274 38.9751C5.51897 38.9751 5.58356 39.1808 5.51897 39.2836Z" fill="#4A326F"/>
<path fill-rule="evenodd" clip-rule="evenodd" d="M16.4989 22.2127C16.5635 22.0071 16.5635 21.9042 16.4343 21.6985C16.3698 21.8014 16.3698 22.0071 16.4989 22.2127Z" fill="#4A326F"/>
<path fill-rule="evenodd" clip-rule="evenodd" d="M16.7573 21.5956C16.8219 21.6985 16.951 21.4928 16.8864 21.39C16.7573 21.2871 16.8219 21.4928 16.7573 21.5956Z" fill="#4A326F"/>
<path fill-rule="evenodd" clip-rule="evenodd" d="M5.51896 38.5638C5.58355 38.6666 5.71273 38.4609 5.64814 38.3581C5.51896 38.2552 5.58355 38.4609 5.51896 38.5638Z" fill="#4A326F"/>
<path fill-rule="evenodd" clip-rule="evenodd" d="M18.6303 16.3509C19.0179 16.4537 18.5012 15.8367 18.6303 16.3509V16.3509Z" fill="#4A326F"/>
<path fill-rule="evenodd" clip-rule="evenodd" d="M19.5991 14.3971C19.5991 14.3971 19.8575 14.3971 19.8575 14.1914C19.8575 14.0886 19.4699 14.2942 19.5991 14.3971Z" fill="#4A326F"/>
<path fill-rule="evenodd" clip-rule="evenodd" d="M8.0379 31.365C8.42542 31.4679 7.90873 30.9537 8.0379 31.365V31.365Z" fill="#4A326F"/>
<path fill-rule="evenodd" clip-rule="evenodd" d="M11.461 25.5035C11.784 25.4006 11.0735 25.4006 11.461 25.5035V25.5035Z" fill="#4A326F"/>
<path fill-rule="evenodd" clip-rule="evenodd" d="M9.84636 25.1948C10.1693 25.092 9.45883 25.092 9.84636 25.1948V25.1948Z" fill="#4A326F"/>
<path fill-rule="evenodd" clip-rule="evenodd" d="M5.51896 31.6737C5.58355 31.7766 5.71273 31.5709 5.64814 31.468C5.51896 31.468 5.58355 31.5709 5.51896 31.6737Z" fill="#4A326F"/>
<path fill-rule="evenodd" clip-rule="evenodd" d="M15.3363 16.1454C15.4009 16.2482 15.5301 16.0425 15.5947 15.9397C15.4655 15.9397 15.4009 16.0425 15.3363 16.1454Z" fill="#4A326F"/>
<path fill-rule="evenodd" clip-rule="evenodd" d="M10.0401 23.6525C10.2339 23.8582 10.2985 23.2411 10.1047 23.1383C10.1047 23.2411 10.1693 23.4468 10.0401 23.6525Z" fill="#4A326F"/>
<path fill-rule="evenodd" clip-rule="evenodd" d="M10.3631 23.1381C10.686 23.3438 10.2985 22.5211 10.3631 23.1381V23.1381Z" fill="#4A326F"/>
<path fill-rule="evenodd" clip-rule="evenodd" d="M14.8842 16.0425C14.9488 15.8368 14.755 15.8368 14.6905 15.7339C14.6259 16.0425 14.8196 15.9396 14.8842 16.0425Z" fill="#4A326F"/>
<path fill-rule="evenodd" clip-rule="evenodd" d="M15.078 15.2198C15.4655 15.3227 14.9488 14.8085 15.078 15.2198V15.2198Z" fill="#4A326F"/>
<path fill-rule="evenodd" clip-rule="evenodd" d="M16.0468 13.2659C16.4343 13.4716 15.9176 12.8546 16.0468 13.2659V13.2659Z" fill="#4A326F"/>
<path fill-rule="evenodd" clip-rule="evenodd" d="M10.8798 20.67C10.9444 20.7729 11.0735 20.5672 11.0089 20.4644C10.8798 20.3615 10.9444 20.5672 10.8798 20.67Z" fill="#4A326F"/>
<path fill-rule="evenodd" clip-rule="evenodd" d="M17.0802 10.6949C17.1448 10.7977 17.274 10.592 17.2094 10.4892C17.0802 10.4892 17.1448 10.592 17.0802 10.6949Z" fill="#4A326F"/>
<path fill-rule="evenodd" clip-rule="evenodd" d="M13.0111 16.3509C13.3341 16.5566 12.9466 15.7339 13.0111 16.3509V16.3509Z" fill="#4A326F"/>
<path fill-rule="evenodd" clip-rule="evenodd" d="M14.4321 13.7799C14.8196 13.8828 14.3029 13.2657 14.4321 13.7799V13.7799Z" fill="#4A326F"/>
<path fill-rule="evenodd" clip-rule="evenodd" d="M7.00447 24.9893C7.32741 24.8865 6.61695 24.8865 7.00447 24.9893V24.9893Z" fill="#4A326F"/>
<path fill-rule="evenodd" clip-rule="evenodd" d="M13.7862 14.2941C14.1737 14.2941 13.4633 14.1913 13.7862 14.2941V14.2941Z" fill="#4A326F"/>
<path fill-rule="evenodd" clip-rule="evenodd" d="M6.16484 24.9892C6.29401 25.1948 6.3586 24.6807 6.42319 24.5778C6.16484 24.3721 6.29401 24.8863 6.16484 24.9892Z" fill="#4A326F"/>
<path fill-rule="evenodd" clip-rule="evenodd" d="M6.35859 24.3724C6.42318 24.4752 6.55236 24.2695 6.48777 24.1667C6.35859 24.1667 6.42318 24.3724 6.35859 24.3724Z" fill="#4A326F"/>
<path fill-rule="evenodd" clip-rule="evenodd" d="M11.3319 16.6594C11.6548 16.6594 10.9443 16.5566 11.3319 16.6594V16.6594Z" fill="#4A326F"/>
<path fill-rule="evenodd" clip-rule="evenodd" d="M11.5902 15.734C11.9132 15.6312 11.2027 15.6312 11.5902 15.734V15.734Z" fill="#4A326F"/>
<path fill-rule="evenodd" clip-rule="evenodd" d="M12.2361 14.7057C12.3007 14.8085 12.4299 14.6028 12.4944 14.5C12.4299 14.3972 12.3007 14.6028 12.2361 14.7057Z" fill="#4A326F"/>
<path fill-rule="evenodd" clip-rule="evenodd" d="M8.23167 20.2587C8.29626 20.3615 8.42543 20.1558 8.49002 20.053C8.36084 19.9502 8.29626 20.1558 8.23167 20.2587Z" fill="#4A326F"/>
<path fill-rule="evenodd" clip-rule="evenodd" d="M10.2985 16.9679C10.3631 17.0708 10.4922 16.8651 10.5568 16.7622C10.4276 16.6594 10.3631 16.8651 10.2985 16.9679Z" fill="#4A326F"/>
<path fill-rule="evenodd" clip-rule="evenodd" d="M7.71497 20.5673C7.77956 20.6701 7.90874 20.4645 7.97333 20.3616C7.90874 20.2588 7.84415 20.4645 7.71497 20.5673Z" fill="#4A326F"/>
<path fill-rule="evenodd" clip-rule="evenodd" d="M9.78174 17.3793C10.1047 17.585 9.71716 16.7623 9.78174 17.3793V17.3793Z" fill="#4A326F"/>
<path fill-rule="evenodd" clip-rule="evenodd" d="M12.5591 12.4431C12.6236 12.2374 12.4299 12.2374 12.3653 12.1346C12.3007 12.4431 12.4945 12.3403 12.5591 12.4431Z" fill="#4A326F"/>
<path fill-rule="evenodd" clip-rule="evenodd" d="M5.2606 23.5496C5.51895 23.7552 5.13142 22.9325 5.2606 23.5496V23.5496Z" fill="#4A326F"/>
<path fill-rule="evenodd" clip-rule="evenodd" d="M12.7528 12.0318C12.8174 11.8261 12.8174 11.7233 12.6882 11.5176C12.6236 11.7233 12.6236 11.8261 12.7528 12.0318Z" fill="#4A326F"/>
<path fill-rule="evenodd" clip-rule="evenodd" d="M11.7194 13.0602C11.9778 13.2659 11.6548 12.4432 11.7194 13.0602V13.0602Z" fill="#4A326F"/>
<path fill-rule="evenodd" clip-rule="evenodd" d="M8.23165 17.8935C8.49001 18.0991 8.16706 17.2764 8.23165 17.8935V17.8935Z" fill="#4A326F"/>
<path fill-rule="evenodd" clip-rule="evenodd" d="M6.68154 19.9503C6.81072 20.0532 6.81072 19.7447 6.87531 19.6418C6.68154 19.6418 6.68154 19.8475 6.68154 19.9503Z" fill="#4A326F"/>
<path fill-rule="evenodd" clip-rule="evenodd" d="M10.2985 14.0886C10.686 14.1914 10.2339 13.6772 10.2985 14.0886V14.0886Z" fill="#4A326F"/>
<path fill-rule="evenodd" clip-rule="evenodd" d="M10.9443 13.3687C11.0089 13.163 10.8152 13.163 10.7506 13.0602C10.686 13.2659 10.8152 13.2659 10.9443 13.3687Z" fill="#4A326F"/>
<path fill-rule="evenodd" clip-rule="evenodd" d="M13.7862 8.43252C13.8508 8.22685 13.8508 8.12401 13.7216 7.91833C13.657 8.12401 13.657 8.32968 13.7862 8.43252Z" fill="#4A326F"/>
<path fill-rule="evenodd" clip-rule="evenodd" d="M5.38978 21.39C5.45437 21.1843 5.45437 20.9786 5.2606 20.7729C5.19601 21.0815 5.2606 21.1843 5.38978 21.39Z" fill="#4A326F"/>
<path fill-rule="evenodd" clip-rule="evenodd" d="M8.61919 16.1452C8.61919 16.1452 8.68378 16.248 8.61919 16.1452C9.00671 15.9395 7.97331 16.1452 8.61919 16.1452Z" fill="#4A326F"/>
<path fill-rule="evenodd" clip-rule="evenodd" d="M12.3653 10.2836C12.4299 10.3864 12.559 10.1807 12.4945 10.0779C12.4299 9.97506 12.4945 10.1807 12.3653 10.2836Z" fill="#4A326F"/>
<path fill-rule="evenodd" clip-rule="evenodd" d="M5.00227 21.8014C5.13144 21.5957 5.19603 21.4928 5.06686 21.2872C5.00227 21.39 4.93768 21.4928 4.87309 21.5957C4.93768 21.6985 4.93768 21.6985 5.00227 21.8014Z" fill="#4A326F"/>
<path fill-rule="evenodd" clip-rule="evenodd" d="M13.3341 8.63818C13.3987 8.74102 13.5279 8.53534 13.5925 8.43251C13.4633 8.32967 13.3987 8.53534 13.3341 8.63818Z" fill="#4A326F"/>
<path fill-rule="evenodd" clip-rule="evenodd" d="M12.0423 10.0781C12.1069 10.1809 12.2361 9.97523 12.1715 9.87239C12.0423 9.76955 12.1069 9.97522 12.0423 10.0781Z" fill="#4A326F"/>
<path fill-rule="evenodd" clip-rule="evenodd" d="M7.9733 15.7339C8.29624 15.9396 7.90872 15.1169 7.9733 15.7339V15.7339Z" fill="#4A326F"/>
<path fill-rule="evenodd" clip-rule="evenodd" d="M7.77953 15.0142C8.03789 15.2199 7.71494 14.3972 7.77953 15.0142V15.0142Z" fill="#4A326F"/>
<path fill-rule="evenodd" clip-rule="evenodd" d="M6.03567 16.7623C6.16485 16.8651 6.22944 16.5566 6.35861 16.4538C6.29402 16.3509 6.22944 16.4538 6.16485 16.5566C6.10026 16.4538 6.10026 16.4538 6.16485 16.3509C5.9065 16.1452 6.16485 16.6594 6.03567 16.7623Z" fill="#4A326F"/>
<path fill-rule="evenodd" clip-rule="evenodd" d="M8.23163 11.8262C8.29622 11.929 8.4254 11.7233 8.36081 11.6205C8.23163 11.5177 8.29622 11.7233 8.23163 11.8262Z" fill="#4A326F"/>
<path fill-rule="evenodd" clip-rule="evenodd" d="M5.26061 11.7233C5.51897 11.929 5.19601 11.1063 5.26061 11.7233V11.7233Z" fill="#4A326F"/>
<path fill-rule="evenodd" clip-rule="evenodd" d="M17.5969 33.7304C17.7907 33.936 17.5969 33.4219 17.7261 33.319C17.4677 33.1134 17.7261 33.6275 17.5969 33.7304Z" fill="#4A326F"/>
<path fill-rule="evenodd" clip-rule="evenodd" d="M13.98 36.6097C14.0446 36.1984 13.5925 36.5069 13.5925 35.8899C13.5279 36.0956 13.5925 36.1984 13.5279 36.4041C13.657 36.3012 13.8508 36.5069 13.98 36.6097Z" fill="#4A326F"/>
<path fill-rule="evenodd" clip-rule="evenodd" d="M16.4989 31.6736C16.4989 32.085 16.4989 31.2623 16.4989 31.0566C16.176 30.9538 16.4989 31.5708 16.4989 31.6736Z" fill="#4A326F"/>
<path fill-rule="evenodd" clip-rule="evenodd" d="M9.84635 39.1807C10.1047 38.9751 9.71718 38.1524 9.84635 39.1807V39.1807Z" fill="#4A326F"/>
<path fill-rule="evenodd" clip-rule="evenodd" d="M17.8553 25.195C17.9198 24.6808 17.5323 25.0921 17.4031 24.8864C17.3385 25.2978 17.7261 24.8864 17.8553 25.195Z" fill="#4A326F"/>
<path fill-rule="evenodd" clip-rule="evenodd" d="M7.77955 38.9751C7.77955 38.9751 8.0379 38.9751 8.0379 38.7695C8.0379 38.6666 7.39203 38.9751 7.77955 38.9751Z" fill="#4A326F"/>
<path fill-rule="evenodd" clip-rule="evenodd" d="M11.0089 33.9362C11.2673 34.2447 11.0089 33.422 10.8798 33.7305C10.686 33.6277 10.9443 33.7305 11.0089 33.9362Z" fill="#4A326F"/>
<path fill-rule="evenodd" clip-rule="evenodd" d="M6.10025 39.1808C6.16483 39.2836 6.16483 39.2836 6.10025 39.3864C6.42318 39.4893 6.16483 39.0779 5.97107 38.9751C5.90648 39.0779 5.90648 39.0779 5.8419 39.1808C5.90648 39.2836 5.90648 39.2836 5.8419 39.3864C5.97107 39.3864 6.03566 39.2836 6.10025 39.1808Z" fill="#4A326F"/>
<path fill-rule="evenodd" clip-rule="evenodd" d="M17.3386 16.3509C17.274 16.7623 17.5323 16.2481 17.274 16.0424C17.0802 15.9396 17.2094 16.1452 17.3386 16.3509Z" fill="#4A326F"/>
<path fill-rule="evenodd" clip-rule="evenodd" d="M14.3029 19.0246C14.4321 18.7161 14.1092 19.0246 14.0446 18.8189C13.9154 19.2303 14.3029 18.9218 14.3029 19.0246Z" fill="#4A326F"/>
<path fill-rule="evenodd" clip-rule="evenodd" d="M17.0156 12.9574C17.274 13.2659 17.0156 12.4432 16.8864 12.7517C16.6927 12.6489 16.951 12.7517 17.0156 12.9574Z" fill="#4A326F"/>
<path fill-rule="evenodd" clip-rule="evenodd" d="M16.8219 12.4432C16.951 12.6488 16.8864 12.0318 17.0156 11.929C16.8219 11.8262 16.951 12.3403 16.8219 12.4432Z" fill="#4A326F"/>
<path fill-rule="evenodd" clip-rule="evenodd" d="M13.2695 14.1915C13.3341 13.9858 13.1403 14.0886 13.0757 13.883C13.0757 13.9858 13.0112 14.1915 12.9466 14.0886C12.8174 14.7057 13.2049 14.0886 13.2695 14.1915Z" fill="#4A326F"/>
<path fill-rule="evenodd" clip-rule="evenodd" d="M9.91096 13.2658C10.0401 13.163 9.65261 12.8545 9.58802 13.163C9.7172 13.3686 9.78178 13.0601 9.91096 13.2658Z" fill="#4A326F"/>
<path fill-rule="evenodd" clip-rule="evenodd" d="M5.51895 19.8475C5.71272 19.4361 5.26059 19.6418 5.38977 19.2304C5.26059 19.2304 5.26059 20.156 5.51895 19.8475Z" fill="#4A326F"/>
<path fill-rule="evenodd" clip-rule="evenodd" d="M4.35635 38.2551C4.35635 38.3579 4.42094 38.3579 4.42094 38.5636C4.6147 38.4608 4.48553 37.9466 4.35635 38.2551Z" fill="#4A326F"/>
<path fill-rule="evenodd" clip-rule="evenodd" d="M5.06684 41.6488C4.74389 41.9574 5.32519 41.8545 5.06684 41.6488V41.6488Z" fill="#4A326F"/>
<path fill-rule="evenodd" clip-rule="evenodd" d="M5.7127 47.4077H5.64811C5.51894 48.0248 6.16481 46.7907 5.7127 47.4077Z" fill="#4A326F"/>
<path fill-rule="evenodd" clip-rule="evenodd" d="M5.84188 48.0247C5.71271 48.0247 5.71271 48.3333 5.84188 48.3333C5.97105 48.2304 5.84188 48.1276 5.84188 48.0247Z" fill="#4A326F"/>
<path fill-rule="evenodd" clip-rule="evenodd" d="M6.61695 42.4715C6.3586 42.8829 6.8753 42.163 6.61695 42.4715V42.4715Z" fill="#4A326F"/>
<path fill-rule="evenodd" clip-rule="evenodd" d="M6.35859 48.4361C5.97106 48.7446 6.61695 48.6417 6.35859 48.4361V48.4361Z" fill="#4A326F"/>
<path fill-rule="evenodd" clip-rule="evenodd" d="M7.00446 37.0212C6.6815 37.2269 7.32741 37.4326 7.00446 37.0212V37.0212Z" fill="#4A326F"/>
<path fill-rule="evenodd" clip-rule="evenodd" d="M6.87529 43.4999C6.68153 43.9113 7.19823 43.1914 6.87529 43.4999V43.4999Z" fill="#4A326F"/>
<path fill-rule="evenodd" clip-rule="evenodd" d="M7.52117 34.2445C7.39199 34.2445 7.39199 34.553 7.52117 34.553C7.65035 34.4502 7.52117 34.4502 7.52117 34.2445Z" fill="#4A326F"/>
<path fill-rule="evenodd" clip-rule="evenodd" d="M7.392 38.1523C7.26283 38.1523 7.26283 38.4609 7.392 38.4609C7.45659 38.4609 7.32741 38.358 7.392 38.1523Z" fill="#4A326F"/>
<path fill-rule="evenodd" clip-rule="evenodd" d="M7.97329 29.9255C7.97329 30.0284 7.97329 30.1312 7.97329 30.234C8.03788 30.234 8.10247 30.234 8.16705 30.234C8.16705 30.1312 8.16705 30.0284 8.16705 29.9255C8.10247 29.9255 8.03788 29.9255 7.97329 29.9255Z" fill="#4A326F"/>
<path fill-rule="evenodd" clip-rule="evenodd" d="M7.19822 50.0815C7.19822 50.2872 7.3274 50.39 7.45657 50.39C7.39199 50.1843 7.3274 50.0815 7.19822 50.0815Z" fill="#4A326F"/>
<path fill-rule="evenodd" clip-rule="evenodd" d="M7.8441 44.631C7.65033 45.0424 8.16704 44.3225 7.8441 44.631V44.631Z" fill="#4A326F"/>
<path fill-rule="evenodd" clip-rule="evenodd" d="M8.10248 47.0991C7.97331 47.0991 8.03789 47.3048 7.9733 47.5105C8.10248 47.5105 8.10248 47.3048 8.10248 47.0991Z" fill="#4A326F"/>
<path fill-rule="evenodd" clip-rule="evenodd" d="M8.94212 28.5885C8.68376 28.6914 9.26506 28.897 8.94212 28.5885V28.5885Z" fill="#4A326F"/>
<path fill-rule="evenodd" clip-rule="evenodd" d="M9.58798 36.404C9.26504 36.7125 9.84634 36.6097 9.58798 36.404V36.404Z" fill="#4A326F"/>
<path fill-rule="evenodd" clip-rule="evenodd" d="M10.3631 25.2978C10.2339 25.2978 10.2339 25.6063 10.3631 25.6063C10.4922 25.5035 10.3631 25.4007 10.3631 25.2978Z" fill="#4A326F"/>
<path fill-rule="evenodd" clip-rule="evenodd" d="M9.39421 52.5494C9.13586 52.7551 9.71714 52.9608 9.39421 52.5494V52.5494Z" fill="#4A326F"/>
<path fill-rule="evenodd" clip-rule="evenodd" d="M9.71717 48.0246C9.45882 48.4359 9.97552 47.716 9.71717 48.0246V48.0246Z" fill="#4A326F"/>
<path fill-rule="evenodd" clip-rule="evenodd" d="M10.2338 36.8155C10.0401 37.3297 10.5568 36.6098 10.2338 36.8155V36.8155Z" fill="#4A326F"/>
<path fill-rule="evenodd" clip-rule="evenodd" d="M10.8798 26.5318C10.7506 26.6346 10.8798 26.7374 10.8798 26.9431C11.0089 26.8403 10.8798 26.7374 10.8798 26.5318Z" fill="#4A326F"/>
<path fill-rule="evenodd" clip-rule="evenodd" d="M9.84633 51.0069C9.84633 51.2126 9.9755 51.3155 10.1047 51.3155C10.0401 51.1098 9.9755 51.0069 9.84633 51.0069Z" fill="#4A326F"/>
<path fill-rule="evenodd" clip-rule="evenodd" d="M9.91092 51.7269C9.78175 51.7269 9.78175 52.0354 9.91092 52.0354C9.97551 51.9325 9.84634 51.8297 9.91092 51.7269Z" fill="#4A326F"/>
<path fill-rule="evenodd" clip-rule="evenodd" d="M11.1381 27.1488C11.0089 27.1488 11.0089 27.4573 11.1381 27.4573C11.2673 27.3544 11.1381 27.2516 11.1381 27.1488Z" fill="#4A326F"/>
<path fill-rule="evenodd" clip-rule="evenodd" d="M12.3007 35.1702C11.9131 35.4787 12.559 35.3758 12.3007 35.1702V35.1702Z" fill="#4A326F"/>
<path fill-rule="evenodd" clip-rule="evenodd" d="M12.2361 43.1914C11.9777 43.6027 12.4944 42.8829 12.2361 43.1914V43.1914Z" fill="#4A326F"/>
<path fill-rule="evenodd" clip-rule="evenodd" d="M14.1091 26.3262C14.1091 26.5319 14.2383 26.6347 14.3675 26.6347C14.3029 26.5319 14.2383 26.3262 14.1091 26.3262Z" fill="#4A326F"/>
<path fill-rule="evenodd" clip-rule="evenodd" d="M13.5278 41.7516C13.3341 42.1629 13.8508 41.4431 13.5278 41.7516V41.7516Z" fill="#4A326F"/>
<path fill-rule="evenodd" clip-rule="evenodd" d="M14.1737 28.3828C14.5613 28.0743 13.98 27.9715 14.1737 28.3828V28.3828Z" fill="#4A326F"/>
<path fill-rule="evenodd" clip-rule="evenodd" d="M14.0445 32.1878C13.9154 32.1878 13.9154 32.4963 14.0445 32.4963C14.1737 32.3935 14.0445 32.3935 14.0445 32.1878Z" fill="#4A326F"/>
<path fill-rule="evenodd" clip-rule="evenodd" d="M13.2049 54.195C13.0757 54.195 13.1403 54.4007 13.0758 54.6063C13.2049 54.6063 13.2049 54.4007 13.2049 54.195Z" fill="#4A326F"/>
<path fill-rule="evenodd" clip-rule="evenodd" d="M14.4967 25.6062C14.1737 25.9147 14.755 25.8118 14.4967 25.6062V25.6062Z" fill="#4A326F"/>
<path fill-rule="evenodd" clip-rule="evenodd" d="M13.98 43.0885C13.7862 43.0885 13.98 43.6027 14.1091 43.4998C14.1091 43.397 14.0445 43.2942 13.98 43.0885Z" fill="#4A326F"/>
<path fill-rule="evenodd" clip-rule="evenodd" d="M13.98 43.8083C13.7216 44.014 14.3029 44.2197 13.98 43.8083V43.8083Z" fill="#4A326F"/>
<path fill-rule="evenodd" clip-rule="evenodd" d="M13.5278 53.8863C13.5924 54.0919 13.657 53.8863 13.7862 53.8863C13.7862 53.5778 13.657 53.8863 13.5278 53.8863Z" fill="#4A326F"/>
<path fill-rule="evenodd" clip-rule="evenodd" d="M13.7862 54.7091C13.4632 55.0176 14.0446 54.9148 13.7862 54.7091V54.7091Z" fill="#4A326F"/>
<path fill-rule="evenodd" clip-rule="evenodd" d="M15.078 30.0283C14.755 30.3368 15.5301 30.3368 15.078 30.0283V30.0283Z" fill="#4A326F"/>
<path fill-rule="evenodd" clip-rule="evenodd" d="M14.6258 46.1736C14.4967 46.1736 14.4967 46.4821 14.6258 46.4821C14.755 46.3793 14.6258 46.3793 14.6258 46.1736Z" fill="#4A326F"/>
<path fill-rule="evenodd" clip-rule="evenodd" d="M14.8196 51.624C14.5613 51.8297 15.1426 52.0354 14.8196 51.624V51.624Z" fill="#4A326F"/>
<path fill-rule="evenodd" clip-rule="evenodd" d="M14.8842 55.1204C14.5612 55.4289 15.1425 55.3261 14.8842 55.1204V55.1204Z" fill="#4A326F"/>
<path fill-rule="evenodd" clip-rule="evenodd" d="M16.2406 24.6807C16.5635 24.3722 16.0468 23.9609 16.2406 24.6807V24.6807Z" fill="#4A326F"/>
<path fill-rule="evenodd" clip-rule="evenodd" d="M16.0468 27.1489C16.3051 27.6631 16.3697 26.7375 16.0468 27.1489V27.1489Z" fill="#4A326F"/>
<path fill-rule="evenodd" clip-rule="evenodd" d="M15.7238 38.7693C15.5301 39.2835 16.0468 38.4608 15.7238 38.7693V38.7693Z" fill="#4A326F"/>
<path fill-rule="evenodd" clip-rule="evenodd" d="M15.078 53.9893C14.8842 54.4007 15.4009 53.6808 15.078 53.9893V53.9893Z" fill="#4A326F"/>
<path fill-rule="evenodd" clip-rule="evenodd" d="M16.3697 37.9466C16.176 37.9466 16.3051 38.358 16.3697 38.4608C16.6281 38.358 16.3051 38.1523 16.3697 37.9466Z" fill="#4A326F"/>
<path fill-rule="evenodd" clip-rule="evenodd" d="M16.4343 38.5637C16.3051 38.5637 16.3051 38.8722 16.4343 38.8722C16.5635 38.8722 16.4343 38.7694 16.4343 38.5637Z" fill="#4A326F"/>
<path fill-rule="evenodd" clip-rule="evenodd" d="M15.9822 49.5672C15.7239 50.0814 16.2406 49.2587 15.9822 49.5672V49.5672Z" fill="#4A326F"/>
<path fill-rule="evenodd" clip-rule="evenodd" d="M16.1759 50.5956C15.9822 51.0069 16.4989 50.287 16.1759 50.5956V50.5956Z" fill="#4A326F"/>
<path fill-rule="evenodd" clip-rule="evenodd" d="M16.1114 52.0353C15.9822 52.0353 16.0468 52.241 15.9822 52.4467C16.1114 52.4467 16.1114 52.241 16.1114 52.0353Z" fill="#4A326F"/>
<path fill-rule="evenodd" clip-rule="evenodd" d="M16.8218 43.7056C16.6927 43.7056 16.7572 43.9112 16.6927 44.1169C16.8218 44.1169 16.8218 43.8084 16.8218 43.7056Z" fill="#4A326F"/>
<path fill-rule="evenodd" clip-rule="evenodd" d="M16.6281 48.3332C16.4989 48.3332 16.5635 48.5389 16.4989 48.7446C16.6281 48.7446 16.6281 48.4361 16.6281 48.3332Z" fill="#4A326F"/>
<path fill-rule="evenodd" clip-rule="evenodd" d="M17.0156 42.8829C16.8864 42.8829 16.951 43.0886 16.8864 43.2942C17.0156 43.2942 17.0156 43.0886 17.0156 42.8829Z" fill="#4A326F"/>
<path fill-rule="evenodd" clip-rule="evenodd" d="M16.8218 47.5105C16.5635 47.7162 17.1448 47.9219 16.8218 47.5105V47.5105Z" fill="#4A326F"/>
<path fill-rule="evenodd" clip-rule="evenodd" d="M16.8218 54.0921C16.8864 54.2977 16.951 54.0921 17.0802 54.0921C17.0156 53.8864 16.8864 54.0921 16.8218 54.0921Z" fill="#4A326F"/>
<path fill-rule="evenodd" clip-rule="evenodd" d="M17.6615 38.0496C17.3385 38.2553 17.9844 38.4609 17.6615 38.0496V38.0496Z" fill="#4A326F"/>
<path fill-rule="evenodd" clip-rule="evenodd" d="M16.8864 54.6062C16.8864 54.8119 17.0156 54.9147 17.1448 54.9147C17.0802 54.709 17.0156 54.6062 16.8864 54.6062Z" fill="#4A326F"/>
<path fill-rule="evenodd" clip-rule="evenodd" d="M18.049 30.3366C18.049 30.5423 18.1782 30.6452 18.3719 30.6452C18.3074 30.4395 18.2428 30.3366 18.049 30.3366Z" fill="#4A326F"/>
<path fill-rule="evenodd" clip-rule="evenodd" d="M17.2094 52.7552C16.8865 52.8581 17.5323 53.0638 17.2094 52.7552V52.7552Z" fill="#4A326F"/>
<path fill-rule="evenodd" clip-rule="evenodd" d="M17.7907 45.4538C17.4677 45.5566 18.1136 45.7623 17.7907 45.4538V45.4538Z" fill="#4A326F"/>
<path fill-rule="evenodd" clip-rule="evenodd" d="M18.6949 25.1948C18.5657 25.1948 18.6303 25.4005 18.5657 25.6061C18.6949 25.6061 18.6949 25.4005 18.6949 25.1948Z" fill="#4A326F"/>
<path fill-rule="evenodd" clip-rule="evenodd" d="M18.049 42.163C17.9198 42.2658 18.049 42.3686 18.049 42.5743C18.2428 42.4715 18.049 42.3686 18.049 42.163Z" fill="#4A326F"/>
<path fill-rule="evenodd" clip-rule="evenodd" d="M17.7907 50.4928C17.4677 50.8013 18.1136 50.6985 17.7907 50.4928V50.4928Z" fill="#4A326F"/>
<path fill-rule="evenodd" clip-rule="evenodd" d="M17.6615 51.7268C17.7261 51.9324 17.7907 51.7268 17.9198 51.7268C17.8552 51.5211 17.7907 51.7268 17.6615 51.7268Z" fill="#4A326F"/>
<path fill-rule="evenodd" clip-rule="evenodd" d="M18.4365 39.7978C18.4365 40.0035 18.5657 40.1063 18.7595 40.1063C18.6949 39.9006 18.5657 39.7978 18.4365 39.7978Z" fill="#4A326F"/>
<path fill-rule="evenodd" clip-rule="evenodd" d="M18.1782 47.0991H18.1136C18.049 47.7161 18.6949 46.4821 18.1782 47.0991Z" fill="#4A326F"/>
<path fill-rule="evenodd" clip-rule="evenodd" d="M17.8552 55.5318C17.7261 55.5318 17.7261 55.8403 17.8552 55.8403C17.9844 55.7375 17.8552 55.6346 17.8552 55.5318Z" fill="#4A326F"/>
<path fill-rule="evenodd" clip-rule="evenodd" d="M18.5657 39.078C18.5011 39.3865 18.5657 39.4893 18.6949 39.4893C18.6949 39.3865 18.6949 39.1808 18.6949 39.078C18.6303 39.078 18.6303 39.078 18.5657 39.078Z" fill="#4A326F"/>
<path fill-rule="evenodd" clip-rule="evenodd" d="M18.1782 55.3261C18.049 55.3261 18.049 55.6346 18.1782 55.6346C18.3074 55.5318 18.1782 55.4289 18.1782 55.3261Z" fill="#4A326F"/>
<path fill-rule="evenodd" clip-rule="evenodd" d="M18.8241 46.7907C18.5657 46.8935 19.147 47.0992 18.8241 46.7907V46.7907Z" fill="#4A326F"/>
<path fill-rule="evenodd" clip-rule="evenodd" d="M19.3408 47.0991C19.0178 47.3048 19.6637 47.5105 19.3408 47.0991V47.0991Z" fill="#4A326F"/>
<path fill-rule="evenodd" clip-rule="evenodd" d="M20.1158 32.2906C19.7929 32.4963 20.4388 32.702 20.1158 32.2906V32.2906Z" fill="#4A326F"/>
<path fill-rule="evenodd" clip-rule="evenodd" d="M20.1158 37.9467C20.4388 37.6382 19.9221 37.2269 20.1158 37.9467V37.9467Z" fill="#4A326F"/>
<path fill-rule="evenodd" clip-rule="evenodd" d="M19.8575 44.014C19.7283 44.014 19.7929 44.3225 19.7283 44.5282C19.7929 44.5282 19.7929 44.3225 19.7929 44.2197C19.8575 44.2197 19.8575 44.3225 19.8575 44.3225C20.245 44.3225 19.8575 44.1168 19.8575 44.014Z" fill="#4A326F"/>
<path fill-rule="evenodd" clip-rule="evenodd" d="M20.4388 32.1877C20.245 32.7019 20.7617 31.8792 20.4388 32.1877V32.1877Z" fill="#4A326F"/>
<path fill-rule="evenodd" clip-rule="evenodd" d="M20.3742 33.7304C20.6971 33.4219 20.1804 33.0106 20.3742 33.7304V33.7304Z" fill="#4A326F"/>
<path fill-rule="evenodd" clip-rule="evenodd" d="M20.6325 31.8793C20.8909 32.3935 20.9555 31.468 20.6325 31.8793V31.8793Z" fill="#4A326F"/>
<path fill-rule="evenodd" clip-rule="evenodd" d="M20.568 35.3757C20.4388 35.3757 20.4388 35.6842 20.568 35.6842C20.6971 35.5813 20.568 35.4785 20.568 35.3757Z" fill="#4A326F"/>
<path fill-rule="evenodd" clip-rule="evenodd" d="M20.3096 49.9785C20.1804 49.9785 20.1804 50.2871 20.3096 50.2871C20.4388 50.1842 20.3096 50.0814 20.3096 49.9785Z" fill="#4A326F"/>
<path fill-rule="evenodd" clip-rule="evenodd" d="M21.0847 35.5815C21.1492 35.9929 21.2138 35.7872 21.4076 35.7872C21.4076 35.5815 21.2138 35.5815 21.0847 35.5815Z" fill="#4A326F"/>
<path fill-rule="evenodd" clip-rule="evenodd" d="M21.9243 34.1418C21.6013 34.4503 22.1826 34.3475 21.9243 34.1418V34.1418Z" fill="#4A326F"/>
<path fill-rule="evenodd" clip-rule="evenodd" d="M21.9243 34.5532C21.7951 34.5532 21.8597 34.7588 21.7951 34.9645C21.9243 34.9645 21.8597 34.7588 21.9243 34.5532Z" fill="#4A326F"/>
<path fill-rule="evenodd" clip-rule="evenodd" d="M22.5702 46.8934C22.3118 47.0991 22.8931 47.3048 22.5702 46.8934V46.8934Z" fill="#4A326F"/>
<path fill-rule="evenodd" clip-rule="evenodd" d="M23.7973 33.0106C23.4744 33.1134 24.1203 33.3191 23.7973 33.0106V33.0106Z" fill="#4A326F"/>
<path fill-rule="evenodd" clip-rule="evenodd" d="M4.16261 43.6026C3.90427 43.6026 4.29178 43.8083 4.2272 44.014C4.48554 43.9111 4.09803 43.7055 4.16261 43.6026Z" fill="#4A326F"/>
<path fill-rule="evenodd" clip-rule="evenodd" d="M5.64814 37.6382C5.8419 38.0495 6.03567 37.3297 6.22943 37.741C6.22943 37.5353 6.10026 37.5353 6.10026 37.3297C6.03567 37.4325 5.8419 37.5353 5.64814 37.6382Z" fill="#4A326F"/>
<path fill-rule="evenodd" clip-rule="evenodd" d="M5.84189 43.9112C5.64812 43.6027 5.97107 44.2197 6.10024 44.3225C6.3586 44.1168 5.90648 44.014 5.84189 43.9112Z" fill="#4A326F"/>
<path fill-rule="evenodd" clip-rule="evenodd" d="M7.65034 31.2623C7.58575 31.6736 8.16707 31.8793 7.65034 31.2623V31.2623Z" fill="#4A326F"/>
<path fill-rule="evenodd" clip-rule="evenodd" d="M7.52117 50.1842C7.65035 50.6984 7.77953 49.9785 7.9733 49.9785C7.90871 49.5672 7.77953 50.287 7.52117 50.1842Z" fill="#4A326F"/>
<path fill-rule="evenodd" clip-rule="evenodd" d="M9.26505 29.2054C9.26505 29.2054 9.07128 29.514 9.13587 29.6168C9.20046 29.7196 9.58799 28.7941 9.26505 29.2054Z" fill="#4A326F"/>
<path fill-rule="evenodd" clip-rule="evenodd" d="M9.00668 36.404C8.68374 36.404 9.26503 36.8153 9.20044 36.404C9.32962 36.3011 9.13586 36.5068 9.00668 36.404Z" fill="#4A326F"/>
<path fill-rule="evenodd" clip-rule="evenodd" d="M10.4922 27.3544C10.4276 27.3544 10.4276 27.2516 10.4276 27.2516C10.1693 27.5601 10.5568 27.5601 10.686 27.4572C10.686 27.3544 10.686 27.2516 10.686 27.1487C10.6214 27.1487 10.6214 27.0459 10.6214 27.0459C10.4922 26.943 10.4922 27.1487 10.4922 27.3544Z" fill="#4A326F"/>
<path fill-rule="evenodd" clip-rule="evenodd" d="M11.6548 56.2517C11.5256 55.8403 11.5902 56.5602 11.8486 56.3545C11.9777 56.3545 11.784 56.2517 11.6548 56.2517Z" fill="#4A326F"/>
<path fill-rule="evenodd" clip-rule="evenodd" d="M12.7528 51.0071C12.7528 51.4184 12.882 50.8014 13.0111 50.9042C12.9466 50.4929 12.8174 51.1099 12.7528 51.0071Z" fill="#4A326F"/>
<path fill-rule="evenodd" clip-rule="evenodd" d="M15.5301 53.4751C15.5301 53.6808 15.6592 53.4751 15.7884 53.4751C15.7238 53.3723 15.7238 53.2694 15.7884 53.1666C15.6592 52.7552 15.6592 53.5779 15.5301 53.4751Z" fill="#4A326F"/>
<path fill-rule="evenodd" clip-rule="evenodd" d="M18.5011 50.6984C18.4365 50.9041 18.8241 50.6984 18.7595 50.4928C18.5657 50.3899 18.6303 50.6984 18.5011 50.6984Z" fill="#4A326F"/>
<path fill-rule="evenodd" clip-rule="evenodd" d="M18.9532 41.0318C18.9532 41.5459 19.2116 40.9289 19.2762 41.3403C19.4699 41.3403 19.0178 40.5176 18.9532 41.0318Z" fill="#4A326F"/>
<path fill-rule="evenodd" clip-rule="evenodd" d="M20.3096 36.1983C20.245 36.5068 20.6325 36.5068 20.3742 36.3012C20.5034 35.9927 20.5034 35.9927 20.3096 36.1983Z" fill="#4A326F"/>
<path d="M3.64589 57.5887C3.96883 54.6064 4.29177 51.6242 4.22718 48.539C4.22718 47.2022 4.16259 45.8653 4.42094 44.6312C4.80847 43.0887 5.71271 41.9575 5.84188 40.4149C5.97106 39.2837 5.71271 38.2554 5.38977 37.227C5.00224 35.7873 4.55012 34.3475 4.42094 32.805C4.098 29.6171 5.00224 26.3263 4.55012 23.2412C4.42095 22.2128 4.16259 21.2873 4.03342 20.2589C3.77506 18.6135 3.90424 16.8653 4.35636 15.3227" stroke="#4A326F" stroke-width="0.5" stroke-miterlimit="10" stroke-linecap="round" stroke-linejoin="round"/>
<path d="M5.19599 11.3121C5.97105 12.1348 6.03564 13.883 6.03564 15.3227C6.03564 19.6419 6.03564 24.0638 6.03564 28.383C6.03564 29.3085 6.03564 30.2341 6.16481 31.1596C6.29399 31.9823 6.55234 32.805 6.74611 33.6277C7.26281 35.9929 7.26281 38.7695 6.74611 41.1348C6.2294 43.3972 5.32517 45.4539 5.19599 47.8192C5.00223 51.1099 6.35858 54.2979 5.97105 57.4858" stroke="#4A326F" stroke-width="0.5" stroke-miterlimit="10" stroke-linecap="round" stroke-linejoin="round"/>
<path d="M7.13362 57.5885C8.8129 55.5318 10.4922 52.7552 10.4922 49.3615C10.4922 46.5849 9.39419 44.1169 9.00667 41.3403C8.61914 38.975 8.74831 36.4041 8.55455 34.0388C8.23161 30.7481 7.32738 27.5601 7.32738 24.2693C7.32738 22.2126 7.71491 20.1559 7.77949 18.0991C7.84408 15.3225 7.26279 12.5459 6.10021 10.4892" stroke="#4A326F" stroke-width="0.5" stroke-miterlimit="10" stroke-linecap="round" stroke-linejoin="round"/>
<path fill-rule="evenodd" clip-rule="evenodd" d="M7.06906 42.8829C7.32741 42.4716 7.77953 42.0603 8.10247 42.3688C8.23164 42.4716 8.29623 42.6773 8.4254 42.8829C8.74834 43.9113 8.81293 45.1454 8.87752 46.2766C8.94211 47.4078 8.94211 48.4361 8.94211 49.5673C8.94211 50.39 8.94211 51.3156 8.68376 52.0354C8.42541 52.7553 7.9087 53.3723 7.392 53.2695C7.26282 53.2695 7.13365 53.1666 7.00447 53.0638C6.87529 52.8581 6.81071 52.6525 6.81071 52.3439C6.22941 49.6702 5.58354 45.351 7.06906 42.8829Z" stroke="#4A326F" stroke-width="0.5" stroke-miterlimit="10" stroke-linecap="round" stroke-linejoin="round"/>
<path d="M6.87528 45.9681C6.74611 45.7624 6.87528 45.4539 7.00446 45.351C7.13363 45.351 7.3274 45.4539 7.39199 45.7624C7.45657 46.0709 7.45657 46.1737 7.45657 46.4823C7.45657 47.0993 7.45657 47.7163 7.45657 48.4361C7.3274 48.539 7.19822 48.539 7.06905 48.3333C6.93987 48.1276 6.93987 47.922 6.87528 47.7163C6.81069 47.2021 6.74611 46.5851 6.74611 46.0709" stroke="#4A326F" stroke-width="0.5" stroke-miterlimit="10" stroke-linecap="round" stroke-linejoin="round"/>
<path d="M9.00669 5.14185C8.87751 10.695 9.00669 16.2482 9.13586 21.9043C9.20045 23.6525 9.20045 25.4007 9.39422 27.1489C9.58798 29.3085 9.91092 31.3652 10.1693 33.422C10.7506 37.5355 11.0089 41.6489 11.3319 45.8652C11.3964 47.0993 11.5256 48.3333 11.461 49.5674C11.3319 52.2411 10.6214 54.7092 9.84633 57.1773" stroke="#4A326F" stroke-width="0.5" stroke-miterlimit="10" stroke-linecap="round" stroke-linejoin="round"/>
<path d="M11.0089 57.4858C12.9466 53.7837 13.5279 48.6419 13.3341 43.8085C13.1403 38.9752 12.2361 34.3475 11.5256 29.617C11.0735 26.6348 10.686 23.5497 11.2027 20.5674C11.5256 18.7163 12.1715 16.9681 12.6882 15.117C13.7862 11.2092 14.1737 6.68442 13.5924 2.46811C13.5924 2.26244 13.5279 2.1596 13.3987 2.05676C13.3341 2.05676 13.2049 2.26244 13.2695 2.36527" stroke="#4A326F" stroke-width="0.5" stroke-miterlimit="10" stroke-linecap="round" stroke-linejoin="round"/>
<path d="M12.3007 2.77649C12.6882 5.14174 12.8174 7.50699 12.8174 9.87223C12.8174 10.4893 12.8174 11.1063 12.6882 11.7233C12.4944 12.8545 12.1069 13.8829 11.461 14.6027C11.2673 14.8084 10.9443 15.0141 10.686 14.9112C10.4276 14.7056 10.363 14.2942 10.2985 13.8829C9.91092 10.5921 9.78175 7.19848 9.97551 3.80486" stroke="#4A326F" stroke-width="0.5" stroke-miterlimit="10" stroke-linecap="round" stroke-linejoin="round"/>
<path fill-rule="evenodd" clip-rule="evenodd" d="M11.6548 10.4895C11.6548 10.5923 11.6548 10.6952 11.5902 10.798C11.5256 10.9008 11.461 10.9008 11.3964 10.798C11.3319 10.798 11.2673 10.6952 11.2027 10.5923C9.91092 8.63842 12.0423 6.78735 11.6548 10.4895Z" stroke="#4A326F" stroke-width="0.5" stroke-miterlimit="10" stroke-linecap="round" stroke-linejoin="round"/>
<path d="M15.0134 0.925659C15.4655 4.42211 15.4009 8.22708 14.755 11.6207C14.3029 14.1916 13.5278 16.7625 13.5924 19.5391C13.657 21.493 14.1091 23.4469 14.4967 25.298C15.3363 29.5143 15.7884 34.0391 15.7884 38.4611C15.7884 44.6313 14.9488 50.8015 15.3363 56.9718" stroke="#4A326F" stroke-width="0.5" stroke-miterlimit="10" stroke-linecap="round" stroke-linejoin="round"/>
<path d="M16.3697 57.2801C16.1759 51.727 16.0468 45.9681 17.2093 40.6206C17.3385 40.2092 17.4677 39.5922 17.7906 39.5922C18.049 39.5922 18.1782 39.9007 18.3073 40.2092C18.8886 41.5461 19.2116 43.0887 19.4699 44.6312C20.1158 48.6418 20.5033 52.8582 20.4387 56.9716" stroke="#4A326F" stroke-width="0.5" stroke-miterlimit="10" stroke-linecap="round" stroke-linejoin="round"/>
<path d="M21.5368 57.5886C22.5056 52.4467 22.1181 46.6878 20.8263 41.7517C19.9221 38.3581 18.6949 35.273 17.8552 31.7765C17.0802 28.6914 16.7573 25.2978 16.4343 22.007C16.2405 19.9503 15.9822 17.8935 15.9822 15.8368C15.9822 10.9006 17.1448 6.06728 16.6927 1.23395" stroke="#4A326F" stroke-width="0.5" stroke-miterlimit="10" stroke-linecap="round" stroke-linejoin="round"/>
<path d="M18.1136 0.51416C17.9844 2.26239 17.7906 4.01061 17.6615 5.75884C17.5323 7.50707 17.3385 9.25529 17.3385 11.0035C16.951 23.3439 21.4722 34.656 22.5056 46.7908C22.7639 50.2872 22.7639 53.8865 22.7639 57.3829" stroke="#4A326F" stroke-width="0.5" stroke-miterlimit="10" stroke-linecap="round" stroke-linejoin="round"/>
<path d="M19.2116 57.6915C19.4053 53.2695 19.4699 48.6419 18.049 44.9397C17.3385 46.5851 17.2739 48.7447 17.2094 50.6986C17.1448 52.7553 17.1448 54.9149 17.1448 56.9716" stroke="#4A326F" stroke-width="0.5" stroke-miterlimit="10" stroke-linecap="round" stroke-linejoin="round"/>
<path fill-rule="evenodd" clip-rule="evenodd" d="M18.5657 49.9787C18.1782 50.5957 17.7906 54.2978 18.5011 54.2978C18.5011 53.578 18.2428 50.39 18.5657 49.9787Z" stroke="#4A326F" stroke-width="0.5" stroke-miterlimit="10" stroke-linecap="round" stroke-linejoin="round"/>
<path d="M20.245 1.43976C20.1158 2.46813 19.9867 3.4965 19.9221 4.52486C18.8887 15.2199 21.0847 25.8121 22.8285 36.3015C23.9265 42.883 24.8308 49.7731 24.0557 56.5603" stroke="#4A326F" stroke-width="0.5" stroke-miterlimit="10" stroke-linecap="round" stroke-linejoin="round"/>
<path d="M25.0245 57.2801C25.9287 50.3901 25.9287 42.883 23.9911 36.4043C23.539 34.8617 22.9577 33.5248 22.5701 31.9823C21.343 27.2518 21.6013 21.8014 22.7639 16.9681C23.216 15.117 23.7973 13.266 24.1203 11.4149C24.5724 8.53547 24.3786 5.34753 23.6035 2.67377" stroke="#4A326F" stroke-width="0.5" stroke-miterlimit="10" stroke-linecap="round" stroke-linejoin="round"/>
<path d="M22.8285 2.26229C23.0869 4.62754 23.1514 6.99279 23.0223 9.35804C22.9577 11.6204 22.6993 13.9857 21.7305 15.5282C21.5367 15.8368 21.343 16.0424 21.0846 15.8368C20.9555 15.7339 20.9555 15.4254 20.8909 15.2197C20.5033 10.6949 20.5033 6.17009 21.02 1.74811" stroke="#4A326F" stroke-width="0.5" stroke-miterlimit="10" stroke-linecap="round" stroke-linejoin="round"/>
<path fill-rule="evenodd" clip-rule="evenodd" d="M22.2472 9.25523C22.2472 9.4609 22.2472 9.66658 22.118 9.87225C21.9889 10.0779 21.7951 9.97509 21.7305 9.76941C21.6013 9.56374 21.6013 9.35807 21.6013 9.04956C21.4722 7.30133 21.2138 3.49636 21.9889 2.15948C22.6993 2.87934 22.2472 7.91835 22.2472 9.25523Z" stroke="#4A326F" stroke-width="0.5" stroke-miterlimit="10" stroke-linecap="round" stroke-linejoin="round"/>
<path d="M25.4766 4.21625C26.3163 9.97511 24.4432 15.8368 24.7016 21.6985C24.8307 25.5035 25.9287 29.1028 26.5746 32.8049C27.931 40.7233 27.4143 49.156 26.1871 57.0744" stroke="#4A326F" stroke-width="0.5" stroke-miterlimit="10" stroke-linecap="round" stroke-linejoin="round"/>
<path d="M27.0913 57.6916C28.3185 53.8866 29.0289 49.6703 29.1581 45.454C29.2873 42.0604 29.0289 38.4611 29.6102 35.1703C29.7394 34.4504 29.9332 33.7306 30.0624 32.9079C31.2249 27.4575 31.5479 21.493 31.0312 15.7341" stroke="#4A326F" stroke-width="0.5" stroke-miterlimit="10" stroke-linecap="round" stroke-linejoin="round"/>
<path d="M30.0624 12.546C30.1269 18.3048 30.1269 24.1665 29.0935 29.7197C28.9644 30.2339 28.8998 30.8509 28.6414 31.2623C28.3831 31.6736 27.9955 31.8793 27.6726 31.5708C27.4788 31.4679 27.4142 31.1594 27.2851 30.8509C26.1225 27.7658 25.6058 24.1665 25.8641 20.5672C26.1871 16.1452 27.608 11.7233 27.0267 7.40411" stroke="#4A326F" stroke-width="0.5" stroke-miterlimit="10" stroke-linecap="round" stroke-linejoin="round"/>
<path d="M29.3519 11.1064C29.3519 13.9859 29.2227 16.8653 29.029 19.7447C28.9644 21.3901 28.7706 23.0355 28.1247 24.1667C27.9956 24.3724 27.7372 24.6809 27.5434 24.4752C27.4143 24.3724 27.3497 23.9611 27.3497 23.6525C27.3497 22.9327 27.3497 22.2128 27.3497 21.493C27.3497 20.3618 27.3497 19.2306 27.4788 18.0994C27.608 17.1738 27.8664 16.2483 28.0601 15.3228C28.5123 13.1632 28.5768 10.7979 28.2539 8.53552C28.1893 8.7412 28.1247 8.84403 28.1247 8.94687" stroke="#4A326F" stroke-width="0.5" stroke-miterlimit="10" stroke-linecap="round" stroke-linejoin="round"/>
<path d="M31.4833 31.8795C31.5479 40.4149 29.4811 49.0532 30.902 57.2802C31.2895 57.0745 31.4187 56.2518 31.4187 55.5319C31.4187 51.2128 31.4187 46.8936 31.4187 42.5745" stroke="#4A326F" stroke-width="0.5" stroke-miterlimit="10" stroke-linecap="round" stroke-linejoin="round"/>
</svg>
