<svg width="49" height="59" viewBox="0 0 49 59" fill="none" xmlns="http://www.w3.org/2000/svg">
<g clip-path="url(#clip0)">
<path d="M24.4454 0.934082C10.9131 0.934082 0 11.2178 0 23.9695V58.8312H49V23.9695C49 11.2178 37.9777 0.934082 24.4454 0.934082Z" fill="#AC8BF7"/>
<path fill-rule="evenodd" clip-rule="evenodd" d="M17.6793 30.4482C17.5702 30.3454 17.7884 30.1397 17.6793 30.0369C18.0067 30.1397 18.3341 30.1397 18.5524 30.3454C18.3341 30.6539 18.0067 30.1397 17.6793 30.4482Z" fill="#7351AC"/>
<path fill-rule="evenodd" clip-rule="evenodd" d="M28.265 38.3666C28.1559 38.2638 28.265 38.1609 28.1559 38.0581C28.4833 37.9553 28.7016 38.4695 28.265 38.3666Z" fill="#7351AC"/>
<path fill-rule="evenodd" clip-rule="evenodd" d="M26.8463 35.0757C26.1915 35.2814 27.0646 34.6644 26.8463 35.0757V35.0757Z" fill="#7351AC"/>
<path fill-rule="evenodd" clip-rule="evenodd" d="M23.5724 30.1397C23.4633 30.1397 23.4633 30.2426 23.5724 30.1397C22.8085 29.8312 24.5546 30.0369 23.5724 30.1397Z" fill="#7351AC"/>
<path fill-rule="evenodd" clip-rule="evenodd" d="M23.3541 29.6255C23.245 29.7284 23.0268 29.5227 23.1359 29.4199C23.3541 29.317 23.245 29.5227 23.3541 29.6255Z" fill="#7351AC"/>
<path fill-rule="evenodd" clip-rule="evenodd" d="M28.1559 32.9162C27.6103 32.8134 28.7016 32.8134 28.1559 32.9162V32.9162Z" fill="#7351AC"/>
<path fill-rule="evenodd" clip-rule="evenodd" d="M23.5724 28.7001C22.9176 28.8029 23.7906 28.2888 23.5724 28.7001V28.7001Z" fill="#7351AC"/>
<path fill-rule="evenodd" clip-rule="evenodd" d="M32.5212 36.5159C31.9755 36.7215 32.6303 35.8988 32.5212 36.5159V36.5159Z" fill="#7351AC"/>
<path fill-rule="evenodd" clip-rule="evenodd" d="M27.8285 31.8879C27.2828 31.7851 28.3742 31.7851 27.8285 31.8879V31.8879Z" fill="#7351AC"/>
<path fill-rule="evenodd" clip-rule="evenodd" d="M35.1403 38.0582C35.0312 38.161 34.8129 37.9553 34.922 37.8525C35.1403 37.7497 35.0312 37.9553 35.1403 38.0582Z" fill="#7351AC"/>
<path fill-rule="evenodd" clip-rule="evenodd" d="M32.1938 35.2818C32.0846 35.3846 31.8664 35.179 31.9755 35.0761C32.1938 34.9733 32.0846 35.179 32.1938 35.2818Z" fill="#7351AC"/>
<path fill-rule="evenodd" clip-rule="evenodd" d="M38.7417 40.8347C38.6325 40.7318 38.6325 40.7318 38.5234 40.629C38.6325 40.5262 38.6325 40.5262 38.7417 40.4233C38.8508 40.5262 38.8508 40.5262 38.9599 40.629C38.8508 40.629 38.8508 40.7318 38.7417 40.8347Z" fill="#7351AC"/>
<path fill-rule="evenodd" clip-rule="evenodd" d="M23.5724 26.6433C23.4633 26.4377 23.4633 26.3348 23.6815 26.1292C23.7906 26.232 23.7906 26.4377 23.5724 26.6433Z" fill="#7351AC"/>
<path fill-rule="evenodd" clip-rule="evenodd" d="M28.2651 29.9341C27.6103 29.8312 28.8107 29.8312 28.2651 29.9341V29.9341Z" fill="#7351AC"/>
<path fill-rule="evenodd" clip-rule="evenodd" d="M26.7372 27.7745C26.6281 27.8774 26.4098 27.6717 26.3007 27.5688C26.519 27.5688 26.6281 27.6717 26.7372 27.7745Z" fill="#7351AC"/>
<path fill-rule="evenodd" clip-rule="evenodd" d="M41.0334 40.7319C40.4877 40.9376 41.1425 40.1149 41.0334 40.7319V40.7319Z" fill="#7351AC"/>
<path fill-rule="evenodd" clip-rule="evenodd" d="M36.2316 34.2532C35.5769 34.4589 36.4499 33.8419 36.2316 34.2532V34.2532Z" fill="#7351AC"/>
<path fill-rule="evenodd" clip-rule="evenodd" d="M45.0713 41.6576C44.9621 41.7604 44.7439 41.5547 44.853 41.4519C45.0713 41.4519 44.9621 41.5547 45.0713 41.6576Z" fill="#7351AC"/>
<path fill-rule="evenodd" clip-rule="evenodd" d="M24.5546 22.3242C24.118 22.5299 24.6637 21.7072 24.5546 22.3242V22.3242Z" fill="#7351AC"/>
<path fill-rule="evenodd" clip-rule="evenodd" d="M28.1559 25.5122C27.6103 25.4094 28.8107 25.4094 28.1559 25.5122V25.5122Z" fill="#7351AC"/>
<path fill-rule="evenodd" clip-rule="evenodd" d="M36.7773 33.2248C36.1225 33.122 37.323 33.122 36.7773 33.2248V33.2248Z" fill="#7351AC"/>
<path fill-rule="evenodd" clip-rule="evenodd" d="M44.7439 40.2177C44.5256 40.3205 44.5256 40.012 44.4165 39.9092C44.7439 39.9092 44.6347 40.1149 44.7439 40.2177Z" fill="#7351AC"/>
<path fill-rule="evenodd" clip-rule="evenodd" d="M26.1916 23.147C26.0824 22.9413 26.0824 22.8385 26.3007 22.6328C26.4098 22.7356 26.4098 22.9413 26.1916 23.147Z" fill="#7351AC"/>
<path fill-rule="evenodd" clip-rule="evenodd" d="M25.755 22.5298C25.6459 22.6327 25.4276 22.427 25.5368 22.3242C25.755 22.2213 25.6459 22.427 25.755 22.5298Z" fill="#7351AC"/>
<path fill-rule="evenodd" clip-rule="evenodd" d="M44.7439 39.4979C44.6348 39.6007 44.4165 39.395 44.5256 39.2922C44.7439 39.1893 44.6348 39.395 44.7439 39.4979Z" fill="#7351AC"/>
<path fill-rule="evenodd" clip-rule="evenodd" d="M22.5902 17.2852C21.9354 17.388 22.8085 16.771 22.5902 17.2852V17.2852Z" fill="#7351AC"/>
<path fill-rule="evenodd" clip-rule="evenodd" d="M20.9533 15.3314C20.9533 15.3314 20.5167 15.3314 20.5167 15.1257C20.5167 15.0228 21.1715 15.2285 20.9533 15.3314Z" fill="#7351AC"/>
<path fill-rule="evenodd" clip-rule="evenodd" d="M40.4877 32.2992C39.833 32.402 40.706 31.8879 40.4877 32.2992V32.2992Z" fill="#7351AC"/>
<path fill-rule="evenodd" clip-rule="evenodd" d="M34.7038 26.4377C34.1581 26.3349 35.3586 26.3349 34.7038 26.4377V26.4377Z" fill="#7351AC"/>
<path fill-rule="evenodd" clip-rule="evenodd" d="M37.4321 26.1291C36.8864 26.0263 38.0869 26.0263 37.4321 26.1291V26.1291Z" fill="#7351AC"/>
<path fill-rule="evenodd" clip-rule="evenodd" d="M44.7439 32.608C44.6348 32.7109 44.4165 32.5052 44.5256 32.4023C44.7439 32.4023 44.6348 32.5052 44.7439 32.608Z" fill="#7351AC"/>
<path fill-rule="evenodd" clip-rule="evenodd" d="M28.1559 17.0797C28.0468 17.1825 27.8285 16.9769 27.7194 16.874C27.9376 16.874 28.0468 16.9769 28.1559 17.0797Z" fill="#7351AC"/>
<path fill-rule="evenodd" clip-rule="evenodd" d="M37.1047 24.5867C36.7773 24.7924 36.6682 24.1753 36.9956 24.0725C36.9956 24.1753 36.8864 24.381 37.1047 24.5867Z" fill="#7351AC"/>
<path fill-rule="evenodd" clip-rule="evenodd" d="M36.559 24.0723C36.0134 24.2779 36.6682 23.4552 36.559 24.0723V24.0723Z" fill="#7351AC"/>
<path fill-rule="evenodd" clip-rule="evenodd" d="M28.9198 16.9767C28.8107 16.7711 29.1381 16.7711 29.2472 16.6682C29.3563 16.9767 29.029 16.8739 28.9198 16.9767Z" fill="#7351AC"/>
<path fill-rule="evenodd" clip-rule="evenodd" d="M28.5924 16.154C27.9376 16.2568 28.8107 15.7426 28.5924 16.154V16.154Z" fill="#7351AC"/>
<path fill-rule="evenodd" clip-rule="evenodd" d="M26.9555 14.2C26.3007 14.4057 27.1737 13.7887 26.9555 14.2V14.2Z" fill="#7351AC"/>
<path fill-rule="evenodd" clip-rule="evenodd" d="M35.686 21.6043C35.5769 21.7071 35.3586 21.5015 35.4677 21.3986C35.686 21.2958 35.5769 21.5015 35.686 21.6043Z" fill="#7351AC"/>
<path fill-rule="evenodd" clip-rule="evenodd" d="M25.2094 11.629C25.1002 11.7318 24.882 11.5262 24.9911 11.4233C25.2094 11.4233 25.1002 11.5262 25.2094 11.629Z" fill="#7351AC"/>
<path fill-rule="evenodd" clip-rule="evenodd" d="M32.0846 17.2851C31.539 17.4908 32.1938 16.6681 32.0846 17.2851V17.2851Z" fill="#7351AC"/>
<path fill-rule="evenodd" clip-rule="evenodd" d="M29.6837 14.7142C29.029 14.817 29.902 14.2 29.6837 14.7142V14.7142Z" fill="#7351AC"/>
<path fill-rule="evenodd" clip-rule="evenodd" d="M42.2339 25.9236C41.6882 25.8207 42.8887 25.8207 42.2339 25.9236V25.9236Z" fill="#7351AC"/>
<path fill-rule="evenodd" clip-rule="evenodd" d="M30.7751 15.2283C30.1203 15.2283 31.3207 15.1255 30.7751 15.2283V15.2283Z" fill="#7351AC"/>
<path fill-rule="evenodd" clip-rule="evenodd" d="M43.6526 25.9233C43.4343 26.129 43.3252 25.6148 43.216 25.512C43.6526 25.3063 43.4343 25.8205 43.6526 25.9233Z" fill="#7351AC"/>
<path fill-rule="evenodd" clip-rule="evenodd" d="M43.3252 25.3065C43.2161 25.4093 42.9978 25.2037 43.1069 25.1008C43.3252 25.1008 43.2161 25.3065 43.3252 25.3065Z" fill="#7351AC"/>
<path fill-rule="evenodd" clip-rule="evenodd" d="M34.9221 17.5936C34.3764 17.5936 35.5768 17.4907 34.9221 17.5936V17.5936Z" fill="#7351AC"/>
<path fill-rule="evenodd" clip-rule="evenodd" d="M34.4855 16.6682C33.9399 16.5654 35.1403 16.5654 34.4855 16.6682V16.6682Z" fill="#7351AC"/>
<path fill-rule="evenodd" clip-rule="evenodd" d="M33.3942 15.6399C33.2851 15.7428 33.0668 15.5371 32.9577 15.4343C33.0668 15.3314 33.2851 15.5371 33.3942 15.6399Z" fill="#7351AC"/>
<path fill-rule="evenodd" clip-rule="evenodd" d="M40.1603 21.1929C40.0512 21.2958 39.8329 21.0901 39.7238 20.9873C39.9421 20.8844 40.0512 21.0901 40.1603 21.1929Z" fill="#7351AC"/>
<path fill-rule="evenodd" clip-rule="evenodd" d="M36.6681 17.9022C36.559 18.005 36.3408 17.7993 36.2316 17.6965C36.4499 17.5936 36.559 17.7993 36.6681 17.9022Z" fill="#7351AC"/>
<path fill-rule="evenodd" clip-rule="evenodd" d="M41.0334 21.5015C40.9243 21.6044 40.706 21.3987 40.5969 21.2958C40.706 21.193 40.8152 21.3987 41.0334 21.5015Z" fill="#7351AC"/>
<path fill-rule="evenodd" clip-rule="evenodd" d="M37.5412 18.3135C36.9956 18.5191 37.6503 17.6964 37.5412 18.3135V18.3135Z" fill="#7351AC"/>
<path fill-rule="evenodd" clip-rule="evenodd" d="M32.8486 13.3774C32.7394 13.1717 33.0668 13.1717 33.176 13.0688C33.2851 13.3774 32.9577 13.2745 32.8486 13.3774Z" fill="#7351AC"/>
<path fill-rule="evenodd" clip-rule="evenodd" d="M45.1804 24.4836C44.7439 24.6893 45.3987 23.8666 45.1804 24.4836V24.4836Z" fill="#7351AC"/>
<path fill-rule="evenodd" clip-rule="evenodd" d="M32.5212 12.9661C32.412 12.7604 32.412 12.6576 32.6303 12.4519C32.7394 12.6576 32.7394 12.7604 32.5212 12.9661Z" fill="#7351AC"/>
<path fill-rule="evenodd" clip-rule="evenodd" d="M34.2673 13.9944C33.8307 14.2 34.3764 13.3774 34.2673 13.9944V13.9944Z" fill="#7351AC"/>
<path fill-rule="evenodd" clip-rule="evenodd" d="M40.1604 18.8276C39.7238 19.0333 40.2695 18.2106 40.1604 18.8276V18.8276Z" fill="#7351AC"/>
<path fill-rule="evenodd" clip-rule="evenodd" d="M42.7795 20.8844C42.5612 20.9873 42.5612 20.6788 42.4521 20.5759C42.7795 20.5759 42.7795 20.7816 42.7795 20.8844Z" fill="#7351AC"/>
<path fill-rule="evenodd" clip-rule="evenodd" d="M36.6681 15.0229C36.0134 15.1257 36.7773 14.6115 36.6681 15.0229V15.0229Z" fill="#7351AC"/>
<path fill-rule="evenodd" clip-rule="evenodd" d="M35.5768 14.3029C35.4677 14.0972 35.7951 14.0972 35.9042 13.9944C36.0134 14.2001 35.7951 14.2001 35.5768 14.3029Z" fill="#7351AC"/>
<path fill-rule="evenodd" clip-rule="evenodd" d="M30.7751 9.36672C30.6659 9.16105 30.6659 9.05821 30.8842 8.85254C30.9933 9.05821 30.9933 9.26389 30.7751 9.36672Z" fill="#7351AC"/>
<path fill-rule="evenodd" clip-rule="evenodd" d="M44.9622 22.3241C44.853 22.1184 44.853 21.9127 45.1804 21.707C45.2896 22.0155 45.1804 22.1184 44.9622 22.3241Z" fill="#7351AC"/>
<path fill-rule="evenodd" clip-rule="evenodd" d="M39.5056 17.0794C39.5056 17.0794 39.3964 17.1823 39.5056 17.0794C38.8508 16.8738 40.5969 17.0794 39.5056 17.0794Z" fill="#7351AC"/>
<path fill-rule="evenodd" clip-rule="evenodd" d="M33.1759 11.2178C33.0668 11.3207 32.8486 11.115 32.9577 11.0122C33.0668 10.9093 32.9577 11.115 33.1759 11.2178Z" fill="#7351AC"/>
<path fill-rule="evenodd" clip-rule="evenodd" d="M45.6169 22.7356C45.3987 22.5299 45.2895 22.4271 45.5078 22.2214C45.6169 22.3243 45.7261 22.4271 45.8352 22.5299C45.7261 22.6328 45.7261 22.6328 45.6169 22.7356Z" fill="#7351AC"/>
<path fill-rule="evenodd" clip-rule="evenodd" d="M31.539 9.57232C31.4299 9.67516 31.2116 9.46949 31.1025 9.36665C31.3207 9.26381 31.4299 9.46949 31.539 9.57232Z" fill="#7351AC"/>
<path fill-rule="evenodd" clip-rule="evenodd" d="M33.7216 11.0123C33.6125 11.1151 33.3942 10.9094 33.5033 10.8066C33.7216 10.7038 33.6125 10.9094 33.7216 11.0123Z" fill="#7351AC"/>
<path fill-rule="evenodd" clip-rule="evenodd" d="M40.5969 16.6682C40.0512 16.8739 40.706 16.0512 40.5969 16.6682V16.6682Z" fill="#7351AC"/>
<path fill-rule="evenodd" clip-rule="evenodd" d="M40.9243 15.9485C40.4877 16.1541 41.0334 15.3315 40.9243 15.9485V15.9485Z" fill="#7351AC"/>
<path fill-rule="evenodd" clip-rule="evenodd" d="M43.8708 17.6965C43.6526 17.7993 43.5435 17.4908 43.3252 17.388C43.4343 17.2852 43.5435 17.388 43.6526 17.4908C43.7617 17.388 43.7617 17.388 43.6526 17.2852C44.0891 17.0795 43.6526 17.5937 43.8708 17.6965Z" fill="#7351AC"/>
<path fill-rule="evenodd" clip-rule="evenodd" d="M40.1604 12.7603C40.0512 12.8631 39.833 12.6575 39.9421 12.5546C40.1604 12.4518 40.0512 12.6575 40.1604 12.7603Z" fill="#7351AC"/>
<path fill-rule="evenodd" clip-rule="evenodd" d="M45.1804 12.6575C44.7439 12.8631 45.2896 12.0404 45.1804 12.6575V12.6575Z" fill="#7351AC"/>
<path fill-rule="evenodd" clip-rule="evenodd" d="M24.3363 34.6645C24.0089 34.8702 24.3363 34.356 24.118 34.2532C24.5546 34.0475 24.118 34.5617 24.3363 34.6645Z" fill="#7351AC"/>
<path fill-rule="evenodd" clip-rule="evenodd" d="M30.4477 37.5441C30.3386 37.1327 31.1025 37.4412 31.1025 36.8242C31.2116 37.0299 31.1025 37.1327 31.2116 37.3384C30.9933 37.2356 30.6659 37.4412 30.4477 37.5441Z" fill="#7351AC"/>
<path fill-rule="evenodd" clip-rule="evenodd" d="M26.1916 32.6078C26.1916 33.0191 26.1916 32.1964 26.1916 31.9908C26.7372 31.8879 26.1916 32.5049 26.1916 32.6078Z" fill="#7351AC"/>
<path fill-rule="evenodd" clip-rule="evenodd" d="M37.4321 40.1149C36.9956 39.9092 37.6503 39.0866 37.4321 40.1149V40.1149Z" fill="#7351AC"/>
<path fill-rule="evenodd" clip-rule="evenodd" d="M23.8998 26.1291C23.7906 25.6149 24.4454 26.0262 24.6637 25.8206C24.7728 26.2319 24.118 25.8206 23.8998 26.1291Z" fill="#7351AC"/>
<path fill-rule="evenodd" clip-rule="evenodd" d="M40.9243 39.9093C40.9243 39.9093 40.4878 39.9093 40.4878 39.7036C40.4878 39.6008 41.5791 39.9093 40.9243 39.9093Z" fill="#7351AC"/>
<path fill-rule="evenodd" clip-rule="evenodd" d="M35.4677 34.8704C35.0312 35.1789 35.4677 34.3562 35.686 34.6647C36.0134 34.5619 35.5769 34.6647 35.4677 34.8704Z" fill="#7351AC"/>
<path fill-rule="evenodd" clip-rule="evenodd" d="M43.7617 40.1149C43.6526 40.2177 43.6526 40.2177 43.7617 40.3205C43.216 40.4234 43.6526 40.012 43.98 39.9092C44.0891 40.012 44.0891 40.012 44.1982 40.1149C44.0891 40.2177 44.0891 40.2177 44.1982 40.3205C43.98 40.3205 43.8708 40.2177 43.7617 40.1149Z" fill="#7351AC"/>
<path fill-rule="evenodd" clip-rule="evenodd" d="M24.7728 17.2851C24.882 17.6964 24.4454 17.1822 24.882 16.9766C25.2094 16.8737 24.9911 17.0794 24.7728 17.2851Z" fill="#7351AC"/>
<path fill-rule="evenodd" clip-rule="evenodd" d="M29.902 19.9588C29.6838 19.6503 30.2294 19.9588 30.3385 19.7532C30.5568 20.1645 29.902 19.856 29.902 19.9588Z" fill="#7351AC"/>
<path fill-rule="evenodd" clip-rule="evenodd" d="M25.3185 13.8916C24.882 14.2002 25.3185 13.3775 25.5368 13.686C25.8642 13.5831 25.4276 13.686 25.3185 13.8916Z" fill="#7351AC"/>
<path fill-rule="evenodd" clip-rule="evenodd" d="M25.6459 13.3773C25.4276 13.583 25.5367 12.966 25.3185 12.8631C25.6459 12.7603 25.4276 13.2745 25.6459 13.3773Z" fill="#7351AC"/>
<path fill-rule="evenodd" clip-rule="evenodd" d="M31.6481 15.1256C31.539 14.92 31.8664 15.0228 31.9755 14.8171C31.9755 14.92 32.0846 15.1256 32.1938 15.0228C32.412 15.6398 31.7573 15.0228 31.6481 15.1256Z" fill="#7351AC"/>
<path fill-rule="evenodd" clip-rule="evenodd" d="M37.3229 14.2C37.1047 14.0972 37.7595 13.7887 37.8686 14.0972C37.6503 14.3029 37.5412 13.9944 37.3229 14.2Z" fill="#7351AC"/>
<path fill-rule="evenodd" clip-rule="evenodd" d="M44.7439 20.7816C44.4165 20.3702 45.1804 20.5759 44.9622 20.1646C45.1804 20.1646 45.1804 21.0901 44.7439 20.7816Z" fill="#7351AC"/>
<path fill-rule="evenodd" clip-rule="evenodd" d="M46.7082 39.1892C46.7082 39.292 46.5991 39.292 46.5991 39.4977C46.2717 39.3948 46.49 38.8806 46.7082 39.1892Z" fill="#7351AC"/>
<path fill-rule="evenodd" clip-rule="evenodd" d="M45.5078 42.583C46.0535 42.8915 45.0713 42.7887 45.5078 42.583V42.583Z" fill="#7351AC"/>
<path fill-rule="evenodd" clip-rule="evenodd" d="M44.4165 48.3419H44.5256C44.7439 48.959 43.6526 47.7249 44.4165 48.3419Z" fill="#7351AC"/>
<path fill-rule="evenodd" clip-rule="evenodd" d="M44.1982 48.959C44.4165 48.959 44.4165 49.2675 44.1982 49.2675C43.98 49.1647 44.1982 49.0618 44.1982 48.959Z" fill="#7351AC"/>
<path fill-rule="evenodd" clip-rule="evenodd" d="M42.8887 43.4057C43.3252 43.8171 42.4521 43.0972 42.8887 43.4057V43.4057Z" fill="#7351AC"/>
<path fill-rule="evenodd" clip-rule="evenodd" d="M43.3252 49.3701C43.98 49.6786 42.8887 49.5758 43.3252 49.3701V49.3701Z" fill="#7351AC"/>
<path fill-rule="evenodd" clip-rule="evenodd" d="M42.2339 37.9553C42.7795 38.161 41.6882 38.3667 42.2339 37.9553V37.9553Z" fill="#7351AC"/>
<path fill-rule="evenodd" clip-rule="evenodd" d="M42.4521 44.4341C42.7795 44.8454 41.9065 44.1255 42.4521 44.4341V44.4341Z" fill="#7351AC"/>
<path fill-rule="evenodd" clip-rule="evenodd" d="M41.3608 35.1787C41.5791 35.1787 41.5791 35.4872 41.3608 35.4872C41.1425 35.3844 41.3608 35.3844 41.3608 35.1787Z" fill="#7351AC"/>
<path fill-rule="evenodd" clip-rule="evenodd" d="M41.5791 39.0864C41.7973 39.0864 41.7973 39.3949 41.5791 39.3949C41.4699 39.3949 41.6882 39.2921 41.5791 39.0864Z" fill="#7351AC"/>
<path fill-rule="evenodd" clip-rule="evenodd" d="M40.5969 30.8596C40.5969 30.9625 40.5969 31.0653 40.5969 31.1681C40.4878 31.1681 40.3786 31.1681 40.2695 31.1681C40.2695 31.0653 40.2695 30.9625 40.2695 30.8596C40.3786 30.8596 40.4878 30.8596 40.5969 30.8596Z" fill="#7351AC"/>
<path fill-rule="evenodd" clip-rule="evenodd" d="M41.9065 51.0156C41.9065 51.2213 41.6882 51.3241 41.4699 51.3241C41.5791 51.1185 41.6882 51.0156 41.9065 51.0156Z" fill="#7351AC"/>
<path fill-rule="evenodd" clip-rule="evenodd" d="M40.8151 45.5652C41.1425 45.9765 40.2695 45.2566 40.8151 45.5652V45.5652Z" fill="#7351AC"/>
<path fill-rule="evenodd" clip-rule="evenodd" d="M40.3786 48.0332C40.5969 48.0332 40.4878 48.2389 40.5969 48.4446C40.3786 48.4446 40.3786 48.2389 40.3786 48.0332Z" fill="#7351AC"/>
<path fill-rule="evenodd" clip-rule="evenodd" d="M38.9599 29.5227C39.3965 29.6255 38.4143 29.8312 38.9599 29.5227V29.5227Z" fill="#7351AC"/>
<path fill-rule="evenodd" clip-rule="evenodd" d="M37.8686 37.3381C38.4143 37.6466 37.4321 37.5438 37.8686 37.3381V37.3381Z" fill="#7351AC"/>
<path fill-rule="evenodd" clip-rule="evenodd" d="M36.559 26.2319C36.7773 26.2319 36.7773 26.5404 36.559 26.5404C36.3408 26.4376 36.559 26.3348 36.559 26.2319Z" fill="#7351AC"/>
<path fill-rule="evenodd" clip-rule="evenodd" d="M38.196 53.4836C38.6325 53.6893 37.6503 53.895 38.196 53.4836V53.4836Z" fill="#7351AC"/>
<path fill-rule="evenodd" clip-rule="evenodd" d="M37.6503 48.9587C38.0869 49.3701 37.2138 48.6502 37.6503 48.9587V48.9587Z" fill="#7351AC"/>
<path fill-rule="evenodd" clip-rule="evenodd" d="M36.7773 37.7497C37.1047 38.2639 36.2317 37.544 36.7773 37.7497V37.7497Z" fill="#7351AC"/>
<path fill-rule="evenodd" clip-rule="evenodd" d="M35.686 27.4658C35.9042 27.5687 35.686 27.6715 35.686 27.8772C35.4677 27.7743 35.686 27.6715 35.686 27.4658Z" fill="#7351AC"/>
<path fill-rule="evenodd" clip-rule="evenodd" d="M37.4321 51.9412C37.4321 52.1468 37.2138 52.2497 36.9956 52.2497C37.1047 52.044 37.2138 51.9412 37.4321 51.9412Z" fill="#7351AC"/>
<path fill-rule="evenodd" clip-rule="evenodd" d="M37.3229 52.6609C37.5412 52.6609 37.5412 52.9694 37.3229 52.9694C37.2138 52.8666 37.4321 52.7637 37.3229 52.6609Z" fill="#7351AC"/>
<path fill-rule="evenodd" clip-rule="evenodd" d="M35.2494 28.083C35.4677 28.083 35.4677 28.3915 35.2494 28.3915C35.0312 28.2887 35.2494 28.1858 35.2494 28.083Z" fill="#7351AC"/>
<path fill-rule="evenodd" clip-rule="evenodd" d="M33.2851 36.1042C33.9399 36.4128 32.8485 36.3099 33.2851 36.1042V36.1042Z" fill="#7351AC"/>
<path fill-rule="evenodd" clip-rule="evenodd" d="M33.3942 44.1255C33.8308 44.5368 32.9577 43.8169 33.3942 44.1255V44.1255Z" fill="#7351AC"/>
<path fill-rule="evenodd" clip-rule="evenodd" d="M30.2294 27.2603C30.2294 27.4659 30.0111 27.5688 29.7929 27.5688C29.902 27.4659 30.0111 27.2603 30.2294 27.2603Z" fill="#7351AC"/>
<path fill-rule="evenodd" clip-rule="evenodd" d="M31.2116 42.6858C31.539 43.0971 30.6659 42.3772 31.2116 42.6858V42.6858Z" fill="#7351AC"/>
<path fill-rule="evenodd" clip-rule="evenodd" d="M30.1203 29.317C29.4655 29.0085 30.4477 28.9056 30.1203 29.317V29.317Z" fill="#7351AC"/>
<path fill-rule="evenodd" clip-rule="evenodd" d="M30.3385 33.1218C30.5568 33.1218 30.5568 33.4303 30.3385 33.4303C30.1203 33.3275 30.3385 33.3275 30.3385 33.1218Z" fill="#7351AC"/>
<path fill-rule="evenodd" clip-rule="evenodd" d="M31.7573 55.1292C31.9755 55.1292 31.8664 55.3348 31.9755 55.5405C31.7573 55.5405 31.7573 55.3348 31.7573 55.1292Z" fill="#7351AC"/>
<path fill-rule="evenodd" clip-rule="evenodd" d="M29.5746 26.5403C30.1203 26.8488 29.1381 26.746 29.5746 26.5403V26.5403Z" fill="#7351AC"/>
<path fill-rule="evenodd" clip-rule="evenodd" d="M30.4477 44.0227C30.775 44.0227 30.4477 44.5369 30.2294 44.4341C30.2294 44.3312 30.3385 44.2284 30.4477 44.0227Z" fill="#7351AC"/>
<path fill-rule="evenodd" clip-rule="evenodd" d="M30.4477 44.7424C30.8842 44.9481 29.902 45.1538 30.4477 44.7424V44.7424Z" fill="#7351AC"/>
<path fill-rule="evenodd" clip-rule="evenodd" d="M31.2116 54.8205C31.1025 55.0261 30.9933 54.8205 30.7751 54.8205C30.7751 54.512 30.9933 54.8205 31.2116 54.8205Z" fill="#7351AC"/>
<path fill-rule="evenodd" clip-rule="evenodd" d="M30.7751 55.6433C31.3207 55.9518 30.3385 55.849 30.7751 55.6433V55.6433Z" fill="#7351AC"/>
<path fill-rule="evenodd" clip-rule="evenodd" d="M28.5924 30.9624C29.1381 31.2709 27.8285 31.2709 28.5924 30.9624V30.9624Z" fill="#7351AC"/>
<path fill-rule="evenodd" clip-rule="evenodd" d="M29.3563 47.1077C29.5746 47.1077 29.5746 47.4162 29.3563 47.4162C29.1381 47.3133 29.3563 47.3133 29.3563 47.1077Z" fill="#7351AC"/>
<path fill-rule="evenodd" clip-rule="evenodd" d="M29.029 52.5581C29.4655 52.7638 28.4833 52.9695 29.029 52.5581V52.5581Z" fill="#7351AC"/>
<path fill-rule="evenodd" clip-rule="evenodd" d="M28.9198 56.0547C29.4655 56.3632 28.4833 56.2604 28.9198 56.0547V56.0547Z" fill="#7351AC"/>
<path fill-rule="evenodd" clip-rule="evenodd" d="M26.6281 25.6149C26.0824 25.3063 26.9555 24.895 26.6281 25.6149V25.6149Z" fill="#7351AC"/>
<path fill-rule="evenodd" clip-rule="evenodd" d="M26.9555 28.0831C26.519 28.5973 26.4098 27.6717 26.9555 28.0831V28.0831Z" fill="#7351AC"/>
<path fill-rule="evenodd" clip-rule="evenodd" d="M27.5011 39.7035C27.8285 40.2177 26.9555 39.395 27.5011 39.7035V39.7035Z" fill="#7351AC"/>
<path fill-rule="evenodd" clip-rule="evenodd" d="M28.5925 54.9236C28.9198 55.3349 28.0468 54.615 28.5925 54.9236V54.9236Z" fill="#7351AC"/>
<path fill-rule="evenodd" clip-rule="evenodd" d="M26.4098 38.8809C26.7372 38.8809 26.5189 39.2922 26.4098 39.3951C25.9733 39.2922 26.5189 39.0865 26.4098 38.8809Z" fill="#7351AC"/>
<path fill-rule="evenodd" clip-rule="evenodd" d="M26.3007 39.4978C26.5189 39.4978 26.5189 39.8063 26.3007 39.8063C26.0824 39.8063 26.3007 39.7035 26.3007 39.4978Z" fill="#7351AC"/>
<path fill-rule="evenodd" clip-rule="evenodd" d="M27.0646 50.5013C27.5011 51.0155 26.6281 50.1928 27.0646 50.5013V50.5013Z" fill="#7351AC"/>
<path fill-rule="evenodd" clip-rule="evenodd" d="M26.7372 51.5298C27.0646 51.9411 26.1915 51.2212 26.7372 51.5298V51.5298Z" fill="#7351AC"/>
<path fill-rule="evenodd" clip-rule="evenodd" d="M26.8463 52.9695C27.0646 52.9695 26.9555 53.1752 27.0646 53.3808C26.8463 53.3808 26.8463 53.1752 26.8463 52.9695Z" fill="#7351AC"/>
<path fill-rule="evenodd" clip-rule="evenodd" d="M25.6459 44.6396C25.8642 44.6396 25.755 44.8453 25.8642 45.051C25.6459 45.051 25.6459 44.7425 25.6459 44.6396Z" fill="#7351AC"/>
<path fill-rule="evenodd" clip-rule="evenodd" d="M25.9733 49.2673C26.1916 49.2673 26.0824 49.473 26.1916 49.6787C25.9733 49.6787 25.9733 49.3702 25.9733 49.2673Z" fill="#7351AC"/>
<path fill-rule="evenodd" clip-rule="evenodd" d="M25.3185 43.8171C25.5367 43.8171 25.4276 44.0228 25.5367 44.2285C25.3185 44.2285 25.3185 44.0228 25.3185 43.8171Z" fill="#7351AC"/>
<path fill-rule="evenodd" clip-rule="evenodd" d="M25.6459 48.4446C26.0824 48.6502 25.1002 48.8559 25.6459 48.4446V48.4446Z" fill="#7351AC"/>
<path fill-rule="evenodd" clip-rule="evenodd" d="M25.6459 55.0262C25.5367 55.2319 25.4276 55.0262 25.2094 55.0262C25.3185 54.8205 25.5367 55.0262 25.6459 55.0262Z" fill="#7351AC"/>
<path fill-rule="evenodd" clip-rule="evenodd" d="M24.2272 38.9836C24.7728 39.1893 23.6815 39.395 24.2272 38.9836V38.9836Z" fill="#7351AC"/>
<path fill-rule="evenodd" clip-rule="evenodd" d="M25.5367 55.5403C25.5367 55.746 25.3185 55.8488 25.1002 55.8488C25.2094 55.6431 25.3185 55.5403 25.5367 55.5403Z" fill="#7351AC"/>
<path fill-rule="evenodd" clip-rule="evenodd" d="M23.5724 31.2708C23.5724 31.4764 23.3541 31.5793 23.0267 31.5793C23.1359 31.3736 23.245 31.2708 23.5724 31.2708Z" fill="#7351AC"/>
<path fill-rule="evenodd" clip-rule="evenodd" d="M24.9911 53.6895C25.5368 53.7923 24.4454 53.998 24.9911 53.6895V53.6895Z" fill="#7351AC"/>
<path fill-rule="evenodd" clip-rule="evenodd" d="M24.0089 46.3879C24.5546 46.4908 23.4633 46.6964 24.0089 46.3879V46.3879Z" fill="#7351AC"/>
<path fill-rule="evenodd" clip-rule="evenodd" d="M22.4811 26.1289C22.6993 26.1289 22.5902 26.3346 22.6993 26.5403C22.4811 26.5403 22.4811 26.3346 22.4811 26.1289Z" fill="#7351AC"/>
<path fill-rule="evenodd" clip-rule="evenodd" d="M23.5724 43.0972C23.7907 43.2 23.5724 43.3028 23.5724 43.5085C23.245 43.4057 23.5724 43.3028 23.5724 43.0972Z" fill="#7351AC"/>
<path fill-rule="evenodd" clip-rule="evenodd" d="M24.0089 51.427C24.5546 51.7355 23.4633 51.6327 24.0089 51.427V51.427Z" fill="#7351AC"/>
<path fill-rule="evenodd" clip-rule="evenodd" d="M24.2272 52.661C24.118 52.8666 24.0089 52.661 23.7906 52.661C23.8998 52.4553 24.0089 52.661 24.2272 52.661Z" fill="#7351AC"/>
<path fill-rule="evenodd" clip-rule="evenodd" d="M22.9176 40.7319C22.9176 40.9376 22.6993 41.0404 22.3719 41.0404C22.4811 40.8348 22.6993 40.7319 22.9176 40.7319Z" fill="#7351AC"/>
<path fill-rule="evenodd" clip-rule="evenodd" d="M23.3541 48.0333H23.4633C23.5724 48.6503 22.4811 47.4163 23.3541 48.0333Z" fill="#7351AC"/>
<path fill-rule="evenodd" clip-rule="evenodd" d="M23.8998 56.4661C24.118 56.4661 24.118 56.7746 23.8998 56.7746C23.6815 56.6717 23.8998 56.5689 23.8998 56.4661Z" fill="#7351AC"/>
<path fill-rule="evenodd" clip-rule="evenodd" d="M22.6993 40.0122C22.8085 40.3207 22.6993 40.4235 22.4811 40.4235C22.4811 40.3207 22.4811 40.115 22.4811 40.0122C22.5902 40.0122 22.5902 40.0122 22.6993 40.0122Z" fill="#7351AC"/>
<path fill-rule="evenodd" clip-rule="evenodd" d="M23.3541 56.2603C23.5724 56.2603 23.5724 56.5688 23.3541 56.5688C23.1359 56.4659 23.3541 56.3631 23.3541 56.2603Z" fill="#7351AC"/>
<path fill-rule="evenodd" clip-rule="evenodd" d="M22.2628 47.7249C22.6993 47.8277 21.7172 48.0334 22.2628 47.7249V47.7249Z" fill="#7351AC"/>
<path fill-rule="evenodd" clip-rule="evenodd" d="M21.3898 48.0332C21.9354 48.2389 20.8441 48.4446 21.3898 48.0332V48.0332Z" fill="#7351AC"/>
<path fill-rule="evenodd" clip-rule="evenodd" d="M20.0802 33.2249C20.6258 33.4305 19.5345 33.6362 20.0802 33.2249V33.2249Z" fill="#7351AC"/>
<path fill-rule="evenodd" clip-rule="evenodd" d="M20.0802 38.881C19.5345 38.5725 20.4076 38.1611 20.0802 38.881V38.881Z" fill="#7351AC"/>
<path fill-rule="evenodd" clip-rule="evenodd" d="M20.5167 44.9482C20.735 44.9482 20.6259 45.2568 20.735 45.4624C20.6259 45.4624 20.6259 45.2568 20.6259 45.1539C20.5167 45.1539 20.5167 45.2568 20.5167 45.2568C19.8619 45.2568 20.5167 45.0511 20.5167 44.9482Z" fill="#7351AC"/>
<path fill-rule="evenodd" clip-rule="evenodd" d="M19.5345 33.122C19.8619 33.6361 18.9888 32.8134 19.5345 33.122V33.122Z" fill="#7351AC"/>
<path fill-rule="evenodd" clip-rule="evenodd" d="M19.6437 34.6647C19.098 34.3561 19.9711 33.9448 19.6437 34.6647V34.6647Z" fill="#7351AC"/>
<path fill-rule="evenodd" clip-rule="evenodd" d="M19.2071 32.8136C18.7706 33.3278 18.6615 32.4022 19.2071 32.8136V32.8136Z" fill="#7351AC"/>
<path fill-rule="evenodd" clip-rule="evenodd" d="M19.3163 36.3098C19.5345 36.3098 19.5345 36.6183 19.3163 36.6183C19.098 36.5155 19.3163 36.4127 19.3163 36.3098Z" fill="#7351AC"/>
<path fill-rule="evenodd" clip-rule="evenodd" d="M19.7528 50.9126C19.9711 50.9126 19.9711 51.2211 19.7528 51.2211C19.5345 51.1183 19.7528 51.0154 19.7528 50.9126Z" fill="#7351AC"/>
<path fill-rule="evenodd" clip-rule="evenodd" d="M18.4432 36.5156C18.3341 36.927 18.2249 36.7213 17.8976 36.7213C17.8976 36.5156 18.2249 36.5156 18.4432 36.5156Z" fill="#7351AC"/>
<path fill-rule="evenodd" clip-rule="evenodd" d="M17.0245 35.0759C17.5702 35.3844 16.588 35.2816 17.0245 35.0759V35.0759Z" fill="#7351AC"/>
<path fill-rule="evenodd" clip-rule="evenodd" d="M17.0245 35.4873C17.2428 35.4873 17.1336 35.693 17.2428 35.8987C17.0245 35.8987 17.1336 35.693 17.0245 35.4873Z" fill="#7351AC"/>
<path fill-rule="evenodd" clip-rule="evenodd" d="M15.9332 47.8276C16.3697 48.0333 15.3875 48.239 15.9332 47.8276V47.8276Z" fill="#7351AC"/>
<path fill-rule="evenodd" clip-rule="evenodd" d="M13.8597 33.9446C14.4054 34.0474 13.314 34.2531 13.8597 33.9446V33.9446Z" fill="#7351AC"/>
<path fill-rule="evenodd" clip-rule="evenodd" d="M47.0356 44.5369C47.4722 44.5369 46.8174 44.7425 46.9265 44.9482C46.49 44.8454 47.1448 44.6397 47.0356 44.5369Z" fill="#7351AC"/>
<path fill-rule="evenodd" clip-rule="evenodd" d="M44.5256 38.5722C44.1982 38.9835 43.8709 38.2637 43.5435 38.675C43.5435 38.4693 43.7617 38.4693 43.7617 38.2637C43.8708 38.3665 44.1982 38.4693 44.5256 38.5722Z" fill="#7351AC"/>
<path fill-rule="evenodd" clip-rule="evenodd" d="M44.1982 44.8453C44.5256 44.5368 43.98 45.1538 43.7617 45.2567C43.3252 45.051 44.0891 44.9482 44.1982 44.8453Z" fill="#7351AC"/>
<path fill-rule="evenodd" clip-rule="evenodd" d="M41.1425 32.1963C41.2517 32.6076 40.2695 32.8133 41.1425 32.1963V32.1963Z" fill="#7351AC"/>
<path fill-rule="evenodd" clip-rule="evenodd" d="M41.3608 51.1185C41.1426 51.6326 40.9243 50.9128 40.5969 50.9128C40.706 50.5014 40.9243 51.2213 41.3608 51.1185Z" fill="#7351AC"/>
<path fill-rule="evenodd" clip-rule="evenodd" d="M38.4143 30.1397C38.4143 30.1397 38.7416 30.4482 38.6325 30.5511C38.5234 30.6539 37.8686 29.7284 38.4143 30.1397Z" fill="#7351AC"/>
<path fill-rule="evenodd" clip-rule="evenodd" d="M38.8508 37.338C39.3965 37.338 38.4143 37.7494 38.5234 37.338C38.3051 37.2352 38.6325 37.4409 38.8508 37.338Z" fill="#7351AC"/>
<path fill-rule="evenodd" clip-rule="evenodd" d="M36.3408 28.2885C36.4499 28.2885 36.4499 28.1857 36.4499 28.1857C36.8864 28.4942 36.2316 28.4942 36.0134 28.3913C36.0134 28.2885 36.0134 28.1857 36.0134 28.0828C36.1225 28.0828 36.1225 27.98 36.1225 27.98C36.3408 27.8772 36.3408 28.0828 36.3408 28.2885Z" fill="#7351AC"/>
<path fill-rule="evenodd" clip-rule="evenodd" d="M34.3764 57.1857C34.5946 56.7744 34.4855 57.4943 34.049 57.2886C33.8307 57.2886 34.1581 57.1857 34.3764 57.1857Z" fill="#7351AC"/>
<path fill-rule="evenodd" clip-rule="evenodd" d="M32.5212 51.9412C32.5212 52.3525 32.3029 51.7355 32.0847 51.8384C32.1938 51.427 32.4121 52.044 32.5212 51.9412Z" fill="#7351AC"/>
<path fill-rule="evenodd" clip-rule="evenodd" d="M27.8285 54.4091C27.8285 54.6148 27.6103 54.4091 27.392 54.4091C27.5011 54.3063 27.5011 54.2035 27.392 54.1006C27.6103 53.6893 27.6103 54.512 27.8285 54.4091Z" fill="#7351AC"/>
<path fill-rule="evenodd" clip-rule="evenodd" d="M22.8085 51.6327C22.9176 51.8383 22.2628 51.6327 22.372 51.427C22.6994 51.3242 22.5902 51.6327 22.8085 51.6327Z" fill="#7351AC"/>
<path fill-rule="evenodd" clip-rule="evenodd" d="M22.0446 41.9659C22.0446 42.4801 21.608 41.8631 21.4989 42.2744C21.1715 42.2744 21.9354 41.4518 22.0446 41.9659Z" fill="#7351AC"/>
<path fill-rule="evenodd" clip-rule="evenodd" d="M19.7528 37.1324C19.8619 37.4409 19.2071 37.4409 19.6437 37.2352C19.4254 36.9267 19.4254 36.9267 19.7528 37.1324Z" fill="#7351AC"/>
<path d="M47.9087 58.5228C47.363 55.5405 46.8174 52.5583 46.9265 49.4732C46.9265 48.1363 47.0356 46.7994 46.5991 45.5654C45.9443 44.0228 44.4165 42.8916 44.1982 41.349C43.9799 40.2178 44.4165 39.1895 44.9621 38.1611C45.6169 36.7214 46.3808 35.2817 46.5991 33.7391C47.1448 30.5512 45.6169 27.2604 46.3808 24.1753C46.5991 23.1469 47.0356 22.2214 47.2539 21.193C47.6904 19.5476 47.4722 17.7994 46.7082 16.2568" stroke="#7351AC" stroke-width="0.5" stroke-miterlimit="10" stroke-linecap="round" stroke-linejoin="round"/>
<path d="M45.2895 12.2461C43.98 13.0688 43.8708 14.817 43.8708 16.2567C43.8708 20.5759 43.8708 24.9979 43.8708 29.317C43.8708 30.2425 43.8708 31.1681 43.6526 32.0936C43.4343 32.9163 42.9978 33.739 42.6704 34.5617C41.7973 36.9269 41.7973 39.7035 42.6704 42.0688C43.5434 44.3312 45.0713 46.3879 45.2895 48.7532C45.6169 52.044 43.3252 55.2319 43.98 58.4199" stroke="#7351AC" stroke-width="0.5" stroke-miterlimit="10" stroke-linecap="round" stroke-linejoin="round"/>
<path d="M42.0156 58.5226C39.1782 56.4659 36.3408 53.6893 36.3408 50.2957C36.3408 47.5191 38.196 45.051 38.8508 42.2744C39.5056 39.9092 39.2873 37.3382 39.6147 34.973C40.1604 31.6822 41.6882 28.4943 41.6882 25.2035C41.6882 23.1467 41.0334 21.09 40.9243 19.0333C40.8151 16.2567 41.7973 13.4801 43.7617 11.4233" stroke="#7351AC" stroke-width="0.5" stroke-miterlimit="10" stroke-linecap="round" stroke-linejoin="round"/>
<path fill-rule="evenodd" clip-rule="evenodd" d="M42.1247 43.817C41.6882 43.4056 40.9243 42.9943 40.3786 43.3028C40.1603 43.4056 40.0512 43.6113 39.833 43.817C39.2873 44.8453 39.1782 46.0794 39.069 47.2106C38.9599 48.3418 38.9599 49.3702 38.9599 50.5014C38.9599 51.3241 38.9599 52.2496 39.3964 52.9695C39.8329 53.6893 40.706 54.3063 41.5791 54.2035C41.7973 54.2035 42.0156 54.1007 42.2338 53.9978C42.4521 53.7921 42.5612 53.5865 42.5612 53.278C43.5434 50.6042 44.6347 46.2851 42.1247 43.817Z" stroke="#7351AC" stroke-width="0.5" stroke-miterlimit="10" stroke-linecap="round" stroke-linejoin="round"/>
<path d="M42.4521 46.9022C42.6704 46.6965 42.4521 46.388 42.2339 46.2852C42.0156 46.2852 41.6882 46.388 41.5791 46.6965C41.4699 47.005 41.4699 47.1079 41.4699 47.4164C41.4699 48.0334 41.4699 48.6504 41.4699 49.3703C41.6882 49.4731 41.9065 49.4731 42.1247 49.2674C42.343 49.0618 42.343 48.8561 42.4521 48.6504C42.5613 48.1362 42.6704 47.5192 42.6704 47.005" stroke="#7351AC" stroke-width="0.5" stroke-miterlimit="10" stroke-linecap="round" stroke-linejoin="round"/>
<path d="M38.8508 6.07593C39.069 11.6291 38.8508 17.1823 38.6325 22.8383C38.5234 24.5866 38.5234 26.3348 38.196 28.083C37.8686 30.2426 37.3229 32.2993 36.8864 34.3561C35.9042 38.4695 35.4677 42.583 34.922 46.7993C34.8129 48.0334 34.5947 49.2674 34.7038 50.5015C34.922 53.1752 36.1225 55.6433 37.4321 58.1114" stroke="#7351AC" stroke-width="0.5" stroke-miterlimit="10" stroke-linecap="round" stroke-linejoin="round"/>
<path d="M35.4677 58.4198C32.1938 54.7177 31.2116 49.5758 31.539 44.7425C31.8664 39.9092 33.3942 35.2815 34.5947 30.551C35.3586 27.5687 36.0134 24.4836 35.1403 21.5014C34.5947 19.6503 33.5033 17.9021 32.6303 16.051C30.7751 12.1432 30.1203 7.61838 31.1025 3.40207C31.1025 3.1964 31.2116 3.09356 31.4298 2.99072C31.539 2.99072 31.7572 3.1964 31.6481 3.29923" stroke="#7351AC" stroke-width="0.5" stroke-miterlimit="10" stroke-linecap="round" stroke-linejoin="round"/>
<path d="M33.2851 3.71045C32.6303 6.0757 32.412 8.44095 32.412 10.8062C32.412 11.4232 32.412 12.0402 32.6303 12.6573C32.9577 13.7885 33.6125 14.8168 34.7038 15.5367C35.0312 15.7424 35.5768 15.948 36.0134 15.8452C36.4499 15.6395 36.559 15.2282 36.6681 14.8168C37.3229 11.5261 37.5412 8.13244 37.2138 4.73882" stroke="#7351AC" stroke-width="0.5" stroke-miterlimit="10" stroke-linecap="round" stroke-linejoin="round"/>
<path fill-rule="evenodd" clip-rule="evenodd" d="M34.3764 11.4234C34.3764 11.5263 34.3764 11.6291 34.4855 11.7319C34.5947 11.8348 34.7038 11.8348 34.8129 11.7319C34.922 11.7319 35.0312 11.6291 35.1403 11.5263C37.3229 9.57238 33.7216 7.72131 34.3764 11.4234Z" stroke="#7351AC" stroke-width="0.5" stroke-miterlimit="10" stroke-linecap="round" stroke-linejoin="round"/>
<path d="M28.7015 1.85962C27.9376 5.35607 28.0468 9.16104 29.1381 12.5547C29.902 15.1256 31.2116 17.6965 31.1024 20.4731C30.9933 22.427 30.2294 24.3809 29.5746 26.232C28.1559 30.4483 27.392 34.9731 27.392 39.3951C27.392 45.5653 28.8107 51.7355 28.1559 57.9057" stroke="#7351AC" stroke-width="0.5" stroke-miterlimit="10" stroke-linecap="round" stroke-linejoin="round"/>
<path d="M26.4098 58.2143C26.7372 52.6611 26.9555 46.9023 24.9911 41.5547C24.7728 41.1434 24.5546 40.5264 24.0089 40.5264C23.5724 40.5264 23.3541 40.8349 23.1359 41.1434C22.1537 42.4803 21.608 44.0228 21.1715 45.5654C20.0802 49.576 19.4254 53.7923 19.5345 57.9058" stroke="#7351AC" stroke-width="0.5" stroke-miterlimit="10" stroke-linecap="round" stroke-linejoin="round"/>
<path d="M17.6793 58.5226C16.0423 53.3807 16.6971 47.6219 18.8797 42.6857C20.4076 39.2921 22.4811 36.207 23.8998 32.7105C25.2094 29.6254 25.755 26.2318 26.3007 22.941C26.6281 20.8843 27.0646 18.8275 27.0646 16.7708C27.0646 11.8346 25.1002 7.0013 25.8641 2.16797" stroke="#7351AC" stroke-width="0.5" stroke-miterlimit="10" stroke-linecap="round" stroke-linejoin="round"/>
<path d="M23.4632 1.44824C23.6815 3.19647 24.0089 4.9447 24.2272 6.69292C24.4454 8.44115 24.7728 10.1894 24.7728 11.9376C25.4276 24.278 17.7884 35.5901 16.0423 47.7248C15.6058 51.2213 15.6058 54.8206 15.6058 58.317" stroke="#7351AC" stroke-width="0.5" stroke-miterlimit="10" stroke-linecap="round" stroke-linejoin="round"/>
<path d="M21.608 58.6256C21.2806 54.2036 21.1715 49.5759 23.5724 45.8738C24.7728 47.5192 24.882 49.6787 24.9911 51.6326C25.1002 53.6894 25.1002 55.849 25.1002 57.9057" stroke="#7351AC" stroke-width="0.5" stroke-miterlimit="10" stroke-linecap="round" stroke-linejoin="round"/>
<path fill-rule="evenodd" clip-rule="evenodd" d="M22.6993 50.9128C23.3541 51.5299 24.0089 55.232 22.8085 55.232C22.8085 54.5121 23.245 51.3242 22.6993 50.9128Z" stroke="#7351AC" stroke-width="0.5" stroke-miterlimit="10" stroke-linecap="round" stroke-linejoin="round"/>
<path d="M19.8619 2.37378C20.0802 3.40215 20.2984 4.43052 20.4076 5.45889C22.1537 16.1539 18.4432 26.7461 15.4966 37.2355C13.6414 43.817 12.1136 50.7071 13.4231 57.4943" stroke="#7351AC" stroke-width="0.5" stroke-miterlimit="10" stroke-linecap="round" stroke-linejoin="round"/>
<path d="M11.7862 58.2143C10.2584 51.3242 10.2584 43.8171 13.5323 37.3384C14.2962 35.7959 15.2784 34.459 15.9332 32.9164C18.0067 28.1859 17.5702 22.7356 15.6058 17.9022C14.8419 16.0512 13.8597 14.2001 13.314 12.349C12.5501 9.46961 12.8775 6.28167 14.1871 3.60791" stroke="#7351AC" stroke-width="0.5" stroke-miterlimit="10" stroke-linecap="round" stroke-linejoin="round"/>
<path d="M15.4967 3.19631C15.0602 5.56156 14.951 7.92681 15.1693 10.2921C15.2784 12.5545 15.7149 14.9197 17.3519 16.4623C17.6793 16.7708 18.0067 16.9765 18.4432 16.7708C18.6615 16.6679 18.6615 16.3594 18.7706 16.1538C19.4254 11.6289 19.4254 7.10411 18.5524 2.68213" stroke="#7351AC" stroke-width="0.5" stroke-miterlimit="10" stroke-linecap="round" stroke-linejoin="round"/>
<path fill-rule="evenodd" clip-rule="evenodd" d="M16.4788 10.1893C16.4788 10.3949 16.4788 10.6006 16.6971 10.8063C16.9153 11.0119 17.2427 10.9091 17.3519 10.7034C17.5701 10.4978 17.5701 10.2921 17.5701 9.98358C17.7884 8.23535 18.2249 4.43039 16.9153 3.09351C15.7149 3.81336 16.4788 8.85237 16.4788 10.1893Z" stroke="#7351AC" stroke-width="0.5" stroke-miterlimit="10" stroke-linecap="round" stroke-linejoin="round"/>
<path d="M11.0223 5.15039C9.60356 10.9093 12.7684 16.771 12.3318 22.6327C12.1136 26.4376 10.2583 30.0369 9.16703 33.739C6.87527 41.6575 7.74832 50.0901 9.82182 58.0086" stroke="#7351AC" stroke-width="0.5" stroke-miterlimit="10" stroke-linecap="round" stroke-linejoin="round"/>
<path d="M8.294 58.6257C6.22051 54.8207 5.02006 50.6044 4.8018 46.3881C4.58353 42.9945 5.02006 39.3952 4.03788 36.1044C3.81961 35.3845 3.49222 34.6647 3.27396 33.842C1.30959 28.3916 0.763935 22.4271 1.63699 16.6682" stroke="#7351AC" stroke-width="0.5" stroke-miterlimit="10" stroke-linecap="round" stroke-linejoin="round"/>
<path d="M3.27394 13.48C3.16481 19.2388 3.16481 25.1005 4.91091 30.6537C5.12917 31.1679 5.2383 31.7849 5.67483 32.1963C6.11135 32.6076 6.76614 32.8133 7.3118 32.5048C7.63919 32.402 7.74832 32.0934 7.96659 31.7849C9.93095 28.6998 10.804 25.1005 10.3675 21.5013C9.82182 17.0793 7.42093 12.6573 8.40311 8.33813" stroke="#7351AC" stroke-width="0.5" stroke-miterlimit="10" stroke-linecap="round" stroke-linejoin="round"/>
<path d="M4.4744 12.0404C4.4744 14.9198 4.69266 17.7993 5.02005 20.6787C5.12918 22.3241 5.45658 23.9695 6.54789 25.1007C6.76616 25.3064 7.20268 25.6149 7.53008 25.4092C7.74834 25.3064 7.85747 24.895 7.85747 24.5865C7.85747 23.8666 7.85747 23.1468 7.85747 22.4269C7.85747 21.2957 7.85747 20.1645 7.63921 19.0333C7.42094 18.1078 6.98442 17.1822 6.65702 16.2567C5.8931 14.0971 5.78397 11.7319 6.32963 9.46948C6.43876 9.67516 6.54789 9.77799 6.54789 9.88083" stroke="#7351AC" stroke-width="0.5" stroke-miterlimit="10" stroke-linecap="round" stroke-linejoin="round"/>
<path d="M0.873059 32.8135C0.763927 41.3489 4.25613 49.9872 1.85524 58.2142C1.20045 58.0085 0.98219 57.1858 0.98219 56.466C0.98219 52.1468 0.98219 47.8277 0.98219 43.5085" stroke="#7351AC" stroke-width="0.5" stroke-miterlimit="10" stroke-linecap="round" stroke-linejoin="round"/>
<rect x="39" y="26.9341" width="1" height="11" rx="0.5" fill="#E7A328"/>
<rect x="38" y="27.9341" width="1" height="11" rx="0.5" fill="#6E48AA"/>
</g>
<defs>
<clipPath id="clip0">
<rect width="49" height="58" fill="white" transform="translate(0 0.934082)"/>
</clipPath>
</defs>
</svg>
