<svg width="87" height="44" viewBox="0 0 87 44" fill="none" xmlns="http://www.w3.org/2000/svg">
<path d="M40.4128 11.7739V11.8646C40.3221 11.5925 40.3221 11.2297 40.4128 10.8669C40.6849 9.86914 41.6826 9.32493 42.6803 9.59703L49.5738 11.4111C50.5715 11.6832 51.1157 12.6809 50.8436 13.6787C50.7529 13.9508 50.6622 14.2229 50.4808 14.4043C50.4808 14.4043 50.3901 14.5857 50.2087 14.6764C49.2109 15.402 45.6735 17.7603 45.6735 17.7603C45.22 18.0324 44.6758 18.2138 44.1316 18.0324C43.5874 17.851 43.1338 17.4882 42.9524 16.944V17.0347L40.5942 12.046C40.4128 11.6832 40.4128 11.2297 40.5035 10.7762C40.7756 9.77844 41.7733 9.23422 42.771 9.50633L49.6645 11.3204C50.6622 11.5925 51.2064 12.5902 50.9343 13.588C50.8436 14.0415 50.5715 14.3136 50.2087 14.5857" fill="#F8BA00"/>
<path d="M86.0363 30.4586L76.4218 17.5787C74.6985 15.1298 72.1588 13.3157 69.2563 12.4994C68.3493 12.2273 67.3515 12.1366 66.3538 12.0459C65.3561 10.5039 63.9048 9.32477 62 8.78055L33.3379 1.16151C31.3425 0.61729 29.347 0.980102 27.7143 1.88713C26.7166 1.25221 25.5375 0.798696 24.3583 0.435884C21.4558 -0.380443 18.3719 -0.0176309 15.6508 1.25221L0.956963 7.60142C0.140636 7.96423 -0.222175 8.87126 0.140637 9.68758C0.322043 10.1411 0.775557 10.5039 1.22907 10.5946C1.59188 10.6853 1.9547 10.6853 2.31751 10.5039L17.0114 4.1547C19.0976 3.15697 21.3651 2.97557 23.542 3.51978C24.0862 3.70119 24.7211 3.8826 25.2654 4.1547C24.8118 4.88033 24.5397 5.60595 24.2676 6.42228L19.0068 26.1048C17.9184 30.005 20.2767 34.0867 24.2676 35.1751L52.9298 42.7942C56.83 43.8826 60.9116 41.5243 62 37.5334L67.2608 17.8509C67.4422 17.0345 67.5329 16.2182 67.5329 15.4019C67.805 15.4926 68.1678 15.4926 68.44 15.5833C70.6168 16.1275 72.5216 17.488 73.7914 19.3928L83.4059 32.2726C83.5874 32.5447 83.9502 32.8168 84.313 32.9075C84.7665 32.9982 85.3107 32.9075 85.6735 32.6354C86.3991 32.1819 86.5806 31.1842 86.0363 30.4586ZM61.1837 11.9552C61.7279 12.1366 62.2722 12.4087 62.7257 12.7715L45.9456 20.1184C45.8549 20.1184 45.8549 20.2091 45.7642 20.2091C45.0386 20.5719 44.2223 20.6626 43.4967 20.3905C42.6803 20.2091 42.0454 19.6649 41.5919 19.03C41.5919 19.03 41.5919 18.9393 41.5012 18.9393L30.6168 4.24541C31.2518 4.1547 31.8867 4.1547 32.5216 4.33611L61.1837 11.9552ZM58.8254 36.8078C58.1905 38.9846 55.923 40.3452 53.7461 39.7103L25.0839 32.0005C22.9071 31.3656 21.5465 29.098 22.1815 26.9211L27.4422 7.23861C27.5329 6.78509 27.7143 6.42228 27.8957 6.05947L38.8708 20.844C39.7778 22.2046 41.0477 23.1116 42.6803 23.5651C44.2223 24.0187 45.9456 23.8372 47.3969 23.1116L64.2676 15.674C64.2676 16.1275 64.2676 16.581 64.1769 17.1252L58.8254 36.8078Z" fill="white"/>
<path d="M15.6508 8.87145L5.85491 13.1345C5.03859 13.4973 4.67577 14.4043 5.03859 15.2207C5.21999 15.6742 5.67351 16.037 6.12702 16.1277C6.48983 16.2184 6.85264 16.2184 7.21546 16.037L16.9207 11.8647C17.737 11.5018 18.0998 10.5948 17.737 9.77848C17.4649 8.87145 16.4672 8.50864 15.6508 8.87145Z" fill="white"/>
<path d="M13.202 17.3975L10.6623 18.4859C9.84596 18.8487 9.48315 19.7557 9.84596 20.5721C10.0274 21.0256 10.4809 21.3884 10.9344 21.4791C11.2972 21.5698 11.66 21.5698 12.0228 21.3884L14.5625 20.3C15.3788 19.9372 15.7417 19.0301 15.3788 18.2138C14.9253 17.3975 14.0183 17.0347 13.202 17.3975Z" fill="white"/>
<path d="M72.5217 24.2906L78.8709 32.9074C79.4151 33.633 79.2337 34.6307 78.5081 35.1749C78.0545 35.447 77.601 35.5377 77.1475 35.447C76.7847 35.3563 76.5126 35.1749 76.2405 34.8121L69.8913 26.1953C69.347 25.4697 69.5285 24.472 70.2541 23.9278C70.9797 23.3835 71.9774 23.5649 72.5217 24.2906Z" fill="white"/>
<path d="M70.3448 32.998L71.9774 35.1749C72.5216 35.9005 72.3402 36.8983 71.6146 37.4425C71.1611 37.7146 70.7076 37.8053 70.2541 37.7146C69.8913 37.6239 69.6191 37.4425 69.347 37.0797L67.7144 34.9028C67.1702 34.1772 67.3516 33.1794 68.0772 32.6352C68.8028 32.1817 69.8913 32.3631 70.3448 32.998Z" fill="white"/>
</svg>
