<svg width="41" height="50" viewBox="0 0 41 50" fill="none" xmlns="http://www.w3.org/2000/svg">
<g clip-path="url(#clip0)">
<path d="M41.0001 49.6377H0.633606C0.633606 49.6377 1.90071 22.5544 20.3643 22.5544C39.8235 22.5544 41.0001 49.6377 41.0001 49.6377Z" fill="#DE4E4C"/>
<path d="M29.9581 50H10.6799V28.7138C10.6799 26.721 12.3091 25 14.3907 25H26.2473C28.2384 25 29.9581 26.6304 29.9581 28.7138V50Z" fill="#14143D"/>
<path d="M18.1016 24.6377L5.79254 15.1268C5.79254 15.1268 11.7661 8.8768 20.2738 8.8768C28.51 8.8768 35.6601 15.1268 35.6601 15.1268L22.808 24.7282L18.1016 24.6377Z" fill="#DE4E4C"/>
<path d="M36.2031 43.9312H25.0707C23.8036 43.9312 22.808 42.9348 22.808 41.6667C22.808 40.3986 23.8036 39.4022 25.0707 39.4022H36.2031L25.5232 29.1667C24.6181 28.2609 24.6181 26.9022 25.4327 25.9964C26.3378 25.0906 27.6954 25.0906 28.6005 25.9058L39.4614 36.4131C39.5519 36.5036 39.5519 36.5036 39.6424 36.5942C40.819 37.9529 41 39.7645 40.276 41.3949C39.5519 42.9348 38.0133 43.9312 36.2031 43.9312Z" fill="#14143D"/>
<path d="M4.52541 43.9312H15.6579C16.925 43.9312 17.9206 42.9348 17.9206 41.6667C17.9206 40.3986 16.925 39.4022 15.6579 39.4022H4.61592L15.2958 29.0761C16.2009 28.1703 16.2009 26.8116 15.3863 25.9058C14.4813 25 13.1236 25 12.2186 25.8152L1.35764 36.3225C1.26713 36.4131 1.26713 36.4131 1.17662 36.5036C2.31862e-05 37.8623 -0.180992 39.6739 0.54307 41.3044C1.17662 42.9348 2.71525 43.9312 4.52541 43.9312Z" fill="#14143D"/>
<path d="M15.1148 25H26.0662L20.2737 35.5978L15.1148 25Z" fill="#F0E9F4"/>
<path d="M20.2737 25.2717C19.4592 25.2717 18.8256 24.6377 18.8256 23.8225V22.4638C18.8256 21.6486 19.4592 21.0145 20.2737 21.0145C21.0883 21.0145 21.7219 21.6486 21.7219 22.4638V23.8225C21.7219 24.6377 21.0883 25.2717 20.2737 25.2717Z" fill="#F0E9F4"/>
<path d="M13.8863 14.005C14.169 13.7221 13.9398 13.0338 13.3743 12.4679C12.8088 11.9019 12.1211 11.6725 11.8383 11.9555C11.5556 12.2385 11.7848 12.9267 12.3503 13.4926C12.9158 14.0586 13.6035 14.288 13.8863 14.005Z" fill="#F0E9F4"/>
<path d="M28.3062 13.4886C28.8717 12.9226 29.101 12.2344 28.8182 11.9514C28.5354 11.6685 27.8478 11.8979 27.2822 12.4638C26.7167 13.0298 26.4875 13.718 26.7703 14.001C27.053 14.284 27.7407 14.0546 28.3062 13.4886Z" fill="#F0E9F4"/>
<path d="M20.4548 22.1015C24.3537 22.1015 27.5144 17.6406 27.5144 12.1377C27.5144 6.63488 24.3537 2.17395 20.4548 2.17395C16.5559 2.17395 13.3952 6.63488 13.3952 12.1377C13.3952 17.6406 16.5559 22.1015 20.4548 22.1015Z" fill="#F0E9F4"/>
<path d="M17.1965 17.7536C19.4592 18.0254 21.8124 18.1159 23.9846 17.3913" stroke="#363636" stroke-width="0.25" stroke-miterlimit="10"/>
<path d="M17.3775 17.7536L17.649 18.9311L17.9205 17.8442L17.3775 17.7536Z" fill="white" stroke="#363636" stroke-width="0.25" stroke-miterlimit="10" stroke-linecap="round" stroke-linejoin="round"/>
<path d="M23.8036 17.4819L23.4415 18.5688L23.2605 17.663L23.8036 17.4819Z" fill="white" stroke="#363636" stroke-width="0.25" stroke-miterlimit="10" stroke-linecap="round" stroke-linejoin="round"/>
<path d="M16.744 12.8623C16.9939 12.8623 17.1965 12.5784 17.1965 12.2283C17.1965 11.8781 16.9939 11.5942 16.744 11.5942C16.494 11.5942 16.2914 11.8781 16.2914 12.2283C16.2914 12.5784 16.494 12.8623 16.744 12.8623Z" fill="#363636"/>
<path d="M23.532 12.8623C23.782 12.8623 23.9846 12.5784 23.9846 12.2283C23.9846 11.8781 23.782 11.5942 23.532 11.5942C23.2821 11.5942 23.0795 11.8781 23.0795 12.2283C23.0795 12.5784 23.2821 12.8623 23.532 12.8623Z" fill="#363636"/>
<path d="M18.2826 11.0507V11.1413H18.1921C18.0111 11.1413 17.83 11.0507 17.649 10.9602C16.8345 10.6884 15.2053 10.6884 15.2053 10.5979C15.2053 10.5073 16.2914 10.3261 16.744 10.3261C17.106 10.3261 17.5585 10.3261 17.9206 10.4167C18.3731 10.5979 18.3731 10.5979 18.2826 11.0507Z" fill="#363636"/>
<path d="M21.9029 11.0507V11.1413H21.9934C22.1744 11.1413 22.3554 11.0507 22.5364 10.9602C23.351 10.6884 24.9802 10.6884 24.9802 10.5979C24.9802 10.5073 23.8941 10.3261 23.4415 10.3261C23.0795 10.3261 22.627 10.3261 22.2649 10.4167C21.9029 10.5979 21.9029 10.5979 21.9029 11.0507Z" fill="#363636"/>
<path d="M20.1833 13.2246C20.0928 14.1304 19.5497 14.8551 19.4592 15.7609C19.4592 15.8515 19.4592 15.942 19.4592 16.0326C19.4592 16.1232 19.5497 16.1232 19.6402 16.1232C19.9117 16.2138 20.1833 16.3043 20.4548 16.3043" stroke="#363636" stroke-width="0.25" stroke-miterlimit="10" stroke-linecap="round" stroke-linejoin="round"/>
<path d="M15.3863 3.62319C16.0199 2.44565 16.8345 1.17754 18.0111 0.452899C17.7395 1.17754 18.0111 1.99275 18.6446 2.53623C19.0067 1.53986 19.5497 0.724638 20.3643 0C20.3643 0.634058 20.4548 1.17754 20.4548 1.81159C20.9978 1.3587 21.3599 0.815217 21.5409 0.0905797C21.7219 0.724638 21.8124 1.3587 21.9934 1.99275C22.2649 1.53986 22.446 0.996377 22.5365 0.452899C22.8985 0.905797 23.0795 1.44928 22.989 1.99275C23.0795 1.72101 23.2605 1.3587 23.351 1.08696C23.9846 1.53986 24.4371 2.17391 24.7086 2.89855C24.7992 2.53623 24.7992 2.26449 24.8897 1.90217C25.7042 2.71739 26.2473 3.80435 26.5188 4.98188C26.7903 6.15942 27.1524 8.24275 27.2429 9.42029C26.9713 8.69565 25.7042 7.06522 24.4371 6.7029C23.6226 6.52174 20.9978 6.79348 20.1833 8.06159C19.2782 7.1558 18.0111 6.7029 16.744 6.88406C16.4724 6.88406 16.2914 6.97464 16.0199 7.06522C15.7484 7.1558 15.4769 7.33696 15.2053 7.51812C14.9338 7.78986 14.6623 8.06159 14.3908 8.33333C14.2097 8.51449 13.7572 9.23913 13.5762 9.87319C13.3047 8.06159 14.5718 5.07246 15.3863 3.62319Z" fill="#14143D"/>
<path d="M20.2738 25.9964C20.8236 25.9964 21.2693 25.5503 21.2693 25C21.2693 24.4497 20.8236 24.0036 20.2738 24.0036C19.7239 24.0036 19.2782 24.4497 19.2782 25C19.2782 25.5503 19.7239 25.9964 20.2738 25.9964Z" fill="#14143D"/>
<path d="M20.2737 25L18.1016 23.5507C17.83 23.3696 17.3775 23.5507 17.3775 23.913C17.3775 23.913 17.5585 24.5471 17.5585 24.7282C17.5585 24.9094 17.3775 25.4529 17.3775 25.4529C17.3775 25.7246 17.649 25.9964 18.0111 25.9058L20.2737 25Z" fill="#14143D"/>
<path d="M20.3643 25L22.5364 23.5507C22.808 23.3696 23.2605 23.5507 23.2605 23.913C23.2605 23.913 23.0795 24.5471 23.0795 24.7282C23.0795 24.9094 23.2605 25.4529 23.2605 25.4529C23.2605 25.7246 22.989 25.9964 22.627 25.9058L20.3643 25Z" fill="#14143D"/>
<path d="M20.2738 27.7174C20.5237 27.7174 20.7263 27.5146 20.7263 27.2645C20.7263 27.0144 20.5237 26.8116 20.2738 26.8116C20.0238 26.8116 19.8212 27.0144 19.8212 27.2645C19.8212 27.5146 20.0238 27.7174 20.2738 27.7174Z" fill="#14143D"/>
<path d="M20.2738 29.529C20.5237 29.529 20.7263 29.3262 20.7263 29.0761C20.7263 28.8259 20.5237 28.6232 20.2738 28.6232C20.0238 28.6232 19.8212 28.8259 19.8212 29.0761C19.8212 29.3262 20.0238 29.529 20.2738 29.529Z" fill="#14143D"/>
<path d="M20.2738 31.25C20.5237 31.25 20.7263 31.0472 20.7263 30.7971C20.7263 30.547 20.5237 30.3442 20.2738 30.3442C20.0238 30.3442 19.8212 30.547 19.8212 30.7971C19.8212 31.0472 20.0238 31.25 20.2738 31.25Z" fill="#14143D"/>
</g>
<defs>
<clipPath id="clip0">
<rect width="41" height="50" fill="white"/>
</clipPath>
</defs>
</svg>
