<svg width="132" height="87" viewBox="0 0 132 87" fill="none" xmlns="http://www.w3.org/2000/svg">
<g clip-path="url(#clip0)">
<path d="M64.5 9.30001C64.7 8.90001 65 8.40001 65.4 8.10001C66 7.70001 66.8 7.80001 67.5 8.10001C68.2 8.40001 68.7 8.90001 69.4 9.20001C70.3 9.80001 71.3 10.2 72.3 10.4C72.9 10.5 73.4 10.1 73.5 9.50001C73.5 8.80001 73.4 8.10001 73.1 7.50001C72.9 7.20001 72.7 7.00001 72.5 6.80001C71.7 6.00001 71 5.10001 70.2 4.30001C71.5 4.30001 72.8 4.70001 73.8 5.40001C74.7 4.50001 76 4.10001 77.2 4.30001C77.7 3.10001 78.4 2.10001 79.3 1.20001C79.3 2.30001 79.1 3.40001 79.3 4.50001C79.5 5.30001 79.9 6.10001 80.5 6.50001C80.9 6.80001 81.4 6.50001 81.4 6.10001L81.7 1.90001C81.8 1.20001 81.9 0.300011 82.5 1.08518e-05C83.1 -0.0999891 83.6 1.08518e-05 84 1.08518e-05C87.9 0.400011 91.8 0.800011 95.7 1.30001C95.1 2.30001 93.3 2.00001 92.8 3.00001C92.6 3.30001 92.6 3.70001 92.7 4.10001C92.8 5.00001 92.8 6.00001 92.9 6.90001C92.9 7.10001 92.9 7.30001 92.8 7.50001C92.5 8.10001 91.5 7.70001 90.8 7.60001C90 7.60001 89.4 8.10001 89 8.70001C88.6 9.30001 88.5 10.1 88.3 10.8C86.7 10.4 85.1 10.1 83.5 9.90001C82.9 9.80001 82.3 10.4 82.4 11C82.4 11.6 82.5 12 82.5 12.9C82.4 14.7 80.3 15.7 79.8 15.8C76.9 16.3 75.5 14.9 74.9 14.9C73.1 14.9 71.6 16.9 72 18.7L68.1 18.5C67.7 19.2 67.3 19.8 66.9 20.5C66.7 20.9 66.3 21.3 65.9 21.3C65.3 21.2 65.2 20.5 65 19.9C64.6 19 63.4 18.6 62.4 18.8C61.4 19 60.7 19.7 59.8 20C59.9 18.3 61.2 16.1 61.9 14.5C62.7 12.8 63.6 11 64.5 9.30001Z" fill="#002430"/>
<path d="M74.7 7.69995C74.9761 7.69995 75.2 7.47609 75.2 7.19995C75.2 6.92381 74.9761 6.69995 74.7 6.69995C74.4238 6.69995 74.2 6.92381 74.2 7.19995C74.2 7.47609 74.4238 7.69995 74.7 7.69995Z" fill="url(#paint0_linear)"/>
<path d="M77.6 6.6001C77.8761 6.6001 78.1 6.37624 78.1 6.1001C78.1 5.82396 77.8761 5.6001 77.6 5.6001C77.3238 5.6001 77.1 5.82396 77.1 6.1001C77.1 6.37624 77.3238 6.6001 77.6 6.6001Z" fill="url(#paint1_linear)"/>
<path d="M76.9 65.6001C77.4 65.5001 77.9 65.4001 78.4 65.6001C79.1 65.8001 79.6 66.5001 79.8 67.2001C80 67.9001 80 68.6001 80.1 69.4001C80.2 70.5001 80.6 71.5001 81 72.4001C81.3 72.9001 82 73.1001 82.4 72.7001C83 72.3001 83.4 71.8001 83.7 71.1001C83.8 70.8001 83.8 70.5001 83.9 70.2001C84.1 69.1001 84.2 68.0001 84.4 66.9001C85.2 67.9001 85.7 69.1001 85.9 70.4001C87.1 70.5001 88.3 71.3001 88.9 72.3001C90.1 71.9001 91.4 71.8001 92.7 72.0001C91.8 72.7001 90.9 73.3001 90.2 74.2001C89.7 74.8001 89.4 75.6001 89.4 76.4001C89.4 76.8001 89.9 77.1001 90.3 76.8001L93.7 74.4001C94.3 74.0001 95 73.5001 95.7 73.8001C96.1 74.0001 96.4 74.4001 96.6 74.7001C98.8 78.0001 100.9 81.3001 103.1 84.6001C102 84.8001 101.1 83.2001 99.9 83.5001C99.5 83.6001 99.2 83.8001 99 84.1001C98.3 84.7001 97.6 85.4001 97 86.0001C96.8 86.1001 96.7 86.3001 96.5 86.3001C95.8 86.5001 95.5 85.4001 95.1 84.8001C94.7 84.2001 93.8 84.0001 93.1 84.1001C92.4 84.2001 91.7 84.6001 91.1 84.9001C90.4 83.4001 89.6 82.0001 88.7 80.6001C88.3 80.1001 87.6 80.0001 87.1 80.4001C86.7 80.8001 86.4 81.1001 85.7 81.6001C84.2 82.7001 82.1 81.7001 81.8 81.4001C79.6 79.5001 79.8 77.5001 79.4 77.1001C78.2 75.7001 75.7 75.8001 74.7 77.3001L72.4 74.2001C71.6 74.3001 70.9 74.4001 70.1 74.5001C69.7 74.6001 69.1 74.6001 68.9 74.2001C68.6 73.7001 69.1 73.2001 69.4 72.6001C69.8 71.7001 69.4 70.5001 68.6 69.9001C67.8 69.3001 66.8 69.2001 66 68.7001C67.4 67.6001 69.9 67.3001 71.6 66.8001C73.1 66.4001 75 66.0001 76.9 65.6001Z" fill="#002430"/>
<path d="M85 72.6001C85.2761 72.6001 85.5 72.3762 85.5 72.1001C85.5 71.824 85.2761 71.6001 85 71.6001C84.7239 71.6001 84.5 71.824 84.5 72.1001C84.5 72.3762 84.7239 72.6001 85 72.6001Z" fill="url(#paint2_linear)"/>
<path d="M87.7 74.2002C87.9762 74.2002 88.2 73.9763 88.2 73.7002C88.2 73.4241 87.9762 73.2002 87.7 73.2002C87.4239 73.2002 87.2 73.4241 87.2 73.7002C87.2 73.9763 87.4239 74.2002 87.7 74.2002Z" fill="url(#paint3_linear)"/>
<path d="M105.4 25.1999C105.9 25.0999 106.4 24.9999 106.9 25.1999C107.6 25.3999 108.1 26.0999 108.3 26.7999C108.5 27.4999 108.5 28.1999 108.6 28.9999C108.7 30.0999 109.1 31.0999 109.5 31.9999C109.8 32.4999 110.5 32.6999 110.9 32.2999C111.5 31.8999 111.9 31.3999 112.2 30.6999C112.3 30.3999 112.3 30.0999 112.4 29.7999C112.6 28.6999 112.7 27.5999 112.9 26.4999C113.7 27.4999 114.2 28.6999 114.4 29.9999C115.6 30.0999 116.8 30.8999 117.4 31.8999C118.6 31.4999 119.9 31.3999 121.2 31.5999C120.3 32.2999 119.4 32.8999 118.7 33.7999C118.2 34.3999 117.9 35.1999 117.9 35.9999C117.9 36.3999 118.4 36.6999 118.8 36.3999L122.2 33.9999C122.8 33.5999 123.5 33.0999 124.2 33.3999C124.6 33.5999 124.9 33.9999 125.1 34.2999C127.3 37.5999 129.4 40.8999 131.6 44.1999C130.5 44.3999 129.6 42.7999 128.4 43.0999C128 43.1999 127.7 43.3999 127.5 43.6999C126.8 44.2999 126.1 44.9999 125.5 45.5999C125.3 45.6999 125.2 45.8999 125 45.8999C124.3 46.0999 124 44.9999 123.6 44.3999C123.2 43.7999 122.3 43.5999 121.6 43.6999C120.9 43.7999 120.2 44.1999 119.6 44.4999C118.9 42.9999 118.1 41.5999 117.2 40.1999C116.8 39.6999 116.1 39.5999 115.6 39.9999C115.2 40.3999 114.9 40.6999 114.2 41.1999C112.7 42.2999 110.6 41.2999 110.3 40.9999C108.1 39.0999 108.3 37.0999 107.9 36.6999C106.7 35.2999 104.2 35.3999 103.2 36.8999L100.9 33.7999C100.1 33.8999 99.4 33.9999 98.6 34.0999C98.2 34.1999 97.6 34.1999 97.4 33.7999C97.1 33.2999 97.6 32.7999 97.9 32.1999C98.3 31.2999 97.9 30.0999 97.1 29.4999C96 28.9999 95 28.8999 94.2 28.3999C95.6 27.2999 98.1 26.9999 99.8 26.4999C101.7 25.9999 103.5 25.5999 105.4 25.1999Z" fill="#002430"/>
<path d="M113.6 32.2C113.876 32.2 114.1 31.9761 114.1 31.7C114.1 31.4238 113.876 31.2 113.6 31.2C113.324 31.2 113.1 31.4238 113.1 31.7C113.1 31.9761 113.324 32.2 113.6 32.2Z" fill="url(#paint4_linear)"/>
<path d="M116.3 33.8C116.576 33.8 116.8 33.5762 116.8 33.3C116.8 33.0239 116.576 32.8 116.3 32.8C116.024 32.8 115.8 33.0239 115.8 33.3C115.8 33.5762 116.024 33.8 116.3 33.8Z" fill="url(#paint5_linear)"/>
<path d="M40.1 52.2001C40.3 51.8001 40.6 51.3001 41 51.0001C41.6 50.6001 42.4 50.7001 43.1 51.0001C43.8 51.3001 44.3 51.8001 45 52.1001C45.9 52.7001 46.9 53.1001 47.9 53.3001C48.5 53.4001 49 53.0001 49.1 52.4001C49.1 51.7001 49 51.0001 48.7 50.4001C48.5 50.1001 48.3 49.9001 48.1 49.7001C47.3 48.9001 46.6 48.0001 45.8 47.2001C47.1 47.2001 48.4 47.6001 49.4 48.3001C50.3 47.4001 51.6 47.0001 52.8 47.2001C53.3 46.0001 54 45.0001 54.9 44.1001C54.9 45.2001 54.7 46.3001 54.9 47.4001C55.1 48.2001 55.5 49.0001 56.1 49.4001C56.5 49.7001 57 49.4001 57 49.0001L57.3 44.8001C57.4 44.1001 57.5 43.2001 58.1 42.9001C58.5 42.7001 59 42.7001 59.4 42.8001C63.3 43.2001 67.2 43.6001 71.1 44.1001C70.5 45.1001 68.7 44.8001 68.2 45.8001C68 46.1001 68 46.5001 68.1 46.9001C68.2 47.8001 68.2 48.8001 68.3 49.7001C68.3 49.9001 68.3 50.1001 68.2 50.3001C67.9 50.9001 66.9 50.5001 66.2 50.4001C65.5 50.3001 64.8 50.8001 64.4 51.5001C64 52.1001 63.9 52.9001 63.7 53.6001C62.1 53.2001 60.5 52.9001 58.9 52.7001C58.3 52.6001 57.7 53.2001 57.8 53.8001C57.8 54.4001 57.9 54.8001 57.9 55.7001C57.8 57.5001 55.7 58.5001 55.2 58.6001C52.3 59.1001 50.9 57.7001 50.3 57.7001C48.5 57.7001 47 59.7001 47.4 61.5001L43.5 61.3001C43.1 62.0001 42.7 62.6001 42.3 63.3001C42.1 63.7001 41.7 64.1001 41.3 64.1001C40.7 64.0001 40.6 63.3001 40.4 62.7001C40 61.8001 38.8 61.4001 37.8 61.6001C36.8 61.8001 36.1 62.5001 35.2 62.8001C35.3 61.1001 36.6 58.9001 37.3 57.3001C38.3 55.6001 39.1 53.9001 40.1 52.2001Z" fill="#002430"/>
<path d="M50.3 50.6001C50.5762 50.6001 50.8 50.3762 50.8 50.1001C50.8 49.824 50.5762 49.6001 50.3 49.6001C50.0239 49.6001 49.8 49.824 49.8 50.1001C49.8 50.3762 50.0239 50.6001 50.3 50.6001Z" fill="url(#paint6_linear)"/>
<path d="M53.2 49.5C53.4762 49.5 53.7 49.2761 53.7 49C53.7 48.7239 53.4762 48.5 53.2 48.5C52.9239 48.5 52.7 48.7239 52.7 49C52.7 49.2761 52.9239 49.5 53.2 49.5Z" fill="url(#paint7_linear)"/>
<path d="M0 46.6C0 46.1 0 45.6 0.2 45.1C0.5 44.4 1.3 44.1 2 44C2.7 43.9 3.5 44 4.2 44C5.3 44 6.3 43.8 7.3 43.5C7.9 43.3 8.1 42.7 7.8 42.1C7.5 41.5 7 40.9 6.4 40.6C6.1 40.5 5.8 40.4 5.6 40.3C4.5 40 3.4 39.6 2.4 39.3C3.5 38.7 4.8 38.3 6.1 38.3C6.4 37.1 7.3 36.1 8.4 35.6C8.2 34.3 8.3 33.1 8.6 31.8C9.2 32.8 9.6 33.8 10.4 34.6C10.9 35.2 11.7 35.6 12.5 35.7001C12.9 35.7001 13.2 35.3001 13 34.9001L11.1 31.2001C10.8 30.6001 10.4 29.8 10.8 29.1C11 28.7 11.5 28.5 11.9 28.3C15.5 26.6 19 25 22.6 23.3C22.6 24.4 20.9 25.1 21 26.3C21 26.7 21.2 27 21.5 27.3C22 28.1 22.5 28.8 23.1 29.6C23.2 29.8 23.3 30.0001 23.4 30.2001C23.4 30.9001 22.4 31 21.7 31.4C21 31.7 20.7 32.5 20.7 33.3C20.7 34 21 34.8001 21.2 35.4001C19.6 35.9001 18.1 36.5 16.6 37.1C16 37.4 15.8 38.1 16.2 38.7001C16.5 39.2001 16.8 39.5 17.2 40.3C18.1 41.9 16.8 43.8001 16.4 44.2001C14.1 46.1 12.3 45.6001 11.8 45.9001C10.3 46.9001 10 49.4 11.3 50.6L7.9 52.4001C7.9 53.2001 7.9 54 7.9 54.7001C7.9 55.2001 7.8 55.7001 7.4 55.9001C6.9 56.1001 6.4 55.5 5.9 55.2001C5.1 54.6 3.8 54.9 3.1 55.6C2.3 56.3 2.1 57.3 1.5 58C0.7 56.5 0.6 53.9001 0.4 52.2001C0.2 50.5 0.1 48.5 0 46.6Z" fill="#002430"/>
<path d="M7.60001 40C7.87615 40 8.10001 39.7761 8.10001 39.5C8.10001 39.2239 7.87615 39 7.60001 39C7.32386 39 7.10001 39.2239 7.10001 39.5C7.10001 39.7761 7.32386 40 7.60001 40Z" fill="url(#paint8_linear)"/>
<path d="M9.60001 37.6001C9.87615 37.6001 10.1 37.3762 10.1 37.1001C10.1 36.824 9.87615 36.6001 9.60001 36.6001C9.32386 36.6001 9.10001 36.824 9.10001 37.1001C9.10001 37.3762 9.32386 37.6001 9.60001 37.6001Z" fill="url(#paint9_linear)"/>
</g>
<defs>
<linearGradient id="paint0_linear" x1="74.1819" y1="7.18775" x2="75.2215" y2="7.18775" gradientUnits="userSpaceOnUse">
<stop stop-color="#E7A328"/>
<stop offset="0.5522" stop-color="#E7A22A"/>
<stop offset="0.7511" stop-color="#E59D31"/>
<stop offset="0.8924" stop-color="#E2943C"/>
<stop offset="1" stop-color="#DE884C"/>
</linearGradient>
<linearGradient id="paint1_linear" x1="77.1095" y1="6.1409" x2="78.1491" y2="6.1409" gradientUnits="userSpaceOnUse">
<stop stop-color="#E7A328"/>
<stop offset="0.5522" stop-color="#E7A22A"/>
<stop offset="0.7511" stop-color="#E59D31"/>
<stop offset="0.8924" stop-color="#E2943C"/>
<stop offset="1" stop-color="#DE884C"/>
</linearGradient>
<linearGradient id="paint2_linear" x1="84.6974" y1="71.7198" x2="85.3577" y2="72.5228" gradientUnits="userSpaceOnUse">
<stop stop-color="#E7A328"/>
<stop offset="0.5522" stop-color="#E7A22A"/>
<stop offset="0.7511" stop-color="#E59D31"/>
<stop offset="0.8924" stop-color="#E2943C"/>
<stop offset="1" stop-color="#DE884C"/>
</linearGradient>
<linearGradient id="paint3_linear" x1="87.3656" y1="73.3161" x2="88.0258" y2="74.1191" gradientUnits="userSpaceOnUse">
<stop stop-color="#E7A328"/>
<stop offset="0.5522" stop-color="#E7A22A"/>
<stop offset="0.7511" stop-color="#E59D31"/>
<stop offset="0.8924" stop-color="#E2943C"/>
<stop offset="1" stop-color="#DE884C"/>
</linearGradient>
<linearGradient id="paint4_linear" x1="113.265" y1="31.3364" x2="113.925" y2="32.1393" gradientUnits="userSpaceOnUse">
<stop stop-color="#E7A328"/>
<stop offset="0.5522" stop-color="#E7A22A"/>
<stop offset="0.7511" stop-color="#E59D31"/>
<stop offset="0.8924" stop-color="#E2943C"/>
<stop offset="1" stop-color="#DE884C"/>
</linearGradient>
<linearGradient id="paint5_linear" x1="115.933" y1="32.9328" x2="116.593" y2="33.7358" gradientUnits="userSpaceOnUse">
<stop stop-color="#E7A328"/>
<stop offset="0.5522" stop-color="#E7A22A"/>
<stop offset="0.7511" stop-color="#E59D31"/>
<stop offset="0.8924" stop-color="#E2943C"/>
<stop offset="1" stop-color="#DE884C"/>
</linearGradient>
<linearGradient id="paint6_linear" x1="49.7437" y1="50.0731" x2="50.7833" y2="50.0731" gradientUnits="userSpaceOnUse">
<stop stop-color="#E7A328"/>
<stop offset="0.5522" stop-color="#E7A22A"/>
<stop offset="0.7511" stop-color="#E59D31"/>
<stop offset="0.8924" stop-color="#E2943C"/>
<stop offset="1" stop-color="#DE884C"/>
</linearGradient>
<linearGradient id="paint7_linear" x1="52.6713" y1="49.0259" x2="53.7109" y2="49.0259" gradientUnits="userSpaceOnUse">
<stop stop-color="#E7A328"/>
<stop offset="0.5522" stop-color="#E7A22A"/>
<stop offset="0.7511" stop-color="#E59D31"/>
<stop offset="0.8924" stop-color="#E2943C"/>
<stop offset="1" stop-color="#DE884C"/>
</linearGradient>
<linearGradient id="paint8_linear" x1="7.19408" y1="39.7689" x2="8.0847" y2="39.2326" gradientUnits="userSpaceOnUse">
<stop stop-color="#E7A328"/>
<stop offset="0.5522" stop-color="#E7A22A"/>
<stop offset="0.7511" stop-color="#E59D31"/>
<stop offset="0.8924" stop-color="#E2943C"/>
<stop offset="1" stop-color="#DE884C"/>
</linearGradient>
<linearGradient id="paint9_linear" x1="9.162" y1="37.3617" x2="10.0526" y2="36.8253" gradientUnits="userSpaceOnUse">
<stop stop-color="#E7A328"/>
<stop offset="0.5522" stop-color="#E7A22A"/>
<stop offset="0.7511" stop-color="#E59D31"/>
<stop offset="0.8924" stop-color="#E2943C"/>
<stop offset="1" stop-color="#DE884C"/>
</linearGradient>
<clipPath id="clip0">
<rect width="131.5" height="86.3" fill="white"/>
</clipPath>
</defs>
</svg>
