<svg width="44" height="58" viewBox="0 0 44 58" fill="none" xmlns="http://www.w3.org/2000/svg">
<g clip-path="url(#clip0)">
<path d="M9.09999 10.7999C8.59999 9.79992 9.59999 8.59992 9.79999 7.49992C9.99999 6.39992 9.39999 5.39992 9.39999 4.29992C9.39999 2.09992 11.6 0.499916 13.7 0.199916C16.2 -0.300084 19.1 0.699916 20.1 2.99992C20.9 4.99992 20.3 7.79992 22.1 8.79992C22.7 9.19992 23.5 9.19992 24.2 9.39992C26.9 9.89992 29.3 12.1999 29.9 14.8999C30.3 16.4999 30.1 18.3999 31.4 19.4999C32.7 20.6999 34.9 20.3999 36 21.7999C36.3 22.1999 36.5 22.6999 36.6 23.0999C37.6 25.9999 38.6 28.7999 39.5 31.6999C39.6 31.9999 39.7 32.1999 39.6 32.4999C39.5 32.7999 39.2 32.9999 38.9 33.0999C37.4 33.4999 36 32.1999 35.4 30.7999C34.8 29.3999 34.7 27.8999 34.1 26.4999C33.5 25.0999 32.1 23.7999 30.7 24.1999C30.3 24.8999 30.5 25.8999 30.9 26.5999C31.3 27.2999 31.9 27.9999 32.3 28.7999C33 30.2999 32.6 32.1999 33.1 33.7999C33.3 34.6999 33.8 35.4999 34.2 36.1999C35.2 37.8999 36.1 39.6999 37.1 41.3999C38.5 43.8999 40 46.4999 42.3 48.1999C43 48.6999 43.8 49.1999 44.1 49.9999C44.3 50.6999 44.1 51.3999 43.9 51.9999C43.3 52.9999 43 53.9999 42.7 54.8999C42.5 55.3999 42.4 55.8999 42.1 56.1999C41 57.4999 38.9 56.8999 37.1 57.0999C37 55.9999 38.3 55.3999 38.9 54.3999C39.7 53.0999 39.1 51.4999 38.4 50.0999C37.6 48.3999 36.7 46.6999 35.2 45.4999C34.4 44.8999 33.5 44.4999 32.6 43.8999C30.1 41.9999 29.2 38.6999 27.3 36.2999C26.5 35.2999 25.5 34.3999 24.2 34.2999C23.4 34.1999 22.7 34.3999 21.9 34.5999C20.6 34.8999 19.4 35.1999 18.1 35.4999C16.8 35.7999 15.3 36.2999 14.9 37.4999C14 39.6999 17.1 41.8999 16.5 44.0999C16.3 44.7999 15.7 45.3999 15.2 45.8999C13.4 47.4999 11.4 48.7999 9.19999 49.7999C8.99999 49.9999 8.59999 50.0999 8.29999 49.9999C8.09999 49.8999 7.89999 49.6999 7.79999 49.4999C7.19999 48.3999 7.69999 47.0999 8.39999 46.0999C9.09999 45.0999 10.1 44.2999 10.6 43.1999C11.7 41.0999 11.1 38.4999 9.79999 36.4999C9.39999 35.7999 8.89999 35.1999 8.89999 34.3999C8.89999 33.5999 9.49999 32.7999 10.2 32.3999C10.9 31.9999 11.7 31.6999 12.5 31.4999C14.5 30.7999 16.3 29.5999 17.7 28.0999C17.9 27.7999 18.2 27.5999 18.3 27.1999C18.9 25.5999 16.9 24.0999 16.9 22.3999C14.6 22.8999 12.5 25.0999 10.3 24.2999C9.49999 23.9999 8.89999 23.1999 8.29999 22.5999C5.79999 19.4999 3.19999 16.2999 0.699989 13.1999C0.0999891 12.4999 -0.400011 11.3999 0.299989 10.7999C0.599989 10.5999 0.899989 10.4999 1.19999 10.4999C2.89999 10.4999 4.09999 11.9999 4.99999 13.2999C5.79999 14.3999 6.49999 15.4999 7.29999 16.5999C7.99999 17.5999 8.69999 18.5999 9.69999 19.2999C10.7 19.9999 12 20.1999 13.1 19.5999C14 19.0999 14.5 17.8999 14.7 16.8999C15 15.1999 14.5 13.2999 13.6 11.8999C13.2 11.2999 12.5 10.1999 11.8 9.99992C10.7 9.59992 10.1 10.4999 9.09999 10.7999Z" fill="#272652"/>
</g>
<defs>
<clipPath id="clip0">
<rect width="43.9" height="57.1" fill="white"/>
</clipPath>
</defs>
</svg>
