<svg width="36" height="41" viewBox="0 0 36 41" fill="none" xmlns="http://www.w3.org/2000/svg">
<g clip-path="url(#clip0)">
<path d="M2.9 4.3002C1.8 6.2002 0.700002 8.2002 0.200002 10.3002C-0.299998 12.4002 2.02656e-06 14.9002 1.5 16.5002C2.9 18.0002 5.1 18.7002 6.2 20.5002C6.8 21.5002 6.9 22.7002 7 23.8002C7.3 28.1002 7.4 32.4002 7.3 36.7002C7.3 37.1002 7.3 37.4002 7 37.7002C6.7 38.1002 6.1 38.2002 5.6 38.4002C5.1 38.6002 4.7 39.3002 5.1 39.6002C5.2 39.7002 5.4 39.7002 5.6 39.8002C6.7 40.0002 7.8 40.0002 9 40.0002C9.1 40.0002 9.3 40.0002 9.4 39.9002C9.6 39.8002 9.6 39.5002 9.6 39.3002C9.6 37.1002 9.6 34.9002 9.6 32.7002C9.6 31.3002 9.6 29.8002 10.6 28.8002C11 28.5002 11.5 28.7002 11.8 29.1002C12.1 29.4002 12.1 29.9002 12.2 30.4002C12.5 32.7002 12.6 35.1002 12.5 37.4002C12.5 37.8002 12.4 38.3002 12.1 38.5002C11.8 38.7002 11.3 38.6002 11 38.7002C10.5 39.0002 10.6 39.8002 11.1 40.2002C11.6 40.6002 12.2 40.5002 12.8 40.5002C13.1 40.5002 13.4 40.5002 13.8 40.5002C13.9 40.5002 14.1 40.5002 14.2 40.4002C14.4 40.3002 14.4 40.1002 14.4 39.9002C14.8 36.9002 13.4 33.8002 14.2 30.9002C14.5 29.8002 15.5 28.6002 16.5 29.0002C16.9 29.1002 17.1 29.4002 17.3 29.8002C18.8 32.1002 18 35.3002 15.9 37.1002C15.3 37.7002 14.4 38.3002 14.6 39.1002C14.7 40.0002 15.8 40.4002 16.7 40.5002C19.2 40.8002 21.7 40.9002 24.2 40.6002C25.4 40.5002 26.6 40.3002 27.7 39.9002C30.7 38.9002 33.2 36.4002 34.5 33.5002C35.8 30.6002 35.9 27.2002 35 24.1002C34.3 21.6002 33 19.2002 32.4 16.7002C32.1 15.4002 32 13.8002 32.9 12.8002C33.4 12.2002 34.3 11.8002 34.7 11.1002C35 10.4002 34.8 9.5002 34.2 8.9002C33.6 8.30019 32.8 8.1002 32 8.1002C30.2 8.0002 28.4 8.6002 27.2 10.0002C26 11.4002 25.6 13.3002 26.1 14.9002C26.7 16.8002 28.4 18.1002 29.5 19.7002C30.4 21.0002 30.9 22.5002 31.3 24.0002C31.9 26.3002 32.3 28.7002 31.8 31.1002C31.3 33.5002 29.8 35.7002 27.5 36.4002C28 32.4002 28.5 28.3002 27.3 24.5002C26.1 20.7002 22.7 17.2002 18.7 17.3002C17.3 17.3002 16.2 16.1002 16.4 14.7002C16.5 13.5002 17.1 12.3002 16.7 11.1002C16.3 10.1002 15.2 9.5002 14.7 8.5002C14.2 7.6002 14.3 6.5002 14.5 5.4002C14.7 3.7002 15 1.9002 15.2 0.200195C13.8 2.0002 12.3 3.7002 10.9 5.5002C10.3 5.6002 10 5.9002 9.7 6.1002C8.8 6.7002 7.7 6.4002 6.6 6.3002C6 6.3002 5.5 5.8002 5.6 5.2002C5.7 3.6002 5.4 1.2002 4.8 1.0002C4.1 2.0002 3.5 3.2002 2.9 4.3002Z" fill="#14143D"/>
<path d="M5.49999 11.3004C6.16273 11.3004 6.69999 10.7631 6.69999 10.1004C6.69999 9.43765 6.16273 8.90039 5.49999 8.90039C4.83725 8.90039 4.29999 9.43765 4.29999 10.1004C4.29999 10.7631 4.83725 11.3004 5.49999 11.3004Z" fill="#FFEACC"/>
<path d="M9.99999 11.3004C10.6627 11.3004 11.2 10.7631 11.2 10.1004C11.2 9.43765 10.6627 8.90039 9.99999 8.90039C9.33725 8.90039 8.79999 9.43765 8.79999 10.1004C8.79999 10.7631 9.33725 11.3004 9.99999 11.3004Z" fill="#FFEACC"/>
</g>
<defs>
<clipPath id="clip0">
<rect width="35.4" height="40.5" fill="white"/>
</clipPath>
</defs>
</svg>
