<svg width="37" height="38" viewBox="0 0 37 38" fill="none" xmlns="http://www.w3.org/2000/svg">
<path d="M18.511 33.8001C26.2982 33.8001 32.611 27.4873 32.611 19.7001C32.611 11.9129 26.2982 5.6001 18.511 5.6001C10.7238 5.6001 4.41101 11.9129 4.41101 19.7001C4.41101 27.4873 10.7238 33.8001 18.511 33.8001Z" fill="#E7A328"/>
<path d="M7.01102 9.39994C7.21102 9.09994 7.31102 8.79995 7.41102 8.49995C7.51102 7.99995 7.41102 7.39995 7.11102 6.99995C6.81102 6.59995 6.21102 6.39995 5.71102 6.59995C5.51102 6.69995 5.31102 6.79995 5.21102 6.99995C4.31102 7.79995 3.31102 8.59994 2.41102 9.39994C1.21102 10.3999 1.71102 12.6999 3.41102 12.8999C5.21102 13.1999 6.31102 10.6999 7.01102 9.39994Z" fill="#3A3A68"/>
<path d="M7.81091 5.1001C8.01091 5.6001 8.21092 6.2001 8.41092 6.7001C8.51092 6.9001 8.61091 7.2001 8.81091 7.3001C9.11091 7.5001 9.61092 7.4001 10.0109 7.2001C11.6109 6.5001 13.2109 5.8001 14.8109 5.1001C14.9109 4.5001 15.0109 3.9001 14.7109 3.3001C14.4109 2.8001 13.8109 2.6001 13.2109 2.6001C12.6109 2.6001 12.1109 2.8001 11.6109 3.0001C10.3109 3.5001 9.01091 4.1001 7.81091 4.8001" fill="#3A3A68"/>
<path d="M16.411 4.19994C18.611 4.39994 20.811 4.79994 22.911 5.49994C23.311 4.49994 23.511 3.39994 23.611 2.29994C23.611 2.09994 23.611 1.89994 23.511 1.69994C23.411 1.49994 23.211 1.49994 23.011 1.39994C21.711 0.999936 19.111 0.299938 17.811 0.799938C16.111 1.39994 16.711 2.49994 16.411 4.19994Z" fill="#3A3A68"/>
<path d="M29.911 9.4001C30.011 9.5001 30.111 9.6001 30.211 9.6001C30.411 9.6001 30.611 9.4001 30.711 9.3001C31.111 8.7001 31.411 8.2001 31.811 7.6001C31.911 7.4001 32.011 7.2001 32.011 7.0001C32.011 6.7001 31.811 6.4001 31.611 6.2001C30.911 5.5001 30.111 4.7001 29.411 4.0001C29.011 3.6001 28.511 3.2001 28.011 3.1001C27.411 3.1001 26.911 3.5001 26.511 3.9001C25.911 4.4001 25.411 5.0001 25.011 5.7001C26.411 7.1001 28.411 8.1001 29.911 9.4001Z" fill="#3A3A68"/>
<path d="M3.71096 14.9001C3.11096 16.9001 2.81096 19.0001 2.81096 21.1001C2.21096 20.9001 1.51096 20.8001 0.910965 20.6001C0.710965 20.5001 0.41096 20.5001 0.21096 20.2001C0.11096 20.0001 0.110962 19.8001 0.110962 19.6001C0.110962 18.2001 0.110962 16.9001 0.110962 15.5001C0.110962 15.4001 0.11096 15.3001 0.21096 15.2001C0.31096 15.1001 0.510962 15.0001 0.610962 15.0001C1.61096 14.9001 2.61096 14.8001 3.61096 14.6001" fill="#3A3A68"/>
<path d="M0.0109287 24.9003C0.110929 25.2003 0.310929 25.5003 0.510929 25.7003C1.11093 26.5003 1.71093 27.2003 2.21093 28.0003C2.81093 28.8003 3.61093 29.6003 4.51093 29.4003C5.11093 29.3003 5.51093 28.7003 5.51093 28.1003C5.51093 27.7003 5.31093 27.4003 5.21093 27.1003C4.71093 26.1003 4.21092 22.6003 3.31092 22.3003C2.41092 22.0003 -0.189071 23.9003 0.0109287 24.9003Z" fill="#3A3A68"/>
<path d="M5.91101 33.4999C6.81101 34.0999 7.71101 34.6999 8.61101 35.2999C9.01101 35.5999 9.61101 35.8999 10.111 35.7999C11.011 35.5999 11.311 34.2999 10.811 33.4999C10.311 32.6999 7.71101 30.5 6.81101 30.4C4.71101 30.2 4.41101 32.4999 5.91101 33.4999Z" fill="#3A3A68"/>
<path d="M12.3109 36.6C12.3109 36.8 12.3109 37.1 12.5109 37.3C12.7109 37.6 13.1109 37.6 13.4109 37.7C15.0109 37.8 16.7109 37.9 18.3109 38C18.3109 37.2 18.3109 36.5 18.3109 35.7C18.3109 35.5 18.3109 35.3 18.2109 35.2C18.1109 35.1 18.0109 35 17.9109 35C16.8109 34.6 14.7109 33.8 13.5109 34.1C12.1109 34.3 12.2109 34.9 12.3109 36.6Z" fill="#3A3A68"/>
<path d="M20.111 35.1001C20.111 35.6001 20.211 36.2001 20.411 36.7001C20.611 37.2001 21.111 37.6001 21.611 37.7001C21.911 37.7001 22.311 37.6001 22.611 37.5001C23.611 37.1001 24.611 36.8001 25.611 36.4001C25.811 36.3001 25.911 36.3001 26.011 36.1001C26.111 35.9001 26.111 35.7001 26.111 35.6001C26.011 34.9001 25.911 34.3001 25.711 33.6001C23.911 34.0001 22.211 34.4001 20.411 34.8001" fill="#3A3A68"/>
<path d="M27.011 32.8C27.411 33.4 27.911 34.1 28.311 34.7C28.411 34.8 28.511 35 28.711 35C28.911 35 29.011 34.9 29.211 34.8C30.311 34 31.311 33.2 32.311 32.3C32.711 31.9 33.111 31.5 33.111 30.9C33.111 30.5 32.911 30.2 32.611 29.9C32.211 29.3 31.611 28.6 30.811 28.7C30.411 28.8 30.111 29 29.811 29.2C28.811 30.1 27.811 31.1 26.911 32.1" fill="#3A3A68"/>
<path d="M31.611 27.3001C32.311 27.7001 32.911 28.2001 33.611 28.6001C33.811 28.8001 34.111 28.9001 34.411 28.8001C34.611 28.7001 34.611 28.5001 34.711 28.4001C35.311 27.0001 35.911 25.6001 36.411 24.1001C36.511 23.7001 36.611 23.3001 36.411 23.0001C36.211 22.7001 35.811 22.5001 35.411 22.5001C34.711 22.4001 33.911 22.3001 33.511 22.8001C33.311 23.0001 33.211 23.3001 33.111 23.5001C32.711 24.7001 32.311 25.9001 31.911 27.1001" fill="#3A3A68"/>
<path d="M33.5109 20.7999C34.4109 20.7999 35.3109 20.7999 36.2109 20.8999C36.4109 20.8999 36.6109 20.8999 36.7109 20.7999C36.8109 20.6999 36.8109 20.4999 36.8109 20.3999C36.9109 18.5999 36.8109 16.6999 36.6109 14.8999C35.8109 14.8999 34.9109 14.8999 34.1109 14.8999C33.8109 14.8999 33.5109 14.9999 33.3109 15.1999C33.2109 15.3999 33.2109 15.5999 33.2109 15.7999C33.4109 17.4999 33.6109 19.0999 33.8109 20.7999" fill="#3A3A68"/>
<path d="M31.8109 11.8001C32.2109 12.2001 32.4109 12.8001 32.5109 13.3001C32.5109 13.5001 32.611 13.6001 32.711 13.7001C32.911 14.0001 33.411 14.0001 33.711 13.9001C34.111 13.8001 34.4109 13.6001 34.8109 13.5001C35.1109 13.5001 35.511 13.6001 35.611 13.3001C35.711 13.1001 35.611 13.0001 35.611 12.8001C35.311 12.0001 34.911 11.2001 34.411 10.5001C34.211 10.3001 34.111 10.0001 33.911 9.80008C33.811 9.60008 33.811 9.40007 33.611 9.20007C33.311 8.80007 32.711 8.80008 32.211 9.10008C31.711 9.40008 31.511 9.80007 31.111 10.1001C30.711 10.5001 30.5109 10.3001 30.8109 10.8001C31.1109 11.2001 31.5109 11.5001 31.8109 11.8001Z" fill="#3A3A68"/>
</svg>
