<svg width="66" height="66" viewBox="0 0 66 66" fill="none" xmlns="http://www.w3.org/2000/svg">
<path d="M11.9778 36.2V31.0001C11.9778 19.5001 20.5778 10.1 31.6778 8.80005V36.2H11.9778ZM36.8778 36.2H56.5778V31.0001C56.5778 19.5001 47.9778 10.1 36.8778 8.80005V36.2ZM36.8778 41.4V64.8H56.5778V41.4H36.8778ZM31.6778 41.4H11.9778V64.8H31.6778V41.4Z" fill="url(#paint0_linear)"/>
<path d="M0.177777 54.8001C0.177777 54.0001 0.177775 53.0001 0.777775 52.4001C1.17778 52.0001 1.87778 51.9001 2.47778 51.8001C3.97778 51.5001 5.77778 51.4001 6.57778 52.6001C8.37778 55.2001 7.97778 63.4001 4.97778 65.1001C-1.42222 68.6001 0.177777 58.1001 0.177777 54.8001Z" fill="#3A3A68"/>
<path d="M7.37772 47.4C5.87772 47.4 4.37772 47.4 2.87772 47.5C2.47772 47.5 2.17772 47.5 1.87772 47.3C1.37772 47 1.27771 46.3 1.27771 45.6C1.27771 42.2 1.27771 38.9 1.27771 35.5C1.27771 35.2 1.27771 34.9 1.47771 34.7C1.67771 34.5 1.97771 34.5 2.27771 34.5C3.97771 34.5 5.57771 34.5 7.27771 34.5C7.17771 38.7 6.97772 42.9 6.87772 47.1" fill="#3A3A68"/>
<path d="M3.67776 29.0001C3.27776 28.8001 2.87776 28.7001 2.57776 28.4001C1.17776 27.2001 2.07776 25.0001 3.07776 23.5001C4.37776 21.4001 5.77776 19.3001 7.07776 17.2001C7.97776 15.7001 9.57776 14.1001 11.1778 14.7001C12.3778 15.2001 12.6778 16.9001 12.2778 18.1001C11.8778 19.3001 10.9778 20.4001 10.3778 21.6001C7.97776 26.4001 10.3778 31.6001 3.67776 29.0001Z" fill="#3A3A68"/>
<path d="M11.8778 9.30011C11.9778 10.6001 12.5778 11.9001 13.4778 12.9001C13.7778 13.2001 14.1778 13.6001 14.6778 13.6001C15.1778 13.6001 15.5778 13.2001 15.8778 12.9001C18.5778 10.5001 21.8778 8.60012 25.3778 7.50012C25.2778 6.50012 25.1778 5.50007 24.7778 4.70007C24.3778 3.90007 23.4778 3.1001 22.4778 3.1001C21.7778 3.1001 21.2778 3.50011 20.6778 3.80011C17.8778 5.60011 14.9778 7.4001 12.1778 9.1001L11.8778 9.30011Z" fill="#3A3A68"/>
<path d="M29.2777 1.09995C29.4777 0.399952 30.4777 0.399976 31.1777 0.499976C33.4777 0.899976 35.8777 1.19995 38.1777 1.59995C39.2777 1.79995 40.3777 1.99995 41.3777 2.59995C42.2777 3.19995 42.9777 4.29994 42.6777 5.39994C42.4777 6.29994 41.4777 6.99993 40.5777 7.19993C39.6777 7.39993 38.6777 7.29995 37.6777 7.09995C34.8777 6.69995 32.0777 6.29994 29.2777 5.89994C29.2777 4.39994 29.2777 2.79996 29.2777 1.29996V1.09995Z" fill="#3A3A68"/>
<path d="M44.9778 7.70005C45.1778 8.10005 45.4778 8.40007 45.7778 8.60007L53.8778 14.7C54.0778 14.9 54.3778 14.8001 54.5778 14.6001C55.7778 13.1001 56.8778 11.3001 56.4778 9.5001C56.0778 8.0001 54.5778 6.90007 53.2778 6.10007C52.1778 5.40007 51.0778 4.60006 49.8778 3.90006C48.9778 3.30006 47.7778 2.7001 46.8778 3.5001C46.8778 3.4001 44.2778 6.20005 44.9778 7.70005Z" fill="#3A3A68"/>
<path d="M57.6777 21.0001C58.3777 22.4001 59.0777 23.9001 58.9777 25.5001C58.8777 26.2001 58.6777 27.0001 58.8777 27.7001C59.3777 29.3001 61.5777 29.4001 63.2777 29.1001C63.6777 29.0001 64.0777 28.9001 64.3777 28.6001C64.5777 28.3001 64.5777 28.0001 64.5777 27.7001C64.5777 25.4001 64.5777 23.0001 64.5777 20.7001C64.6777 13.0001 53.5777 12.1001 57.6777 21.0001Z" fill="#3A3A68"/>
<path d="M64.5778 33.4001C65.0778 37.6001 64.6778 41.8001 63.5778 45.9001C61.8778 45.9001 60.1778 45.8001 58.5778 45.4001C58.8778 41.7001 59.1778 38.1001 59.3778 34.4001C59.3778 34.0001 59.4778 33.6001 59.6778 33.2001C60.3778 31.8001 62.3778 32.1002 63.8778 32.6002L64.5778 33.4001Z" fill="#3A3A68"/>
<path d="M58.9778 63.3C58.9778 63.6 58.9778 64 59.2778 64.2C59.4778 64.4 59.7778 64.4 60.0778 64.4C61.6778 64.4 63.2778 64.4 64.7778 64.3C63.5778 64.3 69.1778 46.7 59.1778 48.8C58.4778 53.5 58.9778 58.6 58.9778 63.3Z" fill="#3A3A68"/>
<defs>
<linearGradient id="paint0_linear" x1="34.259" y1="64.7646" x2="34.259" y2="8.84525" gradientUnits="userSpaceOnUse">
<stop stop-color="#E7A328"/>
<stop offset="0.5328" stop-color="#E7A12A"/>
<stop offset="0.7247" stop-color="#E59A2F"/>
<stop offset="0.8615" stop-color="#E38F39"/>
<stop offset="0.9713" stop-color="#DF7E47"/>
<stop offset="1" stop-color="#DE784C"/>
</linearGradient>
</defs>
</svg>
